<svg xmlns="http://www.w3.org/2000/svg" xmlns:xlink="http://www.w3.org/1999/xlink" xmlns:lucid="lucid" width="3151.48" height="1232.84"><g transform="translate(1426 -113)" lucid:page-tab-id="0_0"><path d="M-1806.4 0h3676.8v2582.4h-3676.8z" fill="#ebeadf"/><path d="M1071.8 260h300.14v589.34H1071.8z" stroke="#000" stroke-width="2" fill="#b2b2b2"/><path d="M472.8 380h160v234.8h-160z" stroke="#000" stroke-width="2" fill="#83bbe5"/><use xlink:href="#a" transform="matrix(1,0,0,1,477.804812180583,385) translate(0 14.4)"/><path d="M472.8 770.27h160v202.25h-160z" stroke="#000" stroke-width="2" fill="url(#b)"/><use xlink:href="#c" transform="matrix(1,0,0,1,477.804812180583,775.2654935726102) translate(11.790123456790127 8.88888888888889)"/><use xlink:href="#d" transform="matrix(1,0,0,1,477.804812180583,775.2654935726102) translate(50.03086419753087 8.88888888888889)"/><use xlink:href="#e" transform="matrix(1,0,0,1,477.804812180583,775.2654935726102) translate(78.39506172839506 8.88888888888889)"/><use xlink:href="#f" transform="matrix(1,0,0,1,477.804812180583,775.2654935726102) translate(84.5679012345679 8.88888888888889)"/><use xlink:href="#g" transform="matrix(1,0,0,1,477.804812180583,775.2654935726102) translate(108.61111111111111 8.88888888888889)"/><path d="M553.8 750.76h-2V735.8h2zm0-122.96h-2v-11h2z"/><path d="M553.8 616.83h-2v-1.02h2zM552.8 766.03l-4.63-14.27h9.27z"/><path d="M552.8 769.27l-6-18.5h12.02zm-3.25-16.5l3.25 10.02 3.26-10.04z"/><use xlink:href="#h" transform="matrix(1,0,0,1,479.629812180583,627.7952946533923) translate(12.255000000000003 14.4)"/><use xlink:href="#i" transform="matrix(1,0,0,1,479.629812180583,627.7952946533923) translate(59.205000000000005 14.4)"/><use xlink:href="#j" transform="matrix(1,0,0,1,479.629812180583,627.7952946533923) translate(58.18000000000001 36)"/><use xlink:href="#k" transform="matrix(1,0,0,1,479.629812180583,627.7952946533923) translate(5.2549999999999955 57.6)"/><use xlink:href="#l" transform="matrix(1,0,0,1,479.629812180583,627.7952946533923) translate(67.205 57.6)"/><use xlink:href="#m" transform="matrix(1,0,0,1,479.629812180583,627.7952946533923) translate(87.205 57.6)"/><use xlink:href="#n" transform="matrix(1,0,0,1,479.629812180583,627.7952946533923) translate(59.705000000000005 79.20000000000002)"/><use xlink:href="#o" transform="matrix(1,0,0,1,479.629812180583,627.7952946533923) translate(0.0049999999999954525 100.80000000000001)"/><use xlink:href="#p" transform="matrix(1,0,0,1,479.629812180583,627.7952946533923) translate(93.155 100.80000000000001)"/><path d="M498.47 531.84h131.2v34.67h-131.2z" stroke="#000" stroke-width="2" fill="#c92d39"/><use xlink:href="#q" transform="matrix(1,0,0,1,503.4714788472496,536.8441361030477) translate(6.049999999999997 16.1)"/><use xlink:href="#r" transform="matrix(1,0,0,1,503.4714788472496,536.8441361030477) translate(59.95 16.1)"/><use xlink:href="#s" transform="matrix(1,0,0,1,503.4714788472496,536.8441361030477) translate(95.95 16.1)"/><path d="M761.7 676.76v2h-27.82v-2zm-80.7-20.6h-2V498.4h-44.2v-2H681z"/><path d="M634.83 498.4h-1.03v-2h1.03zM776.96 677.76l-14.26 4.63v-9.28z"/><path d="M780.2 677.76l-18.5 6v-12zm-16.5 3.26l10.03-3.26-10.03-3.26z"/><path d="M781.2 617.76h160v120h-160z" stroke="#000" stroke-width="2" fill="#b391b5"/><use xlink:href="#t" transform="matrix(1,0,0,1,786.2006839393813,622.7583380242004) translate(21.049999999999997 58.6)"/><use xlink:href="#u" transform="matrix(1,0,0,1,786.2006839393813,622.7583380242004) translate(64 58.6)"/><path d="M681 872.4h-46.2v-2H679V699.35h2zm80.7-193.64h-27.82v-2h27.82z"/><path d="M634.83 872.4h-1.03v-2h1.03zM776.96 677.76l-14.26 4.63v-9.28z"/><path d="M780.2 677.76l-18.5 6v-12zm-16.5 3.26l10.03-3.26-10.03-3.26z"/><use xlink:href="#v" transform="matrix(1,0,0,1,662.0339821366022,656.1583380242004) translate(0.005000000000002558 14.4)"/><use xlink:href="#w" transform="matrix(1,0,0,1,662.0339821366022,656.1583380242004) translate(21.455000000000005 36)"/><path d="M1141.88 408.84h160v120h-160z" stroke="#000" stroke-width="2" fill="#b391b5"/><use xlink:href="#t" transform="matrix(1,0,0,1,1146.878667510295,413.84413610304773) translate(21.049999999999997 58.6)"/><use xlink:href="#u" transform="matrix(1,0,0,1,1146.878667510295,413.84413610304773) translate(64 58.6)"/><path d="M1141.88 528.84h160v297.83h-160z" stroke="#000" stroke-width="2" fill="#f5b5c8"/><use xlink:href="#x" transform="matrix(1,0,0,1,1146.8786675102947,533.8441361030477) translate(0 14.4)"/><use xlink:href="#y" transform="matrix(1,0,0,1,1146.8786675102947,533.8441361030477) translate(42.95 14.4)"/><path d="M861 567.14h270.9v2H859v-94.16h2zm0-135.36h-2V320h-17v-2h19z"/><path d="M842.03 320H841v-2h1.03zM1147.16 568.14l-14.26 4.63v-9.27z"/><path d="M1150.4 568.14l-18.5 6v-12zm-16.5 3.26l10.03-3.26-10.03-3.26z"/><use xlink:href="#z" transform="matrix(1,0,0,1,795.3,431.776591795051) translate(46.73 14.4)"/><use xlink:href="#A" transform="matrix(1,0,0,1,795.3,431.776591795051) translate(0.0049999999999954525 36)"/><path d="M1071.8 260h300.14v56H1071.8z" stroke="#000" stroke-width="2" fill="#666"/><use xlink:href="#B" transform="matrix(1,0,0,1,1076.812500026471,265) translate(81.05 27.1)"/><use xlink:href="#C" transform="matrix(1,0,0,1,1076.812500026471,265) translate(147 27.1)"/><path d="M1141.88 327.6h160v81.24h-160z" stroke="#000" stroke-width="2" fill="#fff"/><use xlink:href="#D" transform="matrix(1,0,0,1,1146.878667510295,332.59999999999997) translate(5.021604938271608 12.444444444444446)"/><use xlink:href="#E" transform="matrix(1,0,0,1,1146.878667510295,332.59999999999997) translate(57.69444444444445 12.444444444444446)"/><use xlink:href="#F" transform="matrix(1,0,0,1,1146.878667510295,332.59999999999997) translate(100.04012345679013 12.444444444444446)"/><use xlink:href="#G" transform="matrix(1,0,0,1,1146.878667510295,332.59999999999997) translate(75 31.111111111111118)"/><use xlink:href="#H" transform="matrix(1,0,0,1,1146.878667510295,332.59999999999997) translate(5.950617283950606 49.777777777777786)"/><use xlink:href="#I" transform="matrix(1,0,0,1,1146.878667510295,332.59999999999997) translate(65.49382716049382 49.777777777777786)"/><use xlink:href="#J" transform="matrix(1,0,0,1,1146.878667510295,332.59999999999997) translate(102.6111111111111 49.777777777777786)"/><use xlink:href="#K" transform="matrix(1,0,0,1,1146.878667510295,332.59999999999997) translate(32.76234567901234 68.44444444444446)"/><path d="M943.2 646.4H961v-59.76" stroke="#000" stroke-width="2" fill="none"/><path d="M943.23 647.4h-1.03v-2h1.03z"/><path d="M961 571.38l4.62 14.26h-9.27z" stroke="#000" stroke-width="2"/><path d="M880.4 260h160v120h-160z" stroke="#000" stroke-width="2" fill="#ffc374"/><use xlink:href="#t" transform="matrix(1,0,0,1,885.4124996931532,265) translate(24.074999999999996 47.8)"/><use xlink:href="#L" transform="matrix(1,0,0,1,885.4124996931532,265) translate(67.025 47.8)"/><use xlink:href="#M" transform="matrix(1,0,0,1,885.4124996931532,265) translate(69 69.4)"/><path d="M960.4 382v92.57h.4v75.07" stroke="#000" stroke-width="2" fill="none"/><path d="M961.4 382.03h-2V381h2z"/><path d="M960.8 564.9l-4.62-14.26h9.27z" stroke="#000" stroke-width="2"/><path d="M478.14 450.8H584.8v34.68H478.14z" stroke="#000" stroke-width="2" fill="#fff"/><use xlink:href="#N" transform="matrix(1,0,0,1,483.13814551391636,455.8098589820908) translate(22.5 16.1)"/><path d="M491.14 493.88H597.8v34.66H491.14z" stroke="#000" stroke-width="2" fill="#fff"/><use xlink:href="#O" transform="matrix(1,0,0,1,496.13814551391636,498.87652564871877) translate(24.025 16.1)"/><path d="M478.14 407.74H584.8v34.67H478.14z" stroke="#000" stroke-width="2" fill="#fff"/><use xlink:href="#P" transform="matrix(1,0,0,1,483.13814551391636,412.74319231546286) translate(11.074999999999996 16.1)"/><path d="M476 794.12h74.75v34.67H476z" stroke="#000" stroke-width="2" fill="#ff8f80"/><use xlink:href="#Q" transform="matrix(1,0,0,1,480.99999999999994,799.1223012572985) translate(6.327160493827158 14.722222222222221)"/><path d="M476 840.14h74.75v34.67H476z" stroke="#000" stroke-width="2" fill="#ff8f80"/><use xlink:href="#R" transform="matrix(1,0,0,1,480.99999999999994,845.144160749568) translate(6.28086419753086 14.722222222222221)"/><path d="M476 886.17h74.75v34.66H476z" stroke="#000" stroke-width="2" fill="#ff8f80"/><use xlink:href="#S" transform="matrix(1,0,0,1,480.99999999999994,891.1660202418374) translate(19.86111111111111 14.722222222222221)"/><path d="M476 932.2h74.75v34.65H476z" stroke="#000" stroke-width="2" fill="#ff8f80"/><use xlink:href="#T" transform="matrix(1,0,0,1,480.99999999999994,937.1878797341068) translate(12.762345679012345 14.722222222222221)"/><path d="M1222.3 952.02h-2v-20h2zm.58-63.2h-2v-37.48h2z"/><path d="M1222.88 851.36h-2v-1.02h2zM1221.3 967.3l-4.63-14.28h9.27z"/><path d="M1221.3 970.52l-6-18.5h12zm-3.26-16.5l3.26 10.03 3.26-10.03z"/><use xlink:href="#U" transform="matrix(1,0,0,1,1187.6649791289183,888.8313406755998) translate(2.9299999999999997 14.4)"/><use xlink:href="#V" transform="matrix(1,0,0,1,1187.6649791289183,888.8313406755998) translate(49.93 14.4)"/><use xlink:href="#W" transform="matrix(1,0,0,1,1187.6649791289183,888.8313406755998) translate(0.005000000000002558 36)"/><path d="M1141.88 971.52h160v120h-160z" stroke="#000" stroke-width="2" fill="#5abaa7"/><use xlink:href="#X" transform="matrix(1,0,0,1,1146.878667510295,976.5234743511996) translate(37.574999999999996 47.8)"/><use xlink:href="#Y" transform="matrix(1,0,0,1,1146.878667510295,976.5234743511996) translate(36 69.4)"/><path d="M438.14 707.67H421v-2h17.14z"/><path d="M421.03 707.67H420v-2h1.03zM453.05 706.3l-14.17 4.9-.18-9.27z"/><path d="M456.3 706.22l-18.4 6.38-.23-12.02zm-16.45 3.6l9.97-3.47-10.1-3.06z"/><path d="M180 676.67h240v60H180z" stroke="#000" stroke-opacity="0" stroke-width="2" fill="#fff" fill-opacity="0"/><use xlink:href="#Z" transform="matrix(1,0,0,1,185,681.6666666666279) translate(81 28.6)"/><use xlink:href="#aa" transform="matrix(1,0,0,1,185,681.6666666666279) translate(198.10000000000002 28.6)"/><path d="M1168.55 578.14h106.66v34.67h-106.65z" stroke="#000" stroke-width="2" fill="#ffc374"/><use xlink:href="#ab" transform="matrix(1,0,0,1,1173.5453341769614,583.1392066120741) translate(11.024999999999999 16.1)"/><path d="M1168.55 612.8h106.66v34.67h-106.65z" stroke="#000" stroke-width="2" fill="#ffc374"/><use xlink:href="#ac" transform="matrix(1,0,0,1,1173.5453341769614,617.8058732787406) translate(20.525 16.1)"/><path d="M1168.55 647.47h106.66v34.67h-106.65z" stroke="#000" stroke-width="2" fill="#c92d39"/><use xlink:href="#ad" transform="matrix(1,0,0,1,1173.5453341769614,652.4725399454073) translate(11.549999999999997 16.1)"/><path d="M1168.55 716.8h106.66v34.67h-106.65z" stroke="#000" stroke-width="2" fill="#ef8d22"/><use xlink:href="#ab" transform="matrix(1,0,0,1,1173.5453341769614,721.8058732787404) translate(11.024999999999999 16.1)"/><path d="M1168.55 751.47h106.66v34.67h-106.65z" stroke="#000" stroke-width="2" fill="#ef8d22"/><use xlink:href="#ac" transform="matrix(1,0,0,1,1173.5453341769614,756.4725399454071) translate(20.525 16.1)"/><path d="M1168.55 786.14h106.66v34.67h-106.65z" stroke="#000" stroke-width="2" fill="#de5f85"/><use xlink:href="#ad" transform="matrix(1,0,0,1,1173.5453341769614,791.1392066120736) translate(11.549999999999997 16.1)"/><path d="M1151.4 558.14h106.67v20H1151.4z" stroke="#000" stroke-width="2" fill="#fff"/><use xlink:href="#ae" transform="matrix(1,0,0,1,1156.4000003333178,563.139206612074) translate(44.7962962962963 10.666666666666668)"/><path d="M1151.4 696.8h106.67v20H1151.4z" stroke="#000" stroke-width="2" fill="#fff"/><use xlink:href="#af" transform="matrix(1,0,0,1,1156.4000003333178,701.8058732787404) translate(44.7962962962963 10.666666666666668)"/><path d="M943.2 677.76h56.8V468.84h122.38" stroke="#000" stroke-width="2" fill="none"/><path d="M943.23 678.76h-1.03v-2h1.03z"/><path d="M1137.64 468.84l-14.26 4.64v-9.27z" stroke="#000" stroke-width="2"/><path d="M695.24 972.52H840v118H695.24z" stroke="#000" stroke-width="2" fill="#de5f85"/><use xlink:href="#ag" transform="matrix(1,0,0,1,700.2395831799022,977.5234743511996) translate(43.025 36.5)"/><use xlink:href="#ah" transform="matrix(1,0,0,1,700.2395831799022,977.5234743511996) translate(6.549999999999997 58.1)"/><use xlink:href="#ai" transform="matrix(1,0,0,1,700.2395831799022,977.5234743511996) translate(67.44999999999999 58.1)"/><use xlink:href="#aj" transform="matrix(1,0,0,1,700.2395831799022,977.5234743511996) translate(108.45 58.1)"/><use xlink:href="#ak" transform="matrix(1,0,0,1,700.2395831799022,977.5234743511996) translate(14.049999999999997 79.70000000000002)"/><use xlink:href="#al" transform="matrix(1,0,0,1,700.2395831799022,977.5234743511996) translate(60 79.70000000000002)"/><use xlink:href="#am" transform="matrix(1,0,0,1,700.2395831799022,977.5234743511996) translate(77 79.70000000000002)"/><use xlink:href="#an" transform="matrix(1,0,0,1,700.2395831799022,977.5234743511996) translate(108.95 79.70000000000002)"/><path d="M880.4 971.8h160v120h-160z" stroke="#000" stroke-width="2" fill="#ef8d22"/><use xlink:href="#t" transform="matrix(1,0,0,1,885.4124996931532,976.7994409342978) translate(24.074999999999996 47.8)"/><use xlink:href="#ao" transform="matrix(1,0,0,1,885.4124996931532,976.7994409342978) translate(67.025 47.8)"/><use xlink:href="#ap" transform="matrix(1,0,0,1,885.4124996931532,976.7994409342978) translate(44.525 69.4)"/><use xlink:href="#aq" transform="matrix(1,0,0,1,885.4124996931532,976.7994409342978) translate(61.525 69.4)"/><use xlink:href="#ar" transform="matrix(1,0,0,1,885.4124996931532,976.7994409342978) translate(93.475 69.4)"/><path d="M802.5 911H768.6v59.52h-2V909h35.87zm329.4-203.2H1041V911H931.9v-2H1039V705.8h92.9z"/><path d="M768.62 971.52h-2v-1.02h2zM1147.16 706.8l-14.26 4.64v-9.27z"/><path d="M1150.4 706.8l-18.5 6.02V700.8zm-16.5 3.26l10.03-3.25-10.03-3.25z"/><use xlink:href="#z" transform="matrix(1,0,0,1,802.4942337499863,888.4) translate(46.73 14.4)"/><use xlink:href="#A" transform="matrix(1,0,0,1,802.4942337499863,888.4) translate(0.0049999999999954525 36)"/><path d="M963.64 969.8v-41.3" stroke="#000" stroke-width="2" fill="none"/><path d="M964.64 970.8h-2v-1.03h2z"/><path d="M963.64 913.24l4.63 14.26H959z" stroke="#000" stroke-width="2"/><path d="M965.93 891.5h-2V706.58H943.2v-2h22.73z"/><path d="M943.23 706.58h-1.03v-2h1.03zM964.93 906.76l-4.64-14.26h9.26z"/><path d="M964.93 910l-6-18.5h12zm-3.26-16.5l3.26 10.03 3.26-10.03z"/><path d="M695.24 260H840v118H695.24z" stroke="#000" stroke-width="2" fill="#c92d39"/><use xlink:href="#ag" transform="matrix(1,0,0,1,700.2395831799022,265) translate(43.025 36.5)"/><use xlink:href="#ah" transform="matrix(1,0,0,1,700.2395831799022,265) translate(6.549999999999997 58.1)"/><use xlink:href="#ai" transform="matrix(1,0,0,1,700.2395831799022,265) translate(67.44999999999999 58.1)"/><use xlink:href="#as" transform="matrix(1,0,0,1,700.2395831799022,265) translate(108.45 58.1)"/><use xlink:href="#ak" transform="matrix(1,0,0,1,700.2395831799022,265) translate(38.525 79.70000000000002)"/><use xlink:href="#at" transform="matrix(1,0,0,1,700.2395831799022,265) translate(84.475 79.70000000000002)"/><path d="M555.92 794.12h74.75v34.67h-74.75z" stroke="#000" stroke-width="2" fill="#ffdf71"/><use xlink:href="#au" transform="matrix(1,0,0,1,560.9169258293152,799.1223012572984) translate(9.382716049382715 8.88888888888889)"/><use xlink:href="#av" transform="matrix(1,0,0,1,560.9169258293152,799.1223012572984) translate(20.462962962962962 22.22222222222222)"/><path d="M555.92 840.14h74.75v34.67h-74.75z" stroke="#000" stroke-width="2" fill="#ffdf71"/><use xlink:href="#aw" transform="matrix(1,0,0,1,560.9169258293152,845.1441607495678) translate(6.929012345679013 14.722222222222221)"/><path d="M555.92 885h74.75v35.83h-74.75z" stroke="#000" stroke-width="2" fill="#ffdf71"/><use xlink:href="#ax" transform="matrix(1,0,0,1,560.9169258293152,890.0041071006193) translate(22.021604938271608 8.88888888888889)"/><use xlink:href="#ay" transform="matrix(1,0,0,1,560.9169258293152,890.0041071006193) translate(9.691358024691354 22.22222222222222)"/><path d="M555.92 932.2h74.75v34.65h-74.75z" stroke="#000" stroke-width="2" fill="#ffdf71"/><use xlink:href="#az" transform="matrix(1,0,0,1,560.9169258293152,937.1878797341067) translate(2.5771604938271615 14.722222222222221)"/><use xlink:href="#aA" transform="matrix(1,0,0,1,560.9169258293152,937.1878797341067) translate(26.62037037037037 14.722222222222221)"/><path d="M498.47 570h131.2v34.67h-131.2z" stroke="#000" stroke-width="2" fill="#de5f85"/><use xlink:href="#q" transform="matrix(1,0,0,1,503.4714788472496,575) translate(6.049999999999997 16.1)"/><use xlink:href="#r" transform="matrix(1,0,0,1,503.4714788472496,575) translate(59.95 16.1)"/><use xlink:href="#aB" transform="matrix(1,0,0,1,503.4714788472496,575) translate(95.95 16.1)"/><path d="M-320 260h300.13v589.34H-320z" stroke="#000" stroke-width="2" fill="#b2b2b2"/><path d="M-919.5 380h160v196h-160z" stroke="#000" stroke-width="2" fill="#83bbe5"/><use xlink:href="#a" transform="matrix(1,0,0,1,-914.5088331299326,385) translate(0 14.4)"/><path d="M-892.84 538h106.66v34.67h-106.66z" stroke="#000" stroke-width="2" fill="#fff"/><use xlink:href="#aC" transform="matrix(1,0,0,1,-887.8421664632659,542.9999999999768) translate(6.049999999999997 16.1)"/><use xlink:href="#aD" transform="matrix(1,0,0,1,-887.8421664632659,542.9999999999768) translate(59.95 16.1)"/><path d="M-589.5 709v79.34h70v2h-72V711h-44.6v-2zm-89.5-20.6h-2V479h-76.5v-2h78.5z"/><path d="M-757.48 479h-1.03v-2h1.02zM-504.24 789.34l-14.26 4.63v-9.27z"/><path d="M-501 789.34l-18.5 6v-12zm-16.5 3.26l10.03-3.26-10.03-3.26z"/><path d="M-500 729.34h160v120h-160z" stroke="#000" stroke-width="2" fill="#b391b5"/><use xlink:href="#t" transform="matrix(1,0,0,1,-495,734.3392066119809) translate(21.049999999999997 58.6)"/><use xlink:href="#u" transform="matrix(1,0,0,1,-495,734.3392066119809) translate(64 58.6)"/><path d="M-679 925.1h-78.5v-2h76.5V731.6h2zm90-136.76h69.5v2H-591V711h-45.1v-2h47.1z"/><path d="M-757.48 925.1h-1.03v-2h1.02zM-504.24 789.34l-14.26 4.63v-9.27z"/><path d="M-501 789.34l-18.5 6v-12zm-16.5 3.26l10.03-3.26-10.03-3.26z"/><use xlink:href="#v" transform="matrix(1,0,0,1,-707.9554530258752,688.4) translate(0.005000000000002558 14.4)"/><use xlink:href="#w" transform="matrix(1,0,0,1,-707.9554530258752,688.4) translate(21.455000000000005 36)"/><path d="M-249.36 553.34h160v120h-160z" stroke="#000" stroke-width="2" fill="#b391b5"/><use xlink:href="#t" transform="matrix(1,0,0,1,-244.35645575342267,558.3392066120197) translate(21.049999999999997 58.6)"/><use xlink:href="#u" transform="matrix(1,0,0,1,-244.35645575342267,558.3392066120197) translate(64 58.6)"/><path d="M-249.36 433.34h160v120h-160z" stroke="#000" stroke-width="2" fill="#ffc374"/><use xlink:href="#t" transform="matrix(1,0,0,1,-244.35645575348087,438.33920661201967) translate(24.074999999999996 58.6)"/><use xlink:href="#aE" transform="matrix(1,0,0,1,-244.35645575348087,438.33920661201967) translate(67.025 58.6)"/><path d="M-249.36 673.34h160v120h-160z" stroke="#000" stroke-width="2" fill="#f5b5c8"/><use xlink:href="#x" transform="matrix(1,0,0,1,-244.35645575348087,678.3392066119811) translate(15.074999999999996 58.6)"/><use xlink:href="#aF" transform="matrix(1,0,0,1,-244.35645575348087,678.3392066119811) translate(58.025 58.6)"/><path d="M-289 559v173.34h20.14v2H-291V561h-145.68v-2zm-318.03 0v2h-21.6V380h2v179z"/><path d="M-626.62 380.03h-2V379h2zM-253.6 733.34l-14.26 4.63v-9.27z"/><path d="M-250.36 733.34l-18.5 6v-12zm-16.5 3.26l10.03-3.26-10.03-3.26z"/><use xlink:href="#aG" transform="matrix(1,0,0,1,-607.0295964628367,549.2) translate(0 14.4)"/><use xlink:href="#aH" transform="matrix(1,0,0,1,-607.0295964628367,549.2) translate(40.95 14.4)"/><path d="M-320 260h300.13v56H-320z" stroke="#000" stroke-width="2" fill="#666"/><use xlink:href="#B" transform="matrix(1,0,0,1,-315,265) translate(81.05 27.1)"/><use xlink:href="#C" transform="matrix(1,0,0,1,-315,265) translate(147 27.1)"/><path d="M-249.93 350h160v83.34h-160z" stroke="#000" stroke-width="2" fill="#fff"/><use xlink:href="#D" transform="matrix(1,0,0,1,-244.93383251617604,355.00587327868635) translate(5.021604938271608 12.444444444444446)"/><use xlink:href="#E" transform="matrix(1,0,0,1,-244.93383251617604,355.00587327868635) translate(57.69444444444445 12.444444444444446)"/><use xlink:href="#F" transform="matrix(1,0,0,1,-244.93383251617604,355.00587327868635) translate(100.04012345679013 12.444444444444446)"/><use xlink:href="#G" transform="matrix(1,0,0,1,-244.93383251617604,355.00587327868635) translate(75 31.111111111111118)"/><use xlink:href="#aI" transform="matrix(1,0,0,1,-244.93383251617604,355.00587327868635) translate(25.373456790123456 49.777777777777786)"/><use xlink:href="#aJ" transform="matrix(1,0,0,1,-244.93383251617604,355.00587327868635) translate(62.49074074074074 49.777777777777786)"/><use xlink:href="#K" transform="matrix(1,0,0,1,-244.93383251617604,355.00587327868635) translate(32.76234567901234 68.44444444444446)"/><path d="M-419 727.34h-2V579.67h-.25v-1.17h1v-.83h1.25z"/><path d="M-419 728.34h-2v-1.03h2zM-415.6 577.5h-9.28l4.63-14.26z"/><path d="M-414.23 578.5h-12.03l6-18.5zm-9.27-2h6.5l-3.25-10.03z"/><path d="M-500 260h160v120h-160z" stroke="#000" stroke-width="2" fill="#ffc374"/><g><use xlink:href="#t" transform="matrix(1,0,0,1,-495,265) translate(24.074999999999996 58.6)"/><use xlink:href="#aE" transform="matrix(1,0,0,1,-495,265) translate(67.025 58.6)"/></g><path d="M-419 471.5h-.25v70h-2v-72h.25V382h2z"/><path d="M-419 382.03h-2V381h2zM-420.25 556.76l-4.63-14.26h9.27z"/><path d="M-420.25 560l-6-18.5h12.02zm-3.25-16.5l3.25 10.03 3.26-10.03z"/><path d="M-914.18 451.87h106.67v34.66H-914.2z" stroke="#000" stroke-width="2" fill="#fff"/><g><use xlink:href="#N" transform="matrix(1,0,0,1,-909.1754997965994,456.86666666672085) translate(22.5 16.1)"/></g><path d="M-901.18 494.93h106.67v34.67H-901.2z" stroke="#000" stroke-width="2" fill="#fff"/><g><use xlink:href="#O" transform="matrix(1,0,0,1,-896.1754997965994,499.9333333333488) translate(24.025 16.1)"/></g><path d="M-914.18 408.8h106.67v34.67H-914.2z" stroke="#000" stroke-width="2" fill="#fff"/><g><use xlink:href="#P" transform="matrix(1,0,0,1,-909.1754997965994,413.8000000000929) translate(11.074999999999996 16.1)"/></g><path d="M-382.14 382v111.34h113.28" stroke="#000" stroke-width="2" fill="none"/><path d="M-381.14 382.03h-2V381h2z"/><path d="M-253.6 493.34l-14.26 4.63v-9.27z" stroke="#000" stroke-width="2"/><path d="M-379.83 727.34v-114h110.97" stroke="#000" stroke-width="2" fill="none"/><path d="M-378.83 728.34h-2v-1.03h2z"/><path d="M-253.6 613.34l-14.26 4.63v-9.27z" stroke="#000" stroke-width="2"/><path d="M-169.5 951.02h-2v-19.5h2zm.57-62.7h-2v-36.98h2z"/><path d="M-168.93 851.36h-2v-1.02h2zM-170.5 966.3l-4.65-14.28h9.27z"/><path d="M-170.5 969.52l-6.02-18.5h12.02zm-3.27-16.5l3.26 10.03 3.25-10.03z"/><g><use xlink:href="#U" transform="matrix(1,0,0,1,-204.14752089755268,888.3313406755998) translate(2.9299999999999997 14.4)"/><use xlink:href="#V" transform="matrix(1,0,0,1,-204.14752089755268,888.3313406755998) translate(49.93 14.4)"/><use xlink:href="#W" transform="matrix(1,0,0,1,-204.14752089755268,888.3313406755998) translate(0.005000000000002558 36)"/></g><path d="M-249.93 970.52h160v120h-160z" stroke="#000" stroke-width="2" fill="#5abaa7"/><g><use xlink:href="#X" transform="matrix(1,0,0,1,-244.93383251617607,975.5234743511996) translate(37.574999999999996 47.8)"/><use xlink:href="#Y" transform="matrix(1,0,0,1,-244.93383251617607,975.5234743511996) translate(36 69.4)"/></g><path d="M-979 642.75h24.47" stroke="#000" stroke-width="2" fill="none"/><path d="M-978.97 643.75H-980v-2h1.03z"/><path d="M-939.26 642.75l-14.27 4.63v-9.27z" stroke="#000" stroke-width="2"/><path d="M-1220 612.75h240v60h-240z" stroke="#000" stroke-opacity="0" stroke-width="2" fill="#fff" fill-opacity="0"/><g><use xlink:href="#Z" transform="matrix(1,0,0,1,-1215,617.7465967714085) translate(40.5 28.6)"/><use xlink:href="#aa" transform="matrix(1,0,0,1,-1215,617.7465967714085) translate(157.60000000000002 28.6)"/></g><path d="M-700 260h144.76v118H-700z" stroke="#000" stroke-width="2" fill="#c92d39"/><g><use xlink:href="#ag" transform="matrix(1,0,0,1,-695,265) translate(43.025 36.5)"/><use xlink:href="#ah" transform="matrix(1,0,0,1,-695,265) translate(21.549999999999997 58.1)"/><use xlink:href="#aK" transform="matrix(1,0,0,1,-695,265) translate(82.44999999999999 58.1)"/><use xlink:href="#ak" transform="matrix(1,0,0,1,-695,265) translate(38.525 79.70000000000002)"/><use xlink:href="#at" transform="matrix(1,0,0,1,-695,265) translate(84.475 79.70000000000002)"/></g><path d="M-919.5 769.27h160v202.25h-160z" stroke="#000" stroke-width="2" fill="url(#aL)"/><g><use xlink:href="#c" transform="matrix(1,0,0,1,-914.5088331299326,774.2654935726102) translate(11.790123456790127 8.88888888888889)"/><use xlink:href="#d" transform="matrix(1,0,0,1,-914.5088331299326,774.2654935726102) translate(50.03086419753087 8.88888888888889)"/><use xlink:href="#e" transform="matrix(1,0,0,1,-914.5088331299326,774.2654935726102) translate(78.39506172839506 8.88888888888889)"/><use xlink:href="#f" transform="matrix(1,0,0,1,-914.5088331299326,774.2654935726102) translate(84.5679012345679 8.88888888888889)"/><use xlink:href="#g" transform="matrix(1,0,0,1,-914.5088331299326,774.2654935726102) translate(108.61111111111111 8.88888888888889)"/></g><path d="M-838.5 749.76h-2v-36.5h2zm0-144.5h-2V578h2z"/><path d="M-838.5 578.03h-2V577h2zM-839.5 765.03l-4.64-14.27h9.27z"/><path d="M-839.5 768.27l-6.02-18.5h12.02zm-3.27-16.5l3.26 10.02 3.25-10.04z"/><g><use xlink:href="#h" transform="matrix(1,0,0,1,-912.6838331299325,605.2463867433794) translate(12.255000000000003 14.4)"/><use xlink:href="#i" transform="matrix(1,0,0,1,-912.6838331299325,605.2463867433794) translate(59.205000000000005 14.4)"/><use xlink:href="#j" transform="matrix(1,0,0,1,-912.6838331299325,605.2463867433794) translate(58.18000000000001 36)"/><use xlink:href="#k" transform="matrix(1,0,0,1,-912.6838331299325,605.2463867433794) translate(5.2549999999999955 57.6)"/><use xlink:href="#l" transform="matrix(1,0,0,1,-912.6838331299325,605.2463867433794) translate(67.205 57.6)"/><use xlink:href="#m" transform="matrix(1,0,0,1,-912.6838331299325,605.2463867433794) translate(87.205 57.6)"/><use xlink:href="#n" transform="matrix(1,0,0,1,-912.6838331299325,605.2463867433794) translate(59.705000000000005 79.20000000000002)"/><use xlink:href="#o" transform="matrix(1,0,0,1,-912.6838331299325,605.2463867433794) translate(0.0049999999999954525 100.80000000000001)"/><use xlink:href="#p" transform="matrix(1,0,0,1,-912.6838331299325,605.2463867433794) translate(93.155 100.80000000000001)"/></g><path d="M-916.3 793.12h74.74v34.67h-74.75z" stroke="#000" stroke-width="2" fill="#ff8f80"/><g><use xlink:href="#Q" transform="matrix(1,0,0,1,-911.3136453105155,798.1223012572987) translate(6.327160493827158 14.722222222222221)"/></g><path d="M-916.3 839.14h74.74v34.67h-74.75z" stroke="#000" stroke-width="2" fill="#ff8f80"/><g><use xlink:href="#R" transform="matrix(1,0,0,1,-911.3136453105155,844.1441607495681) translate(6.28086419753086 14.722222222222221)"/></g><path d="M-916.3 885.17h74.74v34.66h-74.75z" stroke="#000" stroke-width="2" fill="#ff8f80"/><g><use xlink:href="#S" transform="matrix(1,0,0,1,-911.3136453105155,890.1660202418375) translate(19.86111111111111 14.722222222222221)"/></g><path d="M-916.3 931.2h74.74v34.65h-74.75z" stroke="#000" stroke-width="2" fill="#ff8f80"/><g><use xlink:href="#T" transform="matrix(1,0,0,1,-911.3136453105155,936.1878797341069) translate(12.762345679012345 14.722222222222221)"/></g><path d="M-836.4 793.12h74.75v34.67h-74.75z" stroke="#000" stroke-width="2" fill="#ffdf71"/><g><use xlink:href="#au" transform="matrix(1,0,0,1,-831.3967194812003,798.1223012572984) translate(9.382716049382715 8.88888888888889)"/><use xlink:href="#av" transform="matrix(1,0,0,1,-831.3967194812003,798.1223012572984) translate(20.462962962962962 22.22222222222222)"/></g><path d="M-836.4 839.14h74.75v34.67h-74.75z" stroke="#000" stroke-width="2" fill="#ffdf71"/><g><use xlink:href="#aw" transform="matrix(1,0,0,1,-831.3967194812003,844.1441607495678) translate(6.929012345679013 14.722222222222221)"/></g><path d="M-836.4 884h74.75v35.83h-74.75z" stroke="#000" stroke-width="2" fill="#ffdf71"/><g><use xlink:href="#ax" transform="matrix(1,0,0,1,-831.3967194812003,889.0041071006194) translate(22.021604938271608 8.88888888888889)"/><use xlink:href="#ay" transform="matrix(1,0,0,1,-831.3967194812003,889.0041071006194) translate(9.691358024691354 22.22222222222222)"/></g><path d="M-836.4 931.2h74.75v34.65h-74.75z" stroke="#000" stroke-width="2" fill="#ffdf71"/><g><use xlink:href="#az" transform="matrix(1,0,0,1,-831.3967194812003,936.1878797341067) translate(2.5771604938271615 14.722222222222221)"/><use xlink:href="#aA" transform="matrix(1,0,0,1,-831.3967194812003,936.1878797341067) translate(26.62037037037037 14.722222222222221)"/></g><path d="M-880 133h820v74h-820z" stroke="#000" stroke-opacity="0" stroke-width="2" fill="#fff" fill-opacity="0"/><g><use xlink:href="#aM" transform="matrix(1,0,0,1,-875,138) translate(82.62962962962968 42.66666666666667)"/><use xlink:href="#aN" transform="matrix(1,0,0,1,-875,138) translate(209.88888888888894 42.66666666666667)"/><use xlink:href="#aO" transform="matrix(1,0,0,1,-875,138) translate(437.74074074074076 42.66666666666667)"/></g><path d="M555.92 133h820v74h-820z" stroke="#000" stroke-opacity="0" stroke-width="2" fill="#fff" fill-opacity="0"/><g><use xlink:href="#aM" transform="matrix(1,0,0,1,560.9169258293152,138) translate(118.11111111111109 42.66666666666667)"/><use xlink:href="#aP" transform="matrix(1,0,0,1,560.9169258293152,138) translate(245.37037037037035 42.66666666666667)"/><use xlink:href="#aO" transform="matrix(1,0,0,1,560.9169258293152,138) translate(402.25925925925924 42.66666666666667)"/></g><path d="M-944.8 1126.02h2220v199.82h-2220z" stroke="#000" stroke-opacity="0" stroke-width="2" fill="#fff" fill-opacity="0"/><g><use xlink:href="#aQ" transform="matrix(1,0,0,1,-939.7879991563718,1131.0214522801512) translate(479.96296296296293 73.66666666666667)"/><use xlink:href="#aR" transform="matrix(1,0,0,1,-939.7879991563718,1131.0214522801512) translate(607.2222222222222 73.66666666666667)"/><use xlink:href="#aS" transform="matrix(1,0,0,1,-939.7879991563718,1131.0214522801512) translate(790.7777777777778 73.66666666666667)"/><use xlink:href="#aT" transform="matrix(1,0,0,1,-939.7879991563718,1131.0214522801512) translate(846.9259259259259 73.66666666666667)"/><use xlink:href="#aU" transform="matrix(1,0,0,1,-939.7879991563718,1131.0214522801512) translate(1027.3703703703704 73.66666666666667)"/><use xlink:href="#aV" transform="matrix(1,0,0,1,-939.7879991563718,1131.0214522801512) translate(1071.8148148148148 73.66666666666667)"/><use xlink:href="#aW" transform="matrix(1,0,0,1,-939.7879991563718,1131.0214522801512) translate(1415.962962962963 73.66666666666667)"/><use xlink:href="#aX" transform="matrix(1,0,0,1,-939.7879991563718,1131.0214522801512) translate(1561.1481481481483 73.66666666666667)"/><use xlink:href="#aY" transform="matrix(1,0,0,1,-939.7879991563718,1131.0214522801512) translate(463.14814814814804 137.66666666666669)"/><use xlink:href="#aN" transform="matrix(1,0,0,1,-939.7879991563718,1131.0214522801512) translate(590.4074074074073 137.66666666666669)"/><use xlink:href="#aZ" transform="matrix(1,0,0,1,-939.7879991563718,1131.0214522801512) translate(818.2592592592591 137.66666666666669)"/><use xlink:href="#ba" transform="matrix(1,0,0,1,-939.7879991563718,1131.0214522801512) translate(1113.8148148148148 137.66666666666669)"/><use xlink:href="#bb" transform="matrix(1,0,0,1,-939.7879991563718,1131.0214522801512) translate(1181.962962962963 137.66666666666669)"/><use xlink:href="#aP" transform="matrix(1,0,0,1,-939.7879991563718,1131.0214522801512) translate(1309.2222222222222 137.66666666666669)"/><use xlink:href="#bc" transform="matrix(1,0,0,1,-939.7879991563718,1131.0214522801512) translate(1466.111111111111 137.66666666666669)"/></g><defs><path d="M205 0l-28-72H64L36 0H1l101-248h38L239 0h-34zm-38-99l-47-123c-12 45-31 82-46 123h93" id="bd"/><path d="M135-143c-3-34-86-38-87 0 15 53 115 12 119 90S17 21 10-45l28-5c4 36 97 45 98 0-10-56-113-15-118-90-4-57 82-63 122-42 12 7 21 19 24 35" id="be"/><path d="M100-194c63 0 86 42 84 106H49c0 40 14 67 53 68 26 1 43-12 49-29l28 8c-11 28-37 45-77 45C44 4 14-33 15-96c1-61 26-98 85-98zm52 81c6-60-76-77-97-28-3 7-6 17-6 28h103" id="bf"/><path d="M114-163C36-179 61-72 57 0H25l-1-190h30c1 12-1 29 2 39 6-27 23-49 58-41v29" id="bg"/><path d="M59-47c-2 24 18 29 38 22v24C64 9 27 4 27-40v-127H5v-23h24l9-43h21v43h35v23H59v120" id="bh"/><path d="M24-231v-30h32v30H24zM24 0v-190h32V0H24" id="bi"/><path d="M100-194c62-1 85 37 85 99 1 63-27 99-86 99S16-35 15-95c0-66 28-99 85-99zM99-20c44 1 53-31 53-75 0-43-8-75-51-75s-53 32-53 75 10 74 51 75" id="bj"/><path d="M117-194c89-4 53 116 60 194h-32v-121c0-31-8-49-39-48C34-167 62-67 57 0H25l-1-190h30c1 10-1 24 2 32 11-22 29-35 61-36" id="bk"/><g id="a"><use transform="matrix(0.05,0,0,0.05,0,0)" xlink:href="#bd"/><use transform="matrix(0.05,0,0,0.05,12,0)" xlink:href="#be"/><use transform="matrix(0.05,0,0,0.05,21,0)" xlink:href="#be"/><use transform="matrix(0.05,0,0,0.05,30,0)" xlink:href="#bf"/><use transform="matrix(0.05,0,0,0.05,40,0)" xlink:href="#bg"/><use transform="matrix(0.05,0,0,0.05,45.95,0)" xlink:href="#bh"/><use transform="matrix(0.05,0,0,0.05,50.95,0)" xlink:href="#bi"/><use transform="matrix(0.05,0,0,0.05,54.900000000000006,0)" xlink:href="#bj"/><use transform="matrix(0.05,0,0,0.05,64.9,0)" xlink:href="#bk"/></g><linearGradient gradientUnits="userSpaceOnUse" id="b" x1="632.8" y1="972.52" x2="472.8" y2="972.52"><stop offset="0%" stop-color="#ffdf71"/><stop offset="100%" stop-color="#ff8f80"/></linearGradient><path d="M96-169c-40 0-48 33-48 73s9 75 48 75c24 0 41-14 43-38l32 2c-6 37-31 61-74 61-59 0-76-41-82-99-10-93 101-131 147-64 4 7 5 14 7 22l-32 3c-4-21-16-35-41-35" id="bl"/><path d="M106-169C34-169 62-67 57 0H25v-261h32l-1 103c12-21 28-36 61-36 89 0 53 116 60 194h-32v-121c2-32-8-49-39-48" id="bm"/><g id="c"><use transform="matrix(0.030864197530864196,0,0,0.030864197530864196,0,0)" xlink:href="#bd"/><use transform="matrix(0.030864197530864196,0,0,0.030864197530864196,7.4074074074074066,0)" xlink:href="#bk"/><use transform="matrix(0.030864197530864196,0,0,0.030864197530864196,13.580246913580247,0)" xlink:href="#bl"/><use transform="matrix(0.030864197530864196,0,0,0.030864197530864196,19.135802469135804,0)" xlink:href="#bm"/><use transform="matrix(0.030864197530864196,0,0,0.030864197530864196,25.308641975308642,0)" xlink:href="#bj"/><use transform="matrix(0.030864197530864196,0,0,0.030864197530864196,31.48148148148148,0)" xlink:href="#bg"/></g><path d="M115-194c55 1 70 41 70 98S169 2 115 4C84 4 66-9 55-30l1 105H24l-1-265h31l2 30c10-21 28-34 59-34zm-8 174c40 0 45-34 45-75s-6-73-45-74c-42 0-51 32-51 76 0 43 10 73 51 73" id="bn"/><path d="M101-234c-31-9-42 10-38 44h38v23H63V0H32v-167H5v-23h27c-7-52 17-82 69-68v24" id="bo"/><g id="d"><use transform="matrix(0.030864197530864196,0,0,0.030864197530864196,0,0)" xlink:href="#bn"/><use transform="matrix(0.030864197530864196,0,0,0.030864197530864196,6.172839506172839,0)" xlink:href="#bg"/><use transform="matrix(0.030864197530864196,0,0,0.030864197530864196,9.845679012345679,0)" xlink:href="#bj"/><use transform="matrix(0.030864197530864196,0,0,0.030864197530864196,16.01851851851852,0)" xlink:href="#bj"/><use transform="matrix(0.030864197530864196,0,0,0.030864197530864196,22.191358024691358,0)" xlink:href="#bo"/></g><path d="M0 4l72-265h28L28 4H0" id="bp"/><use transform="matrix(0.030864197530864196,0,0,0.030864197530864196,0,0)" xlink:href="#bp" id="e"/><path d="M127-220V0H93v-220H8v-28h204v28h-85" id="bq"/><path d="M185-189c-5-48-123-54-124 2 14 75 158 14 163 119 3 78-121 87-175 55-17-10-28-26-33-46l33-7c5 56 141 63 141-1 0-78-155-14-162-118-5-82 145-84 179-34 5 7 8 16 11 25" id="br"/><g id="f"><use transform="matrix(0.030864197530864196,0,0,0.030864197530864196,0,0)" xlink:href="#bq"/><use transform="matrix(0.030864197530864196,0,0,0.030864197530864196,6.759259259259259,0)" xlink:href="#br"/><use transform="matrix(0.030864197530864196,0,0,0.030864197530864196,14.166666666666664,0)" xlink:href="#bd"/></g><path d="M143 0L79-87 56-68V0H24v-261h32v163l83-92h37l-77 82L181 0h-38" id="bs"/><g id="g"><use transform="matrix(0.030864197530864196,0,0,0.030864197530864196,0,0)" xlink:href="#bq"/><use transform="matrix(0.030864197530864196,0,0,0.030864197530864196,5.524691358024691,0)" xlink:href="#bj"/><use transform="matrix(0.030864197530864196,0,0,0.030864197530864196,11.69753086419753,0)" xlink:href="#bs"/><use transform="matrix(0.030864197530864196,0,0,0.030864197530864196,17.253086419753085,0)" xlink:href="#bf"/><use transform="matrix(0.030864197530864196,0,0,0.030864197530864196,23.425925925925924,0)" xlink:href="#bk"/></g><path d="M197 0v-115H63V0H30v-248h33v105h134v-105h34V0h-34" id="bt"/><path d="M141-36C126-15 110 5 73 4 37 3 15-17 15-53c-1-64 63-63 125-63 3-35-9-54-41-54-24 1-41 7-42 31l-33-3c5-37 33-52 76-52 45 0 72 20 72 64v82c-1 20 7 32 28 27v20c-31 9-61-2-59-35zM48-53c0 20 12 33 32 33 41-3 63-29 60-74-43 2-92-5-92 41" id="bu"/><g id="h"><use transform="matrix(0.05,0,0,0.05,0,0)" xlink:href="#bt"/><use transform="matrix(0.05,0,0,0.05,12.950000000000001,0)" xlink:href="#bu"/><use transform="matrix(0.05,0,0,0.05,22.950000000000003,0)" xlink:href="#be"/><use transform="matrix(0.05,0,0,0.05,31.950000000000003,0)" xlink:href="#bm"/></g><g id="i"><use transform="matrix(0.05,0,0,0.05,0,0)" xlink:href="#bd"/><use transform="matrix(0.05,0,0,0.05,12,0)" xlink:href="#be"/><use transform="matrix(0.05,0,0,0.05,21,0)" xlink:href="#be"/><use transform="matrix(0.05,0,0,0.05,30,0)" xlink:href="#bf"/><use transform="matrix(0.05,0,0,0.05,40,0)" xlink:href="#bg"/><use transform="matrix(0.05,0,0,0.05,45.95,0)" xlink:href="#bh"/><use transform="matrix(0.05,0,0,0.05,50.95,0)" xlink:href="#bi"/><use transform="matrix(0.05,0,0,0.05,54.900000000000006,0)" xlink:href="#bj"/><use transform="matrix(0.05,0,0,0.05,64.9,0)" xlink:href="#bk"/></g><path d="M85-194c31 0 48 13 60 33l-1-100h32l1 261h-30c-2-10 0-23-3-31C134-8 116 4 85 4 32 4 16-35 15-94c0-66 23-100 70-100zm9 24c-40 0-46 34-46 75 0 40 6 74 45 74 42 0 51-32 51-76 0-42-9-74-50-73" id="bv"/><g id="j"><use transform="matrix(0.05,0,0,0.05,0,0)" xlink:href="#bu"/><use transform="matrix(0.05,0,0,0.05,10,0)" xlink:href="#bk"/><use transform="matrix(0.05,0,0,0.05,20,0)" xlink:href="#bv"/></g><g id="k"><use transform="matrix(0.05,0,0,0.05,0,0)" xlink:href="#bd"/><use transform="matrix(0.05,0,0,0.05,12,0)" xlink:href="#bk"/><use transform="matrix(0.05,0,0,0.05,22,0)" xlink:href="#bl"/><use transform="matrix(0.05,0,0,0.05,31,0)" xlink:href="#bm"/><use transform="matrix(0.05,0,0,0.05,41,0)" xlink:href="#bj"/><use transform="matrix(0.05,0,0,0.05,51,0)" xlink:href="#bg"/></g><g id="l"><use transform="matrix(0.05,0,0,0.05,0,0)" xlink:href="#bh"/><use transform="matrix(0.05,0,0,0.05,5,0)" xlink:href="#bj"/></g><path d="M160-131c35 5 61 23 61 61C221 17 115-2 30 0v-248c76 3 177-17 177 60 0 33-19 50-47 57zm-97-11c50-1 110 9 110-42 0-47-63-36-110-37v79zm0 115c55-2 124 14 124-45 0-56-70-42-124-44v89" id="bw"/><g id="m"><use transform="matrix(0.05,0,0,0.05,0,0)" xlink:href="#bw"/><use transform="matrix(0.05,0,0,0.05,12,0)" xlink:href="#bi"/><use transform="matrix(0.05,0,0,0.05,15.949999999999998,0)" xlink:href="#bh"/><use transform="matrix(0.05,0,0,0.05,20.95,0)" xlink:href="#bl"/><use transform="matrix(0.05,0,0,0.05,29.950000000000003,0)" xlink:href="#bj"/><use transform="matrix(0.05,0,0,0.05,39.95,0)" xlink:href="#bi"/><use transform="matrix(0.05,0,0,0.05,43.900000000000006,0)" xlink:href="#bk"/></g><path d="M140-251c81 0 123 46 123 126C263-46 219 4 140 4 59 4 17-45 17-125s42-126 123-126zm0 227c63 0 89-41 89-101s-29-99-89-99c-61 0-89 39-89 99S79-25 140-24" id="bx"/><path d="M233-177c-1 41-23 64-60 70L243 0h-38l-65-103H63V0H30v-248c88 3 205-21 203 71zM63-129c60-2 137 13 137-47 0-61-80-42-137-45v92" id="by"/><g id="n"><use transform="matrix(0.05,0,0,0.05,0,0)" xlink:href="#bx"/><use transform="matrix(0.05,0,0,0.05,14,0)" xlink:href="#by"/></g><path d="M210-169c-67 3-38 105-44 169h-31v-121c0-29-5-50-35-48C34-165 62-65 56 0H25l-1-190h30c1 10-1 24 2 32 10-44 99-50 107 0 11-21 27-35 58-36 85-2 47 119 55 194h-31v-121c0-29-5-49-35-48" id="bz"/><g id="o"><use transform="matrix(0.05,0,0,0.05,0,0)" xlink:href="#bq"/><use transform="matrix(0.05,0,0,0.05,10.3,0)" xlink:href="#bi"/><use transform="matrix(0.05,0,0,0.05,14.25,0)" xlink:href="#bz"/><use transform="matrix(0.05,0,0,0.05,29.200000000000003,0)" xlink:href="#bf"/><use transform="matrix(0.05,0,0,0.05,39.2,0)" xlink:href="#be"/><use transform="matrix(0.05,0,0,0.05,48.2,0)" xlink:href="#bh"/><use transform="matrix(0.05,0,0,0.05,53.2,0)" xlink:href="#bu"/><use transform="matrix(0.05,0,0,0.05,63.2,0)" xlink:href="#bz"/><use transform="matrix(0.05,0,0,0.05,78.15,0)" xlink:href="#bn"/></g><path d="M198-261c85 0 136 45 136 128 0 61-22 111-78 115-29 2-39-18-37-44-12 23-32 44-66 44-41 0-58-28-58-68 0-60 30-105 88-108 29-1 43 15 54 32l7-28h28c-9 45-23 84-27 134-1 11 6 17 14 16 39-4 51-48 51-92 0-69-42-107-112-107-93 0-145 59-145 153C53-15 94 26 168 27c43 0 78-13 106-28l9 19c-30 18-67 32-115 32C79 50 28-1 28-86c0-107 62-175 170-175zM158-41c46 0 70-43 70-90 0-26-17-40-43-40-44 0-59 41-61 85-1 26 9 45 34 45" id="bA"/><g id="p"><use transform="matrix(0.05,0,0,0.05,0,0)" xlink:href="#bA"/><use transform="matrix(0.05,0,0,0.05,18.25,0)" xlink:href="#bq"/><use transform="matrix(0.05,0,0,0.05,29.200000000000003,0)" xlink:href="#br"/><use transform="matrix(0.05,0,0,0.05,41.2,0)" xlink:href="#bd"/></g><path fill="#fff" d="M30-248c87 1 191-15 191 75 0 78-77 80-158 76V0H30v-248zm33 125c57 0 124 11 124-50 0-59-68-47-124-48v98" id="bB"/><path fill="#fff" d="M84 4C-5 8 30-112 23-190h32v120c0 31 7 50 39 49 72-2 45-101 50-169h31l1 190h-30c-1-10 1-25-2-33-11 22-28 36-60 37" id="bC"/><path fill="#fff" d="M115-194c53 0 69 39 70 98 0 66-23 100-70 100C84 3 66-7 56-30L54 0H23l1-261h32v101c10-23 28-34 59-34zm-8 174c40 0 45-34 45-75 0-40-5-75-45-74-42 0-51 32-51 76 0 43 10 73 51 73" id="bD"/><path fill="#fff" d="M24 0v-261h32V0H24" id="bE"/><path fill="#fff" d="M24-231v-30h32v30H24zM24 0v-190h32V0H24" id="bF"/><path fill="#fff" d="M96-169c-40 0-48 33-48 73s9 75 48 75c24 0 41-14 43-38l32 2c-6 37-31 61-74 61-59 0-76-41-82-99-10-93 101-131 147-64 4 7 5 14 7 22l-32 3c-4-21-16-35-41-35" id="bG"/><g id="q"><use transform="matrix(0.05,0,0,0.05,0,0)" xlink:href="#bB"/><use transform="matrix(0.05,0,0,0.05,12,0)" xlink:href="#bC"/><use transform="matrix(0.05,0,0,0.05,22,0)" xlink:href="#bD"/><use transform="matrix(0.05,0,0,0.05,32,0)" xlink:href="#bE"/><use transform="matrix(0.05,0,0,0.05,35.95,0)" xlink:href="#bF"/><use transform="matrix(0.05,0,0,0.05,39.900000000000006,0)" xlink:href="#bG"/></g><path fill="#fff" d="M194 0L95-120 63-95V0H30v-248h33v124l119-124h40L117-140 236 0h-42" id="bH"/><path fill="#fff" d="M100-194c63 0 86 42 84 106H49c0 40 14 67 53 68 26 1 43-12 49-29l28 8c-11 28-37 45-77 45C44 4 14-33 15-96c1-61 26-98 85-98zm52 81c6-60-76-77-97-28-3 7-6 17-6 28h103" id="bI"/><path fill="#fff" d="M179-190L93 31C79 59 56 82 12 73V49c39 6 53-20 64-50L1-190h34L92-34l54-156h33" id="bJ"/><g id="r"><use transform="matrix(0.05,0,0,0.05,0,0)" xlink:href="#bH"/><use transform="matrix(0.05,0,0,0.05,12,0)" xlink:href="#bI"/><use transform="matrix(0.05,0,0,0.05,22,0)" xlink:href="#bJ"/></g><path fill="#fff" d="M158-156l-14 65h45v19h-49L124 0h-19l15-72H56L41 0H22l15-72H2v-19h39l14-65H11v-19h48l15-71h20l-16 71h64l16-71h19l-16 71h37v19h-40zm-83 0L61-91h63l14-65H75" id="bK"/><path fill="#fff" d="M27 0v-27h64v-190l-56 39v-29l58-41h29v221h61V0H27" id="bL"/><g id="s"><use transform="matrix(0.05,0,0,0.05,0,0)" xlink:href="#bK"/><use transform="matrix(0.05,0,0,0.05,10,0)" xlink:href="#bL"/></g><path d="M153-248C145-148 188 4 80 4 36 3 13-21 6-62l32-5c4 25 16 42 43 43 27 0 39-20 39-49v-147H72v-28h81" id="bM"/><path d="M266 0h-40l-56-210L115 0H75L2-248h35L96-30l15-64 43-154h32l59 218 59-218h35" id="bN"/><g id="t"><use transform="matrix(0.05,0,0,0.05,0,0)" xlink:href="#bM"/><use transform="matrix(0.05,0,0,0.05,9,0)" xlink:href="#bN"/><use transform="matrix(0.05,0,0,0.05,25.950000000000003,0)" xlink:href="#br"/></g><path d="M30-248c87 1 191-15 191 75 0 78-77 80-158 76V0H30v-248zm33 125c57 0 124 11 124-50 0-59-68-47-124-48v98" id="bO"/><path d="M179-190L93 31C79 59 56 82 12 73V49c39 6 53-20 64-50L1-190h34L92-34l54-156h33" id="bP"/><path d="M24 0v-261h32V0H24" id="bQ"/><g id="u"><use transform="matrix(0.05,0,0,0.05,0,0)" xlink:href="#bO"/><use transform="matrix(0.05,0,0,0.05,12,0)" xlink:href="#bu"/><use transform="matrix(0.05,0,0,0.05,22,0)" xlink:href="#bP"/><use transform="matrix(0.05,0,0,0.05,31,0)" xlink:href="#bQ"/><use transform="matrix(0.05,0,0,0.05,34.95,0)" xlink:href="#bj"/><use transform="matrix(0.05,0,0,0.05,44.95,0)" xlink:href="#bu"/><use transform="matrix(0.05,0,0,0.05,54.95,0)" xlink:href="#bv"/></g><path d="M212-179c-10-28-35-45-73-45-59 0-87 40-87 99 0 60 29 101 89 101 43 0 62-24 78-52l27 14C228-24 195 4 139 4 59 4 22-46 18-125c-6-104 99-153 187-111 19 9 31 26 39 46" id="bR"/><path d="M115-194c53 0 69 39 70 98 0 66-23 100-70 100C84 3 66-7 56-30L54 0H23l1-261h32v101c10-23 28-34 59-34zm-8 174c40 0 45-34 45-75 0-40-5-75-45-74-42 0-51 32-51 76 0 43 10 73 51 73" id="bS"/><g id="v"><use transform="matrix(0.05,0,0,0.05,0,0)" xlink:href="#bR"/><use transform="matrix(0.05,0,0,0.05,12.950000000000001,0)" xlink:href="#bj"/><use transform="matrix(0.05,0,0,0.05,22.950000000000003,0)" xlink:href="#bz"/><use transform="matrix(0.05,0,0,0.05,37.900000000000006,0)" xlink:href="#bS"/><use transform="matrix(0.05,0,0,0.05,47.900000000000006,0)" xlink:href="#bi"/><use transform="matrix(0.05,0,0,0.05,51.85,0)" xlink:href="#bk"/><use transform="matrix(0.05,0,0,0.05,61.85,0)" xlink:href="#bf"/></g><g id="w"><use transform="matrix(0.05,0,0,0.05,0,0)" xlink:href="#bi"/><use transform="matrix(0.05,0,0,0.05,3.95,0)" xlink:href="#bk"/><use transform="matrix(0.05,0,0,0.05,13.949999999999998,0)" xlink:href="#bh"/><use transform="matrix(0.05,0,0,0.05,18.95,0)" xlink:href="#bj"/></g><g id="x"><use transform="matrix(0.05,0,0,0.05,0,0)" xlink:href="#bM"/><use transform="matrix(0.05,0,0,0.05,9,0)" xlink:href="#br"/><use transform="matrix(0.05,0,0,0.05,21,0)" xlink:href="#bN"/></g><path d="M177-190C167-65 218 103 67 71c-23-6-38-20-44-43l32-5c15 47 100 32 89-28v-30C133-14 115 1 83 1 29 1 15-40 15-95c0-56 16-97 71-98 29-1 48 16 59 35 1-10 0-23 2-32h30zM94-22c36 0 50-32 50-73 0-42-14-75-50-75-39 0-46 34-46 75s6 73 46 73" id="bT"/><path d="M84 4C-5 8 30-112 23-190h32v120c0 31 7 50 39 49 72-2 45-101 50-169h31l1 190h-30c-1-10 1-25-2-33-11 22-28 36-60 37" id="bU"/><g id="y"><use transform="matrix(0.05,0,0,0.05,0,0)" xlink:href="#br"/><use transform="matrix(0.05,0,0,0.05,12,0)" xlink:href="#bi"/><use transform="matrix(0.05,0,0,0.05,15.949999999999998,0)" xlink:href="#bT"/><use transform="matrix(0.05,0,0,0.05,25.950000000000003,0)" xlink:href="#bk"/><use transform="matrix(0.05,0,0,0.05,35.95,0)" xlink:href="#bu"/><use transform="matrix(0.05,0,0,0.05,45.95,0)" xlink:href="#bh"/><use transform="matrix(0.05,0,0,0.05,50.95,0)" xlink:href="#bU"/><use transform="matrix(0.05,0,0,0.05,60.95,0)" xlink:href="#bg"/><use transform="matrix(0.05,0,0,0.05,66.9,0)" xlink:href="#bf"/><use transform="matrix(0.05,0,0,0.05,76.9,0)" xlink:href="#be"/></g><g id="z"><use transform="matrix(0.05,0,0,0.05,0,0)" xlink:href="#br"/><use transform="matrix(0.05,0,0,0.05,12,0)" xlink:href="#bi"/><use transform="matrix(0.05,0,0,0.05,15.949999999999998,0)" xlink:href="#bT"/><use transform="matrix(0.05,0,0,0.05,25.950000000000003,0)" xlink:href="#bk"/></g><path d="M118-107v75H92v-75H18v-26h74v-75h26v75h74v26h-74" id="bV"/><g id="A"><use transform="matrix(0.05,0,0,0.05,0,0)" xlink:href="#bm"/><use transform="matrix(0.05,0,0,0.05,10,0)" xlink:href="#bf"/><use transform="matrix(0.05,0,0,0.05,20,0)" xlink:href="#bu"/><use transform="matrix(0.05,0,0,0.05,30,0)" xlink:href="#bv"/><use transform="matrix(0.05,0,0,0.05,40,0)" xlink:href="#bf"/><use transform="matrix(0.05,0,0,0.05,50,0)" xlink:href="#bg"/><use transform="matrix(0.05,0,0,0.05,55.95,0)" xlink:href="#bV"/><use transform="matrix(0.05,0,0,0.05,66.45,0)" xlink:href="#bn"/><use transform="matrix(0.05,0,0,0.05,76.45,0)" xlink:href="#bu"/><use transform="matrix(0.05,0,0,0.05,86.45,0)" xlink:href="#bP"/><use transform="matrix(0.05,0,0,0.05,95.45,0)" xlink:href="#bQ"/><use transform="matrix(0.05,0,0,0.05,99.4,0)" xlink:href="#bj"/><use transform="matrix(0.05,0,0,0.05,109.4,0)" xlink:href="#bu"/><use transform="matrix(0.05,0,0,0.05,119.4,0)" xlink:href="#bv"/></g><path fill="#fff" d="M160-131c35 5 61 23 61 61C221 17 115-2 30 0v-248c76 3 177-17 177 60 0 33-19 50-47 57zm-97-11c50-1 110 9 110-42 0-47-63-36-110-37v79zm0 115c55-2 124 14 124-45 0-56-70-42-124-44v89" id="bW"/><path fill="#fff" d="M205 0l-28-72H64L36 0H1l101-248h38L239 0h-34zm-38-99l-47-123c-12 45-31 82-46 123h93" id="bX"/><path fill="#fff" d="M30 0v-248h187v28H63v79h144v27H63v87h162V0H30" id="bY"/><path fill="#fff" d="M30-248c118-7 216 8 213 122C240-48 200 0 122 0H30v-248zM63-27c89 8 146-16 146-99s-60-101-146-95v194" id="bZ"/><g id="B"><use transform="matrix(0.05,0,0,0.05,0,0)" xlink:href="#bW"/><use transform="matrix(0.05,0,0,0.05,12,0)" xlink:href="#bX"/><use transform="matrix(0.05,0,0,0.05,24,0)" xlink:href="#bH"/><use transform="matrix(0.05,0,0,0.05,36,0)" xlink:href="#bY"/><use transform="matrix(0.05,0,0,0.05,48,0)" xlink:href="#bZ"/></g><path fill="#fff" d="M143 4C61 4 22-44 18-125c-5-107 100-154 193-111 17 8 29 25 37 43l-32 9c-13-25-37-40-76-40-61 0-88 39-88 99 0 61 29 100 91 101 35 0 62-11 79-27v-45h-74v-28h105v86C228-13 192 4 143 4" id="ca"/><g id="C"><use transform="matrix(0.05,0,0,0.05,0,0)" xlink:href="#bW"/><use transform="matrix(0.05,0,0,0.05,12,0)" xlink:href="#bX"/><use transform="matrix(0.05,0,0,0.05,24,0)" xlink:href="#bZ"/><use transform="matrix(0.05,0,0,0.05,36.95,0)" xlink:href="#ca"/><use transform="matrix(0.05,0,0,0.05,50.95,0)" xlink:href="#bY"/></g><g id="D"><use transform="matrix(0.04320987654320988,0,0,0.04320987654320988,0,0)" xlink:href="#br"/><use transform="matrix(0.04320987654320988,0,0,0.04320987654320988,10.370370370370372,0)" xlink:href="#bi"/><use transform="matrix(0.04320987654320988,0,0,0.04320987654320988,13.783950617283953,0)" xlink:href="#bT"/><use transform="matrix(0.04320987654320988,0,0,0.04320987654320988,22.425925925925934,0)" xlink:href="#bk"/><use transform="matrix(0.04320987654320988,0,0,0.04320987654320988,31.067901234567906,0)" xlink:href="#bf"/><use transform="matrix(0.04320987654320988,0,0,0.04320987654320988,39.70987654320988,0)" xlink:href="#bv"/></g><g id="E"><use transform="matrix(0.04320987654320988,0,0,0.04320987654320988,0,0)" xlink:href="#bx"/><use transform="matrix(0.04320987654320988,0,0,0.04320987654320988,12.098765432098766,0)" xlink:href="#bn"/><use transform="matrix(0.04320987654320988,0,0,0.04320987654320988,20.74074074074074,0)" xlink:href="#bf"/><use transform="matrix(0.04320987654320988,0,0,0.04320987654320988,29.382716049382715,0)" xlink:href="#bk"/></g><g id="F"><use transform="matrix(0.04320987654320988,0,0,0.04320987654320988,0,0)" xlink:href="#bw"/><use transform="matrix(0.04320987654320988,0,0,0.04320987654320988,10.370370370370372,0)" xlink:href="#bu"/><use transform="matrix(0.04320987654320988,0,0,0.04320987654320988,19.01234567901235,0)" xlink:href="#bv"/><use transform="matrix(0.04320987654320988,0,0,0.04320987654320988,27.654320987654323,0)" xlink:href="#bT"/><use transform="matrix(0.04320987654320988,0,0,0.04320987654320988,36.2962962962963,0)" xlink:href="#bf"/></g><path d="M143 4C61 4 22-44 18-125c-5-107 100-154 193-111 17 8 29 25 37 43l-32 9c-13-25-37-40-76-40-61 0-88 39-88 99 0 61 29 100 91 101 35 0 62-11 79-27v-45h-74v-28h105v86C228-13 192 4 143 4" id="cb"/><g id="H"><use transform="matrix(0.04320987654320988,0,0,0.04320987654320988,0,0)" xlink:href="#cb"/><use transform="matrix(0.04320987654320988,0,0,0.04320987654320988,12.098765432098766,0)" xlink:href="#bf"/><use transform="matrix(0.04320987654320988,0,0,0.04320987654320988,20.74074074074074,0)" xlink:href="#bk"/><use transform="matrix(0.04320987654320988,0,0,0.04320987654320988,29.382716049382715,0)" xlink:href="#bf"/><use transform="matrix(0.04320987654320988,0,0,0.04320987654320988,38.02469135802469,0)" xlink:href="#bg"/><use transform="matrix(0.04320987654320988,0,0,0.04320987654320988,43.166666666666664,0)" xlink:href="#bu"/><use transform="matrix(0.04320987654320988,0,0,0.04320987654320988,51.80864197530864,0)" xlink:href="#bQ"/></g><g id="I"><use transform="matrix(0.04320987654320988,0,0,0.04320987654320988,0,0)" xlink:href="#bM"/><use transform="matrix(0.04320987654320988,0,0,0.04320987654320988,7.777777777777779,0)" xlink:href="#bN"/><use transform="matrix(0.04320987654320988,0,0,0.04320987654320988,22.425925925925927,0)" xlink:href="#br"/></g><path d="M190 0L58-211 59 0H30v-248h39L202-35l-2-213h31V0h-41" id="cc"/><g id="J"><use transform="matrix(0.04320987654320988,0,0,0.04320987654320988,0,0)" xlink:href="#bM"/><use transform="matrix(0.04320987654320988,0,0,0.04320987654320988,7.777777777777779,0)" xlink:href="#br"/><use transform="matrix(0.04320987654320988,0,0,0.04320987654320988,18.148148148148152,0)" xlink:href="#bx"/><use transform="matrix(0.04320987654320988,0,0,0.04320987654320988,30.24691358024692,0)" xlink:href="#cc"/></g><g id="K"><use transform="matrix(0.04320987654320988,0,0,0.04320987654320988,0,0)" xlink:href="#br"/><use transform="matrix(0.04320987654320988,0,0,0.04320987654320988,10.370370370370372,0)" xlink:href="#bf"/><use transform="matrix(0.04320987654320988,0,0,0.04320987654320988,19.01234567901235,0)" xlink:href="#bg"/><use transform="matrix(0.04320987654320988,0,0,0.04320987654320988,24.154320987654323,0)" xlink:href="#bi"/><use transform="matrix(0.04320987654320988,0,0,0.04320987654320988,27.567901234567906,0)" xlink:href="#bu"/><use transform="matrix(0.04320987654320988,0,0,0.04320987654320988,36.20987654320988,0)" xlink:href="#bQ"/><use transform="matrix(0.04320987654320988,0,0,0.04320987654320988,39.62345679012346,0)" xlink:href="#bi"/><use transform="matrix(0.04320987654320988,0,0,0.04320987654320988,43.037037037037045,0)" xlink:href="#be"/><use transform="matrix(0.04320987654320988,0,0,0.04320987654320988,50.81481481481482,0)" xlink:href="#bu"/><use transform="matrix(0.04320987654320988,0,0,0.04320987654320988,59.4567901234568,0)" xlink:href="#bh"/><use transform="matrix(0.04320987654320988,0,0,0.04320987654320988,63.777777777777786,0)" xlink:href="#bi"/><use transform="matrix(0.04320987654320988,0,0,0.04320987654320988,67.19135802469137,0)" xlink:href="#bj"/><use transform="matrix(0.04320987654320988,0,0,0.04320987654320988,75.83333333333334,0)" xlink:href="#bk"/></g><g id="L"><use transform="matrix(0.05,0,0,0.05,0,0)" xlink:href="#bt"/><use transform="matrix(0.05,0,0,0.05,12.950000000000001,0)" xlink:href="#bf"/><use transform="matrix(0.05,0,0,0.05,22.950000000000003,0)" xlink:href="#bu"/><use transform="matrix(0.05,0,0,0.05,32.95,0)" xlink:href="#bv"/><use transform="matrix(0.05,0,0,0.05,42.95,0)" xlink:href="#bf"/><use transform="matrix(0.05,0,0,0.05,52.95,0)" xlink:href="#bg"/></g><path d="M195 0l-74-108L45 0H8l94-129-87-119h37l69 98 67-98h37l-84 118L233 0h-38" id="cd"/><use transform="matrix(0.05,0,0,0.05,0,0)" xlink:href="#cd" id="M"/><g id="N"><use transform="matrix(0.05,0,0,0.05,0,0)" xlink:href="#bw"/><use transform="matrix(0.05,0,0,0.05,12,0)" xlink:href="#bu"/><use transform="matrix(0.05,0,0,0.05,22,0)" xlink:href="#bv"/><use transform="matrix(0.05,0,0,0.05,32,0)" xlink:href="#bT"/><use transform="matrix(0.05,0,0,0.05,42,0)" xlink:href="#bf"/></g><path d="M33 0v-248h34V0H33" id="ce"/><g id="O"><use transform="matrix(0.05,0,0,0.05,0,0)" xlink:href="#ce"/><use transform="matrix(0.05,0,0,0.05,5,0)" xlink:href="#be"/><use transform="matrix(0.05,0,0,0.05,14,0)" xlink:href="#be"/><use transform="matrix(0.05,0,0,0.05,23,0)" xlink:href="#bU"/><use transform="matrix(0.05,0,0,0.05,33,0)" xlink:href="#bf"/><use transform="matrix(0.05,0,0,0.05,43,0)" xlink:href="#bg"/></g><g id="P"><use transform="matrix(0.05,0,0,0.05,0,0)" xlink:href="#by"/><use transform="matrix(0.05,0,0,0.05,12.950000000000001,0)" xlink:href="#bf"/><use transform="matrix(0.05,0,0,0.05,22.950000000000003,0)" xlink:href="#bl"/><use transform="matrix(0.05,0,0,0.05,31.950000000000003,0)" xlink:href="#bi"/><use transform="matrix(0.05,0,0,0.05,35.900000000000006,0)" xlink:href="#bn"/><use transform="matrix(0.05,0,0,0.05,45.900000000000006,0)" xlink:href="#bi"/><use transform="matrix(0.05,0,0,0.05,49.85000000000001,0)" xlink:href="#bf"/><use transform="matrix(0.05,0,0,0.05,59.85,0)" xlink:href="#bk"/><use transform="matrix(0.05,0,0,0.05,69.85000000000001,0)" xlink:href="#bh"/></g><g id="Q"><use transform="matrix(0.030864197530864196,0,0,0.030864197530864196,0,0)" xlink:href="#bz"/><use transform="matrix(0.030864197530864196,0,0,0.030864197530864196,9.228395061728394,0)" xlink:href="#bf"/><use transform="matrix(0.030864197530864196,0,0,0.030864197530864196,15.401234567901234,0)" xlink:href="#bg"/><use transform="matrix(0.030864197530864196,0,0,0.030864197530864196,19.074074074074073,0)" xlink:href="#bs"/><use transform="matrix(0.030864197530864196,0,0,0.030864197530864196,24.629629629629626,0)" xlink:href="#bQ"/><use transform="matrix(0.030864197530864196,0,0,0.030864197530864196,27.0679012345679,0)" xlink:href="#bf"/><use transform="matrix(0.030864197530864196,0,0,0.030864197530864196,33.24074074074074,0)" xlink:href="#bg"/><use transform="matrix(0.030864197530864196,0,0,0.030864197530864196,36.91358024691358,0)" xlink:href="#bj"/><use transform="matrix(0.030864197530864196,0,0,0.030864197530864196,43.086419753086425,0)" xlink:href="#bj"/><use transform="matrix(0.030864197530864196,0,0,0.030864197530864196,49.25925925925927,0)" xlink:href="#bh"/></g><g id="R"><use transform="matrix(0.030864197530864196,0,0,0.030864197530864196,0,0)" xlink:href="#bh"/><use transform="matrix(0.030864197530864196,0,0,0.030864197530864196,3.0864197530864197,0)" xlink:href="#bu"/><use transform="matrix(0.030864197530864196,0,0,0.030864197530864196,9.25925925925926,0)" xlink:href="#bg"/><use transform="matrix(0.030864197530864196,0,0,0.030864197530864196,12.932098765432098,0)" xlink:href="#bT"/><use transform="matrix(0.030864197530864196,0,0,0.030864197530864196,19.104938271604937,0)" xlink:href="#bf"/><use transform="matrix(0.030864197530864196,0,0,0.030864197530864196,25.277777777777775,0)" xlink:href="#bh"/><use transform="matrix(0.030864197530864196,0,0,0.030864197530864196,28.364197530864196,0)" xlink:href="#bm"/><use transform="matrix(0.030864197530864196,0,0,0.030864197530864196,34.53703703703704,0)" xlink:href="#bu"/><use transform="matrix(0.030864197530864196,0,0,0.030864197530864196,40.70987654320988,0)" xlink:href="#be"/><use transform="matrix(0.030864197530864196,0,0,0.030864197530864196,46.26543209876544,0)" xlink:href="#bm"/></g><g id="S"><use transform="matrix(0.030864197530864196,0,0,0.030864197530864196,0,0)" xlink:href="#bn"/><use transform="matrix(0.030864197530864196,0,0,0.030864197530864196,6.172839506172839,0)" xlink:href="#bg"/><use transform="matrix(0.030864197530864196,0,0,0.030864197530864196,9.845679012345679,0)" xlink:href="#bj"/><use transform="matrix(0.030864197530864196,0,0,0.030864197530864196,16.01851851851852,0)" xlink:href="#bj"/><use transform="matrix(0.030864197530864196,0,0,0.030864197530864196,22.191358024691358,0)" xlink:href="#bo"/></g><g id="T"><use transform="matrix(0.030864197530864196,0,0,0.030864197530864196,0,0)" xlink:href="#bu"/><use transform="matrix(0.030864197530864196,0,0,0.030864197530864196,6.172839506172839,0)" xlink:href="#bk"/><use transform="matrix(0.030864197530864196,0,0,0.030864197530864196,12.345679012345679,0)" xlink:href="#bl"/><use transform="matrix(0.030864197530864196,0,0,0.030864197530864196,17.901234567901234,0)" xlink:href="#bm"/><use transform="matrix(0.030864197530864196,0,0,0.030864197530864196,24.074074074074073,0)" xlink:href="#bj"/><use transform="matrix(0.030864197530864196,0,0,0.030864197530864196,30.24691358024691,0)" xlink:href="#bg"/><use transform="matrix(0.030864197530864196,0,0,0.030864197530864196,33.91975308641975,0)" xlink:href="#be"/></g><g id="U"><use transform="matrix(0.05,0,0,0.05,0,0)" xlink:href="#br"/><use transform="matrix(0.05,0,0,0.05,12,0)" xlink:href="#bf"/><use transform="matrix(0.05,0,0,0.05,22,0)" xlink:href="#bk"/><use transform="matrix(0.05,0,0,0.05,32,0)" xlink:href="#bv"/></g><g id="V"><use transform="matrix(0.05,0,0,0.05,0,0)" xlink:href="#bh"/><use transform="matrix(0.05,0,0,0.05,5,0)" xlink:href="#bj"/></g><g id="W"><use transform="matrix(0.05,0,0,0.05,0,0)" xlink:href="#bg"/><use transform="matrix(0.05,0,0,0.05,5.95,0)" xlink:href="#bf"/><use transform="matrix(0.05,0,0,0.05,15.949999999999998,0)" xlink:href="#bl"/><use transform="matrix(0.05,0,0,0.05,24.95,0)" xlink:href="#bi"/><use transform="matrix(0.05,0,0,0.05,28.899999999999995,0)" xlink:href="#bn"/><use transform="matrix(0.05,0,0,0.05,38.9,0)" xlink:href="#bi"/><use transform="matrix(0.05,0,0,0.05,42.85,0)" xlink:href="#bf"/><use transform="matrix(0.05,0,0,0.05,52.85,0)" xlink:href="#bk"/><use transform="matrix(0.05,0,0,0.05,62.85,0)" xlink:href="#bh"/></g><g id="X"><use transform="matrix(0.05,0,0,0.05,0,0)" xlink:href="#by"/><use transform="matrix(0.05,0,0,0.05,12.950000000000001,0)" xlink:href="#bf"/><use transform="matrix(0.05,0,0,0.05,22.950000000000003,0)" xlink:href="#bl"/><use transform="matrix(0.05,0,0,0.05,31.950000000000003,0)" xlink:href="#bi"/><use transform="matrix(0.05,0,0,0.05,35.900000000000006,0)" xlink:href="#bn"/><use transform="matrix(0.05,0,0,0.05,45.900000000000006,0)" xlink:href="#bi"/><use transform="matrix(0.05,0,0,0.05,49.85000000000001,0)" xlink:href="#bf"/><use transform="matrix(0.05,0,0,0.05,59.85,0)" xlink:href="#bk"/><use transform="matrix(0.05,0,0,0.05,69.85000000000001,0)" xlink:href="#bh"/></g><g id="Y"><use transform="matrix(0.05,0,0,0.05,0,0)" xlink:href="#bw"/><use transform="matrix(0.05,0,0,0.05,12,0)" xlink:href="#bu"/><use transform="matrix(0.05,0,0,0.05,22,0)" xlink:href="#bl"/><use transform="matrix(0.05,0,0,0.05,31,0)" xlink:href="#bs"/><use transform="matrix(0.05,0,0,0.05,40,0)" xlink:href="#bn"/><use transform="matrix(0.05,0,0,0.05,50,0)" xlink:href="#bu"/><use transform="matrix(0.05,0,0,0.05,60,0)" xlink:href="#bl"/><use transform="matrix(0.05,0,0,0.05,69,0)" xlink:href="#bs"/></g><g id="Z"><use transform="matrix(0.05,0,0,0.05,0,0)" xlink:href="#bq"/><use transform="matrix(0.05,0,0,0.05,10.3,0)" xlink:href="#bi"/><use transform="matrix(0.05,0,0,0.05,14.25,0)" xlink:href="#bz"/><use transform="matrix(0.05,0,0,0.05,29.200000000000003,0)" xlink:href="#bf"/><use transform="matrix(0.05,0,0,0.05,39.2,0)" xlink:href="#be"/><use transform="matrix(0.05,0,0,0.05,48.2,0)" xlink:href="#bh"/><use transform="matrix(0.05,0,0,0.05,53.2,0)" xlink:href="#bu"/><use transform="matrix(0.05,0,0,0.05,63.2,0)" xlink:href="#bz"/><use transform="matrix(0.05,0,0,0.05,78.15,0)" xlink:href="#bn"/><use transform="matrix(0.05,0,0,0.05,88.15,0)" xlink:href="#bi"/><use transform="matrix(0.05,0,0,0.05,92.10000000000001,0)" xlink:href="#bk"/><use transform="matrix(0.05,0,0,0.05,102.10000000000001,0)" xlink:href="#bT"/></g><path d="M206 0h-36l-40-164L89 0H53L-1-190h32L70-26l43-164h34l41 164 42-164h31" id="cf"/><g id="aa"><use transform="matrix(0.05,0,0,0.05,0,0)" xlink:href="#bo"/><use transform="matrix(0.05,0,0,0.05,5,0)" xlink:href="#bQ"/><use transform="matrix(0.05,0,0,0.05,8.95,0)" xlink:href="#bj"/><use transform="matrix(0.05,0,0,0.05,18.95,0)" xlink:href="#cf"/></g><g id="ab"><use transform="matrix(0.05,0,0,0.05,0,0)" xlink:href="#bn"/><use transform="matrix(0.05,0,0,0.05,10,0)" xlink:href="#bg"/><use transform="matrix(0.05,0,0,0.05,15.949999999999998,0)" xlink:href="#bj"/><use transform="matrix(0.05,0,0,0.05,25.950000000000003,0)" xlink:href="#bh"/><use transform="matrix(0.05,0,0,0.05,30.950000000000003,0)" xlink:href="#bf"/><use transform="matrix(0.05,0,0,0.05,40.95,0)" xlink:href="#bl"/><use transform="matrix(0.05,0,0,0.05,49.95,0)" xlink:href="#bh"/><use transform="matrix(0.05,0,0,0.05,54.95,0)" xlink:href="#bf"/><use transform="matrix(0.05,0,0,0.05,64.95,0)" xlink:href="#bv"/></g><g id="ac"><use transform="matrix(0.05,0,0,0.05,0,0)" xlink:href="#bm"/><use transform="matrix(0.05,0,0,0.05,10,0)" xlink:href="#bf"/><use transform="matrix(0.05,0,0,0.05,20,0)" xlink:href="#bu"/><use transform="matrix(0.05,0,0,0.05,30,0)" xlink:href="#bv"/><use transform="matrix(0.05,0,0,0.05,40,0)" xlink:href="#bf"/><use transform="matrix(0.05,0,0,0.05,50,0)" xlink:href="#bg"/></g><path fill="#fff" d="M135-143c-3-34-86-38-87 0 15 53 115 12 119 90S17 21 10-45l28-5c4 36 97 45 98 0-10-56-113-15-118-90-4-57 82-63 122-42 12 7 21 19 24 35" id="cg"/><path fill="#fff" d="M177-190C167-65 218 103 67 71c-23-6-38-20-44-43l32-5c15 47 100 32 89-28v-30C133-14 115 1 83 1 29 1 15-40 15-95c0-56 16-97 71-98 29-1 48 16 59 35 1-10 0-23 2-32h30zM94-22c36 0 50-32 50-73 0-42-14-75-50-75-39 0-46 34-46 75s6 73 46 73" id="ch"/><path fill="#fff" d="M117-194c89-4 53 116 60 194h-32v-121c0-31-8-49-39-48C34-167 62-67 57 0H25l-1-190h30c1 10-1 24 2 32 11-22 29-35 61-36" id="ci"/><path fill="#fff" d="M141-36C126-15 110 5 73 4 37 3 15-17 15-53c-1-64 63-63 125-63 3-35-9-54-41-54-24 1-41 7-42 31l-33-3c5-37 33-52 76-52 45 0 72 20 72 64v82c-1 20 7 32 28 27v20c-31 9-61-2-59-35zM48-53c0 20 12 33 32 33 41-3 63-29 60-74-43 2-92-5-92 41" id="cj"/><path fill="#fff" d="M59-47c-2 24 18 29 38 22v24C64 9 27 4 27-40v-127H5v-23h24l9-43h21v43h35v23H59v120" id="ck"/><path fill="#fff" d="M114-163C36-179 61-72 57 0H25l-1-190h30c1 12-1 29 2 39 6-27 23-49 58-41v29" id="cl"/><g id="ad"><use transform="matrix(0.05,0,0,0.05,0,0)" xlink:href="#cg"/><use transform="matrix(0.05,0,0,0.05,9,0)" xlink:href="#bF"/><use transform="matrix(0.05,0,0,0.05,12.949999999999998,0)" xlink:href="#ch"/><use transform="matrix(0.05,0,0,0.05,22.95,0)" xlink:href="#ci"/><use transform="matrix(0.05,0,0,0.05,32.95,0)" xlink:href="#cj"/><use transform="matrix(0.05,0,0,0.05,42.95,0)" xlink:href="#ck"/><use transform="matrix(0.05,0,0,0.05,47.95,0)" xlink:href="#bC"/><use transform="matrix(0.05,0,0,0.05,57.95,0)" xlink:href="#cl"/><use transform="matrix(0.05,0,0,0.05,63.900000000000006,0)" xlink:href="#bI"/></g><path d="M27 0v-27h64v-190l-56 39v-29l58-41h29v221h61V0H27" id="cm"/><use transform="matrix(0.03703703703703704,0,0,0.03703703703703704,0,0)" xlink:href="#cm" id="ae"/><use transform="matrix(0.03703703703703704,0,0,0.03703703703703704,0,0)" xlink:href="#bk" id="af"/><path fill="#fff" d="M33 0v-248h34V0H33" id="cn"/><g id="ag"><use transform="matrix(0.05,0,0,0.05,0,0)" xlink:href="#cn"/><use transform="matrix(0.05,0,0,0.05,5,0)" xlink:href="#cg"/><use transform="matrix(0.05,0,0,0.05,14,0)" xlink:href="#cg"/><use transform="matrix(0.05,0,0,0.05,23,0)" xlink:href="#bC"/><use transform="matrix(0.05,0,0,0.05,33,0)" xlink:href="#bI"/><use transform="matrix(0.05,0,0,0.05,43,0)" xlink:href="#cl"/></g><path fill="#fff" d="M108 0H70L1-190h34L89-25l56-165h34" id="co"/><g id="ah"><use transform="matrix(0.05,0,0,0.05,0,0)" xlink:href="#bB"/><use transform="matrix(0.05,0,0,0.05,12,0)" xlink:href="#cl"/><use transform="matrix(0.05,0,0,0.05,17.95,0)" xlink:href="#bF"/><use transform="matrix(0.05,0,0,0.05,21.9,0)" xlink:href="#co"/><use transform="matrix(0.05,0,0,0.05,30.899999999999995,0)" xlink:href="#cj"/><use transform="matrix(0.05,0,0,0.05,40.9,0)" xlink:href="#ck"/><use transform="matrix(0.05,0,0,0.05,45.9,0)" xlink:href="#bI"/></g><path fill="#fff" d="M33-154v-36h34v36H33zM33 0v-36h34V0H33" id="cp"/><g id="ai"><use transform="matrix(0.05,0,0,0.05,0,0)" xlink:href="#bH"/><use transform="matrix(0.05,0,0,0.05,12,0)" xlink:href="#bI"/><use transform="matrix(0.05,0,0,0.05,22,0)" xlink:href="#bJ"/><use transform="matrix(0.05,0,0,0.05,31,0)" xlink:href="#cp"/></g><path fill="#fff" d="M101-251c82-7 93 87 43 132L82-64C71-53 59-42 53-27h129V0H18c2-99 128-94 128-182 0-28-16-43-45-43s-46 15-49 41l-32-3c6-41 34-60 81-64" id="cq"/><g id="aj"><use transform="matrix(0.05,0,0,0.05,0,0)" xlink:href="#bK"/><use transform="matrix(0.05,0,0,0.05,10,0)" xlink:href="#cq"/></g><path fill="#fff" d="M100-194c62-1 85 37 85 99 1 63-27 99-86 99S16-35 15-95c0-66 28-99 85-99zM99-20c44 1 53-31 53-75 0-43-8-75-51-75s-53 32-53 75 10 74 51 75" id="cr"/><g id="ak"><use transform="matrix(0.05,0,0,0.05,0,0)" xlink:href="#bX"/><use transform="matrix(0.05,0,0,0.05,12,0)" xlink:href="#bE"/><use transform="matrix(0.05,0,0,0.05,15.949999999999998,0)" xlink:href="#ch"/><use transform="matrix(0.05,0,0,0.05,25.950000000000003,0)" xlink:href="#cr"/><use transform="matrix(0.05,0,0,0.05,35.95,0)" xlink:href="#cp"/></g><path fill="#fff" d="M195 0l-74-108L45 0H8l94-129-87-119h37l69 98 67-98h37l-84 118L233 0h-38" id="cs"/><use transform="matrix(0.05,0,0,0.05,0,0)" xlink:href="#cs" id="al"/><path fill="#fff" d="M140-251c81 0 123 46 123 126C263-46 219 4 140 4 59 4 17-45 17-125s42-126 123-126zm0 227c63 0 89-41 89-101s-29-99-89-99c-61 0-89 39-89 99S79-25 140-24" id="ct"/><path fill="#fff" d="M233-177c-1 41-23 64-60 70L243 0h-38l-65-103H63V0H30v-248c88 3 205-21 203 71zM63-129c60-2 137 13 137-47 0-61-80-42-137-45v92" id="cu"/><g id="am"><use transform="matrix(0.05,0,0,0.05,0,0)" xlink:href="#ct"/><use transform="matrix(0.05,0,0,0.05,14,0)" xlink:href="#cu"/></g><path fill="#fff" d="M137-103V0h-34v-103L8-248h37l75 118 75-118h37" id="cv"/><use transform="matrix(0.05,0,0,0.05,0,0)" xlink:href="#cv" id="an"/><g id="ao"><use transform="matrix(0.05,0,0,0.05,0,0)" xlink:href="#bt"/><use transform="matrix(0.05,0,0,0.05,12.950000000000001,0)" xlink:href="#bf"/><use transform="matrix(0.05,0,0,0.05,22.950000000000003,0)" xlink:href="#bu"/><use transform="matrix(0.05,0,0,0.05,32.95,0)" xlink:href="#bv"/><use transform="matrix(0.05,0,0,0.05,42.95,0)" xlink:href="#bf"/><use transform="matrix(0.05,0,0,0.05,52.95,0)" xlink:href="#bg"/></g><use transform="matrix(0.05,0,0,0.05,0,0)" xlink:href="#cd" id="ap"/><g id="aq"><use transform="matrix(0.05,0,0,0.05,0,0)" xlink:href="#bx"/><use transform="matrix(0.05,0,0,0.05,14,0)" xlink:href="#by"/></g><path d="M137-103V0h-34v-103L8-248h37l75 118 75-118h37" id="cw"/><use transform="matrix(0.05,0,0,0.05,0,0)" xlink:href="#cw" id="ar"/><g id="as"><use transform="matrix(0.05,0,0,0.05,0,0)" xlink:href="#bK"/><use transform="matrix(0.05,0,0,0.05,10,0)" xlink:href="#bL"/></g><use transform="matrix(0.05,0,0,0.05,0,0)" xlink:href="#cs" id="at"/><g id="au"><use transform="matrix(0.030864197530864196,0,0,0.030864197530864196,0,0)" xlink:href="#bd"/><use transform="matrix(0.030864197530864196,0,0,0.030864197530864196,7.4074074074074066,0)" xlink:href="#be"/><use transform="matrix(0.030864197530864196,0,0,0.030864197530864196,12.962962962962962,0)" xlink:href="#be"/><use transform="matrix(0.030864197530864196,0,0,0.030864197530864196,18.51851851851852,0)" xlink:href="#bf"/><use transform="matrix(0.030864197530864196,0,0,0.030864197530864196,24.691358024691358,0)" xlink:href="#bg"/><use transform="matrix(0.030864197530864196,0,0,0.030864197530864196,28.364197530864196,0)" xlink:href="#bh"/><use transform="matrix(0.030864197530864196,0,0,0.030864197530864196,31.450617283950617,0)" xlink:href="#bi"/><use transform="matrix(0.030864197530864196,0,0,0.030864197530864196,33.888888888888886,0)" xlink:href="#bj"/><use transform="matrix(0.030864197530864196,0,0,0.030864197530864196,40.06172839506173,0)" xlink:href="#bk"/></g><g id="av"><use transform="matrix(0.030864197530864196,0,0,0.030864197530864196,0,0)" xlink:href="#bm"/><use transform="matrix(0.030864197530864196,0,0,0.030864197530864196,6.172839506172839,0)" xlink:href="#bu"/><use transform="matrix(0.030864197530864196,0,0,0.030864197530864196,12.345679012345679,0)" xlink:href="#be"/><use transform="matrix(0.030864197530864196,0,0,0.030864197530864196,17.901234567901234,0)" xlink:href="#bm"/></g><g id="aw"><use transform="matrix(0.030864197530864196,0,0,0.030864197530864196,0,0)" xlink:href="#bh"/><use transform="matrix(0.030864197530864196,0,0,0.030864197530864196,3.0864197530864197,0)" xlink:href="#bi"/><use transform="matrix(0.030864197530864196,0,0,0.030864197530864196,5.5246913580246915,0)" xlink:href="#bz"/><use transform="matrix(0.030864197530864196,0,0,0.030864197530864196,14.753086419753085,0)" xlink:href="#bf"/><use transform="matrix(0.030864197530864196,0,0,0.030864197530864196,20.925925925925924,0)" xlink:href="#be"/><use transform="matrix(0.030864197530864196,0,0,0.030864197530864196,26.48148148148148,0)" xlink:href="#bh"/><use transform="matrix(0.030864197530864196,0,0,0.030864197530864196,29.567901234567902,0)" xlink:href="#bu"/><use transform="matrix(0.030864197530864196,0,0,0.030864197530864196,35.74074074074074,0)" xlink:href="#bz"/><use transform="matrix(0.030864197530864196,0,0,0.030864197530864196,44.96913580246913,0)" xlink:href="#bn"/></g><g id="ax"><use transform="matrix(0.030864197530864196,0,0,0.030864197530864196,0,0)" xlink:href="#bq"/><use transform="matrix(0.030864197530864196,0,0,0.030864197530864196,6.759259259259259,0)" xlink:href="#br"/><use transform="matrix(0.030864197530864196,0,0,0.030864197530864196,14.166666666666664,0)" xlink:href="#bd"/></g><g id="ay"><use transform="matrix(0.030864197530864196,0,0,0.030864197530864196,0,0)" xlink:href="#be"/><use transform="matrix(0.030864197530864196,0,0,0.030864197530864196,5.555555555555555,0)" xlink:href="#bi"/><use transform="matrix(0.030864197530864196,0,0,0.030864197530864196,7.993827160493827,0)" xlink:href="#bT"/><use transform="matrix(0.030864197530864196,0,0,0.030864197530864196,14.166666666666666,0)" xlink:href="#bk"/><use transform="matrix(0.030864197530864196,0,0,0.030864197530864196,20.339506172839506,0)" xlink:href="#bu"/><use transform="matrix(0.030864197530864196,0,0,0.030864197530864196,26.512345679012345,0)" xlink:href="#bh"/><use transform="matrix(0.030864197530864196,0,0,0.030864197530864196,29.598765432098766,0)" xlink:href="#bU"/><use transform="matrix(0.030864197530864196,0,0,0.030864197530864196,35.77160493827161,0)" xlink:href="#bg"/><use transform="matrix(0.030864197530864196,0,0,0.030864197530864196,39.44444444444445,0)" xlink:href="#bf"/></g><g id="az"><use transform="matrix(0.030864197530864196,0,0,0.030864197530864196,0,0)" xlink:href="#bq"/><use transform="matrix(0.030864197530864196,0,0,0.030864197530864196,6.759259259259259,0)" xlink:href="#br"/><use transform="matrix(0.030864197530864196,0,0,0.030864197530864196,14.166666666666664,0)" xlink:href="#bd"/></g><g id="aA"><use transform="matrix(0.030864197530864196,0,0,0.030864197530864196,0,0)" xlink:href="#bn"/><use transform="matrix(0.030864197530864196,0,0,0.030864197530864196,6.172839506172839,0)" xlink:href="#bU"/><use transform="matrix(0.030864197530864196,0,0,0.030864197530864196,12.345679012345679,0)" xlink:href="#bS"/><use transform="matrix(0.030864197530864196,0,0,0.030864197530864196,18.51851851851852,0)" xlink:href="#bs"/><use transform="matrix(0.030864197530864196,0,0,0.030864197530864196,24.074074074074076,0)" xlink:href="#bf"/><use transform="matrix(0.030864197530864196,0,0,0.030864197530864196,30.246913580246915,0)" xlink:href="#bP"/></g><g id="aB"><use transform="matrix(0.05,0,0,0.05,0,0)" xlink:href="#bK"/><use transform="matrix(0.05,0,0,0.05,10,0)" xlink:href="#cq"/></g><g id="aC"><use transform="matrix(0.05,0,0,0.05,0,0)" xlink:href="#bO"/><use transform="matrix(0.05,0,0,0.05,12,0)" xlink:href="#bU"/><use transform="matrix(0.05,0,0,0.05,22,0)" xlink:href="#bS"/><use transform="matrix(0.05,0,0,0.05,32,0)" xlink:href="#bQ"/><use transform="matrix(0.05,0,0,0.05,35.95,0)" xlink:href="#bi"/><use transform="matrix(0.05,0,0,0.05,39.900000000000006,0)" xlink:href="#bl"/></g><path d="M194 0L95-120 63-95V0H30v-248h33v124l119-124h40L117-140 236 0h-42" id="cx"/><g id="aD"><use transform="matrix(0.05,0,0,0.05,0,0)" xlink:href="#cx"/><use transform="matrix(0.05,0,0,0.05,12,0)" xlink:href="#bf"/><use transform="matrix(0.05,0,0,0.05,22,0)" xlink:href="#bP"/></g><g id="aE"><use transform="matrix(0.05,0,0,0.05,0,0)" xlink:href="#bt"/><use transform="matrix(0.05,0,0,0.05,12.950000000000001,0)" xlink:href="#bf"/><use transform="matrix(0.05,0,0,0.05,22.950000000000003,0)" xlink:href="#bu"/><use transform="matrix(0.05,0,0,0.05,32.95,0)" xlink:href="#bv"/><use transform="matrix(0.05,0,0,0.05,42.95,0)" xlink:href="#bf"/><use transform="matrix(0.05,0,0,0.05,52.95,0)" xlink:href="#bg"/></g><g id="aF"><use transform="matrix(0.05,0,0,0.05,0,0)" xlink:href="#br"/><use transform="matrix(0.05,0,0,0.05,12,0)" xlink:href="#bi"/><use transform="matrix(0.05,0,0,0.05,15.949999999999998,0)" xlink:href="#bT"/><use transform="matrix(0.05,0,0,0.05,25.950000000000003,0)" xlink:href="#bk"/><use transform="matrix(0.05,0,0,0.05,35.95,0)" xlink:href="#bu"/><use transform="matrix(0.05,0,0,0.05,45.95,0)" xlink:href="#bh"/><use transform="matrix(0.05,0,0,0.05,50.95,0)" xlink:href="#bU"/><use transform="matrix(0.05,0,0,0.05,60.95,0)" xlink:href="#bg"/><use transform="matrix(0.05,0,0,0.05,66.9,0)" xlink:href="#bf"/></g><g id="aG"><use transform="matrix(0.05,0,0,0.05,0,0)" xlink:href="#br"/><use transform="matrix(0.05,0,0,0.05,12,0)" xlink:href="#bi"/><use transform="matrix(0.05,0,0,0.05,15.949999999999998,0)" xlink:href="#bT"/><use transform="matrix(0.05,0,0,0.05,25.950000000000003,0)" xlink:href="#bk"/></g><g id="aH"><use transform="matrix(0.05,0,0,0.05,0,0)" xlink:href="#bm"/><use transform="matrix(0.05,0,0,0.05,10,0)" xlink:href="#bf"/><use transform="matrix(0.05,0,0,0.05,20,0)" xlink:href="#bu"/><use transform="matrix(0.05,0,0,0.05,30,0)" xlink:href="#bv"/><use transform="matrix(0.05,0,0,0.05,40,0)" xlink:href="#bf"/><use transform="matrix(0.05,0,0,0.05,50,0)" xlink:href="#bg"/><use transform="matrix(0.05,0,0,0.05,55.95,0)" xlink:href="#bV"/><use transform="matrix(0.05,0,0,0.05,66.45,0)" xlink:href="#bn"/><use transform="matrix(0.05,0,0,0.05,76.45,0)" xlink:href="#bu"/><use transform="matrix(0.05,0,0,0.05,86.45,0)" xlink:href="#bP"/><use transform="matrix(0.05,0,0,0.05,95.45,0)" xlink:href="#bQ"/><use transform="matrix(0.05,0,0,0.05,99.4,0)" xlink:href="#bj"/><use transform="matrix(0.05,0,0,0.05,109.4,0)" xlink:href="#bu"/><use transform="matrix(0.05,0,0,0.05,119.4,0)" xlink:href="#bv"/></g><g id="aI"><use transform="matrix(0.04320987654320988,0,0,0.04320987654320988,0,0)" xlink:href="#bM"/><use transform="matrix(0.04320987654320988,0,0,0.04320987654320988,7.777777777777779,0)" xlink:href="#bN"/><use transform="matrix(0.04320987654320988,0,0,0.04320987654320988,22.425925925925927,0)" xlink:href="#br"/></g><g id="aJ"><use transform="matrix(0.04320987654320988,0,0,0.04320987654320988,0,0)" xlink:href="#bR"/><use transform="matrix(0.04320987654320988,0,0,0.04320987654320988,11.19135802469136,0)" xlink:href="#bj"/><use transform="matrix(0.04320987654320988,0,0,0.04320987654320988,19.833333333333336,0)" xlink:href="#bz"/><use transform="matrix(0.04320987654320988,0,0,0.04320987654320988,32.75308641975309,0)" xlink:href="#bn"/><use transform="matrix(0.04320987654320988,0,0,0.04320987654320988,41.39506172839506,0)" xlink:href="#bu"/><use transform="matrix(0.04320987654320988,0,0,0.04320987654320988,50.037037037037045,0)" xlink:href="#bl"/><use transform="matrix(0.04320987654320988,0,0,0.04320987654320988,57.814814814814824,0)" xlink:href="#bh"/></g><g id="aK"><use transform="matrix(0.05,0,0,0.05,0,0)" xlink:href="#bH"/><use transform="matrix(0.05,0,0,0.05,12,0)" xlink:href="#bI"/><use transform="matrix(0.05,0,0,0.05,22,0)" xlink:href="#bJ"/></g><linearGradient gradientUnits="userSpaceOnUse" id="aL" x1="-759.51" y1="971.52" x2="-919.51" y2="971.52"><stop offset="0%" stop-color="#ffdf71"/><stop offset="100%" stop-color="#ff8f80"/></linearGradient><g id="aM"><use transform="matrix(0.14814814814814817,0,0,0.14814814814814817,0,0)" xlink:href="#bM"/><use transform="matrix(0.14814814814814817,0,0,0.14814814814814817,26.66666666666667,0)" xlink:href="#bN"/><use transform="matrix(0.14814814814814817,0,0,0.14814814814814817,76.8888888888889,0)" xlink:href="#br"/></g><g id="aN"><use transform="matrix(0.14814814814814817,0,0,0.14814814814814817,0,0)" xlink:href="#bR"/><use transform="matrix(0.14814814814814817,0,0,0.14814814814814817,38.370370370370374,0)" xlink:href="#bj"/><use transform="matrix(0.14814814814814817,0,0,0.14814814814814817,68,0)" xlink:href="#bz"/><use transform="matrix(0.14814814814814817,0,0,0.14814814814814817,112.2962962962963,0)" xlink:href="#bn"/><use transform="matrix(0.14814814814814817,0,0,0.14814814814814817,141.92592592592592,0)" xlink:href="#bu"/><use transform="matrix(0.14814814814814817,0,0,0.14814814814814817,171.55555555555554,0)" xlink:href="#bl"/><use transform="matrix(0.14814814814814817,0,0,0.14814814814814817,198.22222222222223,0)" xlink:href="#bh"/></g><g id="aO"><use transform="matrix(0.14814814814814817,0,0,0.14814814814814817,0,0)" xlink:href="#br"/><use transform="matrix(0.14814814814814817,0,0,0.14814814814814817,35.55555555555556,0)" xlink:href="#bf"/><use transform="matrix(0.14814814814814817,0,0,0.14814814814814817,65.18518518518519,0)" xlink:href="#bg"/><use transform="matrix(0.14814814814814817,0,0,0.14814814814814817,82.81481481481482,0)" xlink:href="#bi"/><use transform="matrix(0.14814814814814817,0,0,0.14814814814814817,94.51851851851853,0)" xlink:href="#bu"/><use transform="matrix(0.14814814814814817,0,0,0.14814814814814817,124.14814814814817,0)" xlink:href="#bQ"/><use transform="matrix(0.14814814814814817,0,0,0.14814814814814817,135.85185185185188,0)" xlink:href="#bi"/><use transform="matrix(0.14814814814814817,0,0,0.14814814814814817,147.55555555555557,0)" xlink:href="#be"/><use transform="matrix(0.14814814814814817,0,0,0.14814814814814817,174.22222222222226,0)" xlink:href="#bu"/><use transform="matrix(0.14814814814814817,0,0,0.14814814814814817,203.85185185185185,0)" xlink:href="#bh"/><use transform="matrix(0.14814814814814817,0,0,0.14814814814814817,218.66666666666666,0)" xlink:href="#bi"/><use transform="matrix(0.14814814814814817,0,0,0.14814814814814817,230.37037037037038,0)" xlink:href="#bj"/><use transform="matrix(0.14814814814814817,0,0,0.14814814814814817,260,0)" xlink:href="#bk"/></g><g id="aP"><use transform="matrix(0.14814814814814817,0,0,0.14814814814814817,0,0)" xlink:href="#bM"/><use transform="matrix(0.14814814814814817,0,0,0.14814814814814817,26.66666666666667,0)" xlink:href="#br"/><use transform="matrix(0.14814814814814817,0,0,0.14814814814814817,62.22222222222223,0)" xlink:href="#bx"/><use transform="matrix(0.14814814814814817,0,0,0.14814814814814817,103.70370370370372,0)" xlink:href="#cc"/></g><path d="M30-248c118-7 216 8 213 122C240-48 200 0 122 0H30v-248zM63-27c89 8 146-16 146-99s-60-101-146-95v194" id="cy"/><g id="aQ"><use transform="matrix(0.14814814814814817,0,0,0.14814814814814817,0,0)" xlink:href="#cy"/><use transform="matrix(0.14814814814814817,0,0,0.14814814814814817,38.370370370370374,0)" xlink:href="#bu"/><use transform="matrix(0.14814814814814817,0,0,0.14814814814814817,68,0)" xlink:href="#bh"/><use transform="matrix(0.14814814814814817,0,0,0.14814814814814817,82.81481481481481,0)" xlink:href="#bu"/></g><path d="M24-231v-30h32v30H24zM-9 49c24 4 33-6 33-30v-209h32V24c2 40-23 58-65 49V49" id="cz"/><g id="aR"><use transform="matrix(0.14814814814814817,0,0,0.14814814814814817,0,0)" xlink:href="#bj"/><use transform="matrix(0.14814814814814817,0,0,0.14814814814814817,29.629629629629633,0)" xlink:href="#bS"/><use transform="matrix(0.14814814814814817,0,0,0.14814814814814817,59.25925925925927,0)" xlink:href="#cz"/><use transform="matrix(0.14814814814814817,0,0,0.14814814814814817,70.96296296296298,0)" xlink:href="#bf"/><use transform="matrix(0.14814814814814817,0,0,0.14814814814814817,100.59259259259261,0)" xlink:href="#bl"/><use transform="matrix(0.14814814814814817,0,0,0.14814814814814817,127.25925925925928,0)" xlink:href="#bh"/><use transform="matrix(0.14814814814814817,0,0,0.14814814814814817,142.0740740740741,0)" xlink:href="#be"/></g><g id="aS"><use transform="matrix(0.14814814814814817,0,0,0.14814814814814817,0,0)" xlink:href="#bi"/><use transform="matrix(0.14814814814814817,0,0,0.14814814814814817,11.703703703703706,0)" xlink:href="#bk"/></g><g id="aT"><use transform="matrix(0.14814814814814817,0,0,0.14814814814814817,0,0)" xlink:href="#bi"/><use transform="matrix(0.14814814814814817,0,0,0.14814814814814817,11.703703703703706,0)" xlink:href="#be"/><use transform="matrix(0.14814814814814817,0,0,0.14814814814814817,38.37037037037038,0)" xlink:href="#be"/><use transform="matrix(0.14814814814814817,0,0,0.14814814814814817,65.03703703703705,0)" xlink:href="#bU"/><use transform="matrix(0.14814814814814817,0,0,0.14814814814814817,94.66666666666669,0)" xlink:href="#bi"/><use transform="matrix(0.14814814814814817,0,0,0.14814814814814817,106.3703703703704,0)" xlink:href="#bk"/><use transform="matrix(0.14814814814814817,0,0,0.14814814814814817,136.00000000000003,0)" xlink:href="#bT"/></g><use transform="matrix(0.14814814814814817,0,0,0.14814814814814817,0,0)" xlink:href="#bu" id="aU"/><g id="aV"><use transform="matrix(0.14814814814814817,0,0,0.14814814814814817,0,0)" xlink:href="#bq"/><use transform="matrix(0.14814814814814817,0,0,0.14814814814814817,30.518518518518523,0)" xlink:href="#bi"/><use transform="matrix(0.14814814814814817,0,0,0.14814814814814817,42.22222222222223,0)" xlink:href="#bz"/><use transform="matrix(0.14814814814814817,0,0,0.14814814814814817,86.51851851851853,0)" xlink:href="#bf"/><use transform="matrix(0.14814814814814817,0,0,0.14814814814814817,116.14814814814817,0)" xlink:href="#br"/><use transform="matrix(0.14814814814814817,0,0,0.14814814814814817,151.70370370370372,0)" xlink:href="#bh"/><use transform="matrix(0.14814814814814817,0,0,0.14814814814814817,166.51851851851853,0)" xlink:href="#bu"/><use transform="matrix(0.14814814814814817,0,0,0.14814814814814817,196.14814814814815,0)" xlink:href="#bz"/><use transform="matrix(0.14814814814814817,0,0,0.14814814814814817,240.44444444444443,0)" xlink:href="#bn"/><use transform="matrix(0.14814814814814817,0,0,0.14814814814814817,270.0740740740741,0)" xlink:href="#bf"/><use transform="matrix(0.14814814814814817,0,0,0.14814814814814817,299.7037037037037,0)" xlink:href="#bv"/></g><g id="aW"><use transform="matrix(0.14814814814814817,0,0,0.14814814814814817,0,0)" xlink:href="#bx"/><use transform="matrix(0.14814814814814817,0,0,0.14814814814814817,41.48148148148149,0)" xlink:href="#bn"/><use transform="matrix(0.14814814814814817,0,0,0.14814814814814817,71.11111111111111,0)" xlink:href="#bf"/><use transform="matrix(0.14814814814814817,0,0,0.14814814814814817,100.74074074074075,0)" xlink:href="#bk"/></g><path d="M33 0v-38h34V0H33" id="cA"/><g id="aX"><use transform="matrix(0.14814814814814817,0,0,0.14814814814814817,0,0)" xlink:href="#bw"/><use transform="matrix(0.14814814814814817,0,0,0.14814814814814817,35.55555555555556,0)" xlink:href="#bu"/><use transform="matrix(0.14814814814814817,0,0,0.14814814814814817,65.18518518518519,0)" xlink:href="#bv"/><use transform="matrix(0.14814814814814817,0,0,0.14814814814814817,94.81481481481482,0)" xlink:href="#bT"/><use transform="matrix(0.14814814814814817,0,0,0.14814814814814817,124.44444444444446,0)" xlink:href="#bf"/><use transform="matrix(0.14814814814814817,0,0,0.14814814814814817,154.07407407407405,0)" xlink:href="#cA"/></g><g id="aY"><use transform="matrix(0.14814814814814817,0,0,0.14814814814814817,0,0)" xlink:href="#bM"/><use transform="matrix(0.14814814814814817,0,0,0.14814814814814817,26.66666666666667,0)" xlink:href="#bN"/><use transform="matrix(0.14814814814814817,0,0,0.14814814814814817,76.8888888888889,0)" xlink:href="#br"/></g><g id="aZ"><use transform="matrix(0.14814814814814817,0,0,0.14814814814814817,0,0)" xlink:href="#be"/><use transform="matrix(0.14814814814814817,0,0,0.14814814814814817,26.66666666666667,0)" xlink:href="#bf"/><use transform="matrix(0.14814814814814817,0,0,0.14814814814814817,56.296296296296305,0)" xlink:href="#bg"/><use transform="matrix(0.14814814814814817,0,0,0.14814814814814817,73.92592592592594,0)" xlink:href="#bi"/><use transform="matrix(0.14814814814814817,0,0,0.14814814814814817,85.62962962962965,0)" xlink:href="#bu"/><use transform="matrix(0.14814814814814817,0,0,0.14814814814814817,115.25925925925928,0)" xlink:href="#bQ"/><use transform="matrix(0.14814814814814817,0,0,0.14814814814814817,126.96296296296299,0)" xlink:href="#bi"/><use transform="matrix(0.14814814814814817,0,0,0.14814814814814817,138.66666666666669,0)" xlink:href="#be"/><use transform="matrix(0.14814814814814817,0,0,0.14814814814814817,165.33333333333334,0)" xlink:href="#bu"/><use transform="matrix(0.14814814814814817,0,0,0.14814814814814817,194.962962962963,0)" xlink:href="#bh"/><use transform="matrix(0.14814814814814817,0,0,0.14814814814814817,209.7777777777778,0)" xlink:href="#bi"/><use transform="matrix(0.14814814814814817,0,0,0.14814814814814817,221.48148148148152,0)" xlink:href="#bj"/><use transform="matrix(0.14814814814814817,0,0,0.14814814814814817,251.11111111111114,0)" xlink:href="#bk"/></g><path d="M108 0H70L1-190h34L89-25l56-165h34" id="cB"/><g id="ba"><use transform="matrix(0.14814814814814817,0,0,0.14814814814814817,0,0)" xlink:href="#cB"/><use transform="matrix(0.14814814814814817,0,0,0.14814814814814817,26.66666666666667,0)" xlink:href="#be"/></g><g id="bb"><use transform="matrix(0.14814814814814817,0,0,0.14814814814814817,0,0)" xlink:href="#bM"/><use transform="matrix(0.14814814814814817,0,0,0.14814814814814817,26.66666666666667,0)" xlink:href="#bN"/><use transform="matrix(0.14814814814814817,0,0,0.14814814814814817,76.8888888888889,0)" xlink:href="#br"/></g><g id="bc"><use transform="matrix(0.14814814814814817,0,0,0.14814814814814817,0,0)" xlink:href="#be"/><use transform="matrix(0.14814814814814817,0,0,0.14814814814814817,26.66666666666667,0)" xlink:href="#bf"/><use transform="matrix(0.14814814814814817,0,0,0.14814814814814817,56.296296296296305,0)" xlink:href="#bg"/><use transform="matrix(0.14814814814814817,0,0,0.14814814814814817,73.92592592592594,0)" xlink:href="#bi"/><use transform="matrix(0.14814814814814817,0,0,0.14814814814814817,85.62962962962965,0)" xlink:href="#bu"/><use transform="matrix(0.14814814814814817,0,0,0.14814814814814817,115.25925925925928,0)" xlink:href="#bQ"/><use transform="matrix(0.14814814814814817,0,0,0.14814814814814817,126.96296296296299,0)" xlink:href="#bi"/><use transform="matrix(0.14814814814814817,0,0,0.14814814814814817,138.66666666666669,0)" xlink:href="#be"/><use transform="matrix(0.14814814814814817,0,0,0.14814814814814817,165.33333333333334,0)" xlink:href="#bu"/><use transform="matrix(0.14814814814814817,0,0,0.14814814814814817,194.962962962963,0)" xlink:href="#bh"/><use transform="matrix(0.14814814814814817,0,0,0.14814814814814817,209.7777777777778,0)" xlink:href="#bi"/><use transform="matrix(0.14814814814814817,0,0,0.14814814814814817,221.48148148148152,0)" xlink:href="#bj"/><use transform="matrix(0.14814814814814817,0,0,0.14814814814814817,251.11111111111114,0)" xlink:href="#bk"/></g></defs></g></svg>