<svg xmlns="http://www.w3.org/2000/svg" xmlns:xlink="http://www.w3.org/1999/xlink" xmlns:lucid="lucid" width="3321.81" height="1197.12"><g transform="translate(9.082953006613366 -62.88415763661372)" lucid:page-tab-id="0_0"><path d="M0 0h3676.8v1323.2H0z" fill="#ebeadf"/><path d="M1200.17 213.6h300.13v589.34h-300.13z" stroke="#000" stroke-width="2" fill="#b2b2b2"/><path d="M600.5 606.94h160v196h-160z" stroke="#000" stroke-width="2" fill="#83bbe5"/><use xlink:href="#a" transform="matrix(1,0,0,1,605.4911668700672,611.9398323734683) translate(0 14.4)"/><path d="M600.5 925.6h160V1138h-160z" stroke="#000" stroke-width="2" fill="#ff8f80"/><use xlink:href="#b" transform="matrix(1,0,0,1,605.4911668700672,930.6064990400962) translate(0 14.4)"/><use xlink:href="#c" transform="matrix(1,0,0,1,605.4911668700672,930.6064990400962) translate(61.95 14.4)"/><path d="M681.5 906.1h-2v-20.23h2zm0-63.43h-2v-37.73h2z"/><path d="M681.5 804.97h-2v-1.03h2zM680.5 921.37l-4.64-14.27h9.27z"/><path d="M680.5 924.6l-6.02-18.5h12.02zm-3.27-16.5l3.26 10.03 3.25-10.03z"/><use xlink:href="#d" transform="matrix(1,0,0,1,595.0661668700673,842.6731657067822) translate(24.505000000000003 14.4)"/><use xlink:href="#e" transform="matrix(1,0,0,1,595.0661668700673,842.6731657067822) translate(71.45500000000001 14.4)"/><use xlink:href="#f" transform="matrix(1,0,0,1,595.0661668700673,842.6731657067822) translate(0.0049999999999954525 36)"/><use xlink:href="#g" transform="matrix(1,0,0,1,595.0661668700673,842.6731657067822) translate(35.004999999999995 36)"/><use xlink:href="#h" transform="matrix(1,0,0,1,595.0661668700673,842.6731657067822) translate(96.955 36)"/><use xlink:href="#i" transform="matrix(1,0,0,1,595.0661668700673,842.6731657067822) translate(116.955 36)"/><path d="M627.16 764.94h106.66v34.67H627.16z" stroke="#000" stroke-width="2" fill="#fff"/><use xlink:href="#j" transform="matrix(1,0,0,1,632.1578335367338,769.9398323734451) translate(6.049999999999997 16.1)"/><use xlink:href="#k" transform="matrix(1,0,0,1,632.1578335367338,769.9398323734451) translate(59.95 16.1)"/><path d="M878 805.94v2H864.9v-2zm-48-16.77h-2v-83.23h-65.5v-2H830z"/><path d="M762.52 705.94h-1.03v-2h1.02zM893.26 806.94L879 811.58v-9.28z"/><path d="M896.5 806.94l-18.5 6v-12zM880 810.2l10.02-3.26-10.03-3.26z"/><path d="M897.5 746.94h160v120h-160z" stroke="#000" stroke-width="2" fill="#b391b5"/><use xlink:href="#l" transform="matrix(1,0,0,1,902.4911665367727,751.9398323734683) translate(21.049999999999997 58.6)"/><use xlink:href="#m" transform="matrix(1,0,0,1,902.4911665367727,751.9398323734683) translate(64 58.6)"/><path d="M830 1032.8h-67.5v-2H828V832.37h2zm48-224.86H864.9v-2H878z"/><path d="M762.52 1032.8h-1.03v-2h1.02zM893.26 806.94L879 811.58v-9.28z"/><path d="M896.5 806.94l-18.5 6v-12zM880 810.2l10.02-3.26-10.03-3.26z"/><use xlink:href="#n" transform="matrix(1,0,0,1,793.0661667034199,789.1652741012638) translate(0.005000000000002558 14.4)"/><use xlink:href="#o" transform="matrix(1,0,0,1,793.0661667034199,789.1652741012638) translate(21.455000000000005 36)"/><path d="M1270.8 506.94h160v120h-160z" stroke="#000" stroke-width="2" fill="#b391b5"/><use xlink:href="#l" transform="matrix(1,0,0,1,1275.8138774764795,511.9398323735071) translate(21.049999999999997 58.6)"/><use xlink:href="#m" transform="matrix(1,0,0,1,1275.8138774764795,511.9398323735071) translate(64 58.6)"/><path d="M1270.8 386.94h160v120h-160z" stroke="#000" stroke-width="2" fill="#ffc374"/><use xlink:href="#l" transform="matrix(1,0,0,1,1275.8138774764216,391.9398323735071) translate(24.074999999999996 58.6)"/><use xlink:href="#p" transform="matrix(1,0,0,1,1275.8138774764216,391.9398323735071) translate(67.025 58.6)"/><path d="M1270.8 626.94h160v120h-160z" stroke="#000" stroke-width="2" fill="#f5b5c8"/><use xlink:href="#q" transform="matrix(1,0,0,1,1275.8138774764216,631.9398323734683) translate(15.074999999999996 58.6)"/><use xlink:href="#r" transform="matrix(1,0,0,1,1275.8138774764216,631.9398323734683) translate(58.025 58.6)"/><path d="M600.5 513.6h90.66v73.34H600.5z" stroke="#000" stroke-width="2" fill="#c92d39"/><use xlink:href="#s" transform="matrix(1,0,0,1,605.4911668700672,518.6064990401348) translate(16.025 14.4)"/><use xlink:href="#t" transform="matrix(1,0,0,1,605.4911668700672,518.6064990401348) translate(12.55 36)"/><use xlink:href="#u" transform="matrix(1,0,0,1,605.4911668700672,518.6064990401348) translate(25 57.6)"/><path d="M1008.75 685.94h242.56v2h-244.55V551.27h-60.7v-2h62.7zm-315.6-134.67v-2h82.55v2z"/><path d="M693.18 551.27h-1.02v-2h1.02zM1266.58 686.94l-14.27 4.64v-9.28z"/><path d="M1269.8 686.94l-18.5 6v-12zm-16.5 3.26l10.04-3.26-10.03-3.26z"/><use xlink:href="#v" transform="matrix(1,0,0,1,775.7046484147081,539.4731657068016) translate(0 14.4)"/><use xlink:href="#w" transform="matrix(1,0,0,1,775.7046484147081,539.4731657068016) translate(40.95 14.4)"/><path d="M1200.17 213.6h300.13v56h-300.13z" stroke="#000" stroke-width="2" fill="#666"/><use xlink:href="#x" transform="matrix(1,0,0,1,1205.1703332299026,218.60062576148744) translate(81.05 27.1)"/><use xlink:href="#y" transform="matrix(1,0,0,1,1205.1703332299026,218.60062576148744) translate(147 27.1)"/><path d="M1270.24 303.6h160v83.34h-160z" stroke="#000" stroke-width="2" fill="#fff"/><use xlink:href="#z" transform="matrix(1,0,0,1,1275.2365007137264,308.6064990401738) translate(5.021604938271608 12.444444444444446)"/><use xlink:href="#A" transform="matrix(1,0,0,1,1275.2365007137264,308.6064990401738) translate(57.69444444444445 12.444444444444446)"/><use xlink:href="#B" transform="matrix(1,0,0,1,1275.2365007137264,308.6064990401738) translate(100.04012345679013 12.444444444444446)"/><use xlink:href="#C" transform="matrix(1,0,0,1,1275.2365007137264,308.6064990401738) translate(75 31.111111111111118)"/><use xlink:href="#D" transform="matrix(1,0,0,1,1275.2365007137264,308.6064990401738) translate(25.373456790123456 49.777777777777786)"/><use xlink:href="#E" transform="matrix(1,0,0,1,1275.2365007137264,308.6064990401738) translate(62.49074074074074 49.777777777777786)"/><use xlink:href="#F" transform="matrix(1,0,0,1,1275.2365007137264,308.6064990401738) translate(32.76234567901234 68.44444444444446)"/><path d="M977.5 744.94V572.27h-.15v-3.5" stroke="#000" stroke-width="2" fill="none"/><path d="M978.5 745.94h-2v-1.03h2z"/><path d="M977.35 553.5l4.63 14.28h-9.27z" stroke="#000" stroke-width="2"/><path d="M897.5 386.94h160v120h-160z" stroke="#000" stroke-width="2" fill="#ffc374"/><use xlink:href="#l" transform="matrix(1,0,0,1,902.4911665367727,391.9398323735071) translate(24.074999999999996 58.6)"/><use xlink:href="#p" transform="matrix(1,0,0,1,902.4911665367727,391.9398323735071) translate(67.025 58.6)"/><path d="M977.5 508.94v20.17h-.15v2.67" stroke="#000" stroke-width="2" fill="none"/><path d="M978.5 508.97h-2v-1.03h2z"/><path d="M977.35 547.04l-4.64-14.27H982z" stroke="#000" stroke-width="2"/><path d="M605.82 678.8H712.5v34.67H605.8z" stroke="#000" stroke-width="2" fill="#fff"/><use xlink:href="#G" transform="matrix(1,0,0,1,610.8245002034005,683.8064990401892) translate(22.5 16.1)"/><path d="M618.82 721.87H725.5v34.67H618.8z" stroke="#000" stroke-width="2" fill="#fff"/><use xlink:href="#H" transform="matrix(1,0,0,1,623.8245002034006,726.8731657068172) translate(24.025 16.1)"/><path d="M605.82 635.74H712.5v34.67H605.8z" stroke="#000" stroke-width="2" fill="#fff"/><use xlink:href="#I" transform="matrix(1,0,0,1,610.8245002034005,640.7398323735613) translate(11.074999999999996 16.1)"/><path d="M605.82 954H712.5v34.67H605.8z" stroke="#000" stroke-width="2" fill="#fff"/><use xlink:href="#J" transform="matrix(1,0,0,1,610.8245002034005,959.00702816433) translate(6.099999999999994 16.1)"/><path d="M605.82 1000.03H712.5v34.67H605.8z" stroke="#000" stroke-width="2" fill="#fff"/><use xlink:href="#K" transform="matrix(1,0,0,1,610.8245002034005,1005.0288876565994) translate(6.024999999999999 16.1)"/><path d="M605.82 1046.05H712.5v34.67H605.8z" stroke="#000" stroke-width="2" fill="#fff"/><use xlink:href="#L" transform="matrix(1,0,0,1,610.8245002034005,1051.0507471488688) translate(28.025 16.1)"/><path d="M605.82 1092.07H712.5v34.67H605.8z" stroke="#000" stroke-width="2" fill="#fff"/><use xlink:href="#M" transform="matrix(1,0,0,1,610.8245002034005,1097.0726066411382) translate(16.525 16.1)"/><path d="M1059.5 446.94h191.8" stroke="#000" stroke-width="2" fill="none"/><path d="M1059.52 447.94h-1.03v-2h1.02z"/><path d="M1266.58 446.94l-14.27 4.64v-9.28z" stroke="#000" stroke-width="2"/><path d="M1059.5 806.94h104.65v-240h87.16" stroke="#000" stroke-width="2" fill="none"/><path d="M1059.52 807.94h-1.03v-2h1.02z"/><path d="M1266.58 566.94l-14.27 4.64v-9.28z" stroke="#000" stroke-width="2"/><path d="M1351.24 952.3h-2v-43.33h2zm0-86.53h-2v-60.83h2z"/><path d="M1351.24 804.97h-2v-1.03h2zM1350.24 967.56l-4.64-14.27h9.27z"/><path d="M1350.24 970.8l-6.02-18.5h12.03zm-3.26-16.5l3.26 10.02 3.26-10.03z"/><use xlink:href="#N" transform="matrix(1,0,0,1,1316.3115007137264,865.7682364097637) translate(2.9299999999999997 14.4)"/><use xlink:href="#O" transform="matrix(1,0,0,1,1316.3115007137264,865.7682364097637) translate(49.93 14.4)"/><use xlink:href="#P" transform="matrix(1,0,0,1,1316.3115007137264,865.7682364097637) translate(0.005000000000002558 36)"/><path d="M1270.8 971.8h160v120h-160z" stroke="#000" stroke-width="2" fill="#5abaa7"/><use xlink:href="#Q" transform="matrix(1,0,0,1,1275.8138774764795,976.7966400580401) translate(37.574999999999996 47.8)"/><use xlink:href="#R" transform="matrix(1,0,0,1,1275.8138774764795,976.7966400580401) translate(36 69.4)"/><path d="M565.47 870.7H541v-2h24.47z"/><path d="M541.03 870.7H540v-2h1.03zM580.74 869.7l-14.27 4.62v-9.27z"/><path d="M583.97 869.7l-18.5 6v-12.03zm-16.5 3.25l10.03-3.26-10.03-3.27z"/><path d="M300 839.7h240v60H300z" stroke="#000" stroke-opacity="0" stroke-width="2" fill="#fff" fill-opacity="0"/><use xlink:href="#S" transform="matrix(1,0,0,1,305,844.6864291448768) translate(40.5 28.6)"/><use xlink:href="#T" transform="matrix(1,0,0,1,305,844.6864291448768) translate(157.60000000000002 28.6)"/><path d="M2400.17 213.6h300.13v589.34h-300.13z" stroke="#000" stroke-width="2" fill="#b2b2b2"/><path d="M1800.5 606.94h160v196h-160z" stroke="#000" stroke-width="2" fill="#83bbe5"/><use xlink:href="#a" transform="matrix(1,0,0,1,1805.4911668700674,611.9398323734683) translate(0 14.4)"/><path d="M1800.5 925.6h160V1138h-160z" stroke="#000" stroke-width="2" fill="#ffdf71"/><use xlink:href="#U" transform="matrix(1,0,0,1,1805.4911668700674,930.6064990400962) translate(0 14.4)"/><use xlink:href="#V" transform="matrix(1,0,0,1,1805.4911668700674,930.6064990400962) translate(38.95 14.4)"/><path d="M1881.5 906.1h-2v-20.23h2zm0-63.43h-2v-37.73h2z"/><path d="M1881.5 804.97h-2v-1.03h2zM1880.5 921.37l-4.64-14.27h9.27z"/><path d="M1880.5 924.6l-6.02-18.5h12.02zm-3.27-16.5l3.26 10.03 3.25-10.03z"/><use xlink:href="#d" transform="matrix(1,0,0,1,1813.5161668700675,842.6731657067822) translate(6.0549999999999855 14.4)"/><use xlink:href="#e" transform="matrix(1,0,0,1,1813.5161668700675,842.6731657067822) translate(53.00499999999999 14.4)"/><use xlink:href="#f" transform="matrix(1,0,0,1,1813.5161668700675,842.6731657067822) translate(0.0049999999999954525 36)"/><use xlink:href="#W" transform="matrix(1,0,0,1,1813.5161668700675,842.6731657067822) translate(35.004999999999995 36)"/><use xlink:href="#h" transform="matrix(1,0,0,1,1813.5161668700675,842.6731657067822) translate(79.005 36)"/><use xlink:href="#X" transform="matrix(1,0,0,1,1813.5161668700675,842.6731657067822) translate(99.005 36)"/><path d="M1827.16 764.94h106.66v34.67h-106.66z" stroke="#000" stroke-width="2" fill="#fff"/><use xlink:href="#j" transform="matrix(1,0,0,1,1832.1578335367342,769.9398323734451) translate(6.049999999999997 16.1)"/><use xlink:href="#k" transform="matrix(1,0,0,1,1832.1578335367342,769.9398323734451) translate(59.95 16.1)"/><path d="M2078 805.94v2h-13.08v-2zm-48-16.77h-2v-83.23h-65.5v-2h67.5z"/><path d="M1962.52 705.94h-1.03v-2h1.02zM2093.26 806.94l-14.27 4.64v-9.28z"/><path d="M2096.5 806.94l-18.5 6v-12zm-16.5 3.26l10.02-3.26-10.03-3.26z"/><path d="M2097.5 746.94h160v120h-160z" stroke="#000" stroke-width="2" fill="#a3d977"/><use xlink:href="#l" transform="matrix(1,0,0,1,2102.4911665367727,751.9398323734683) translate(21.049999999999997 58.6)"/><use xlink:href="#m" transform="matrix(1,0,0,1,2102.4911665367727,751.9398323734683) translate(64 58.6)"/><path d="M2030 1032.8h-67.5v-2h65.5V832.37h2zm48-224.86h-13.08v-2H2078z"/><path d="M1962.52 1032.8h-1.03v-2h1.02zM2093.26 806.94l-14.27 4.64v-9.28z"/><path d="M2096.5 806.94l-18.5 6v-12zm-16.5 3.26l10.02-3.26-10.03-3.26z"/><use xlink:href="#n" transform="matrix(1,0,0,1,1993.06616670342,789.1652741012639) translate(0.005000000000002558 14.4)"/><use xlink:href="#o" transform="matrix(1,0,0,1,1993.06616670342,789.1652741012639) translate(21.455000000000005 36)"/><path d="M2470.8 506.94h160v120h-160z" stroke="#000" stroke-width="2" fill="#a3d977"/><use xlink:href="#l" transform="matrix(1,0,0,1,2475.81387747648,511.9398323735071) translate(21.049999999999997 58.6)"/><use xlink:href="#m" transform="matrix(1,0,0,1,2475.81387747648,511.9398323735071) translate(64 58.6)"/><path d="M2470.8 386.94h160v120h-160z" stroke="#000" stroke-width="2" fill="#ffc374"/><use xlink:href="#l" transform="matrix(1,0,0,1,2475.8138774764216,391.9398323735071) translate(24.074999999999996 58.6)"/><use xlink:href="#p" transform="matrix(1,0,0,1,2475.8138774764216,391.9398323735071) translate(67.025 58.6)"/><path d="M2470.8 626.94h160v120h-160z" stroke="#000" stroke-width="2" fill="#ffdf71"/><use xlink:href="#q" transform="matrix(1,0,0,1,2475.8138774764216,631.9398323734683) translate(15.074999999999996 58.6)"/><use xlink:href="#r" transform="matrix(1,0,0,1,2475.8138774764216,631.9398323734683) translate(58.025 58.6)"/><path d="M1800.5 513.6h90.66v73.34h-90.67z" stroke="#000" stroke-width="2" fill="#c92d39"/><use xlink:href="#s" transform="matrix(1,0,0,1,1805.491166870067,518.6064990401348) translate(16.025 14.4)"/><use xlink:href="#t" transform="matrix(1,0,0,1,1805.491166870067,518.6064990401348) translate(12.55 36)"/><use xlink:href="#u" transform="matrix(1,0,0,1,1805.491166870067,518.6064990401348) translate(25 57.6)"/><path d="M2208.75 685.94h242.56v2h-244.55V551.27h-60.7v-2h62.7zm-315.6-134.67v-2h82.55v2z"/><path d="M1893.18 551.27h-1.02v-2h1.02zM2466.58 686.94l-14.27 4.64v-9.28z"/><path d="M2469.8 686.94l-18.5 6v-12zm-16.5 3.26l10.04-3.26-10.03-3.26z"/><use xlink:href="#v" transform="matrix(1,0,0,1,1975.704648414708,539.4731657068016) translate(0 14.4)"/><use xlink:href="#w" transform="matrix(1,0,0,1,1975.704648414708,539.4731657068016) translate(40.95 14.4)"/><path d="M2400.17 213.6h300.13v56h-300.13z" stroke="#000" stroke-width="2" fill="#666"/><use xlink:href="#x" transform="matrix(1,0,0,1,2405.1703332299026,218.60062576148744) translate(81.05 27.1)"/><use xlink:href="#y" transform="matrix(1,0,0,1,2405.1703332299026,218.60062576148744) translate(147 27.1)"/><path d="M2177.5 744.94V572.27h-.15v-3.5" stroke="#000" stroke-width="2" fill="none"/><path d="M2178.5 745.94h-2v-1.03h2z"/><path d="M2177.35 553.5l4.63 14.28h-9.27z" stroke="#000" stroke-width="2"/><path d="M2097.5 386.94h160v120h-160z" stroke="#000" stroke-width="2" fill="#ffc374"/><g><use xlink:href="#l" transform="matrix(1,0,0,1,2102.4911665367727,391.9398323735071) translate(24.074999999999996 58.6)"/><use xlink:href="#p" transform="matrix(1,0,0,1,2102.4911665367727,391.9398323735071) translate(67.025 58.6)"/></g><path d="M2177.5 508.94v20.17h-.15v2.67" stroke="#000" stroke-width="2" fill="none"/><path d="M2178.5 508.97h-2v-1.03h2z"/><path d="M2177.35 547.04l-4.64-14.27h9.28z" stroke="#000" stroke-width="2"/><path d="M1805.82 678.8h106.67v34.67H1805.8z" stroke="#000" stroke-width="2" fill="#fff"/><g><use xlink:href="#G" transform="matrix(1,0,0,1,1810.8245002034007,683.8064990401892) translate(22.5 16.1)"/></g><path d="M1818.82 721.87h106.67v34.67H1818.8z" stroke="#000" stroke-width="2" fill="#fff"/><g><use xlink:href="#H" transform="matrix(1,0,0,1,1823.8245002034007,726.8731657068172) translate(24.025 16.1)"/></g><path d="M1805.82 635.74h106.67v34.67H1805.8z" stroke="#000" stroke-width="2" fill="#fff"/><g><use xlink:href="#I" transform="matrix(1,0,0,1,1810.8245002034007,640.7398323735613) translate(11.074999999999996 16.1)"/></g><path d="M1805.82 954h128v34.67h-128z" stroke="#000" stroke-width="2" fill="#fff"/><g><use xlink:href="#Y" transform="matrix(1,0,0,1,1810.8245002034,959.00702816433) translate(0.04999999999999716 16.1)"/><use xlink:href="#Z" transform="matrix(1,0,0,1,1810.8245002034,959.00702816433) translate(79.95 16.1)"/></g><path d="M1805.82 1000.03h128v34.67h-128z" stroke="#000" stroke-width="2" fill="#fff"/><g><use xlink:href="#aa" transform="matrix(1,0,0,1,1810.8245002034,1005.0288876565994) translate(18.075000000000003 16.1)"/></g><path d="M1805.82 1044.9h128v35.82h-128z" stroke="#000" stroke-width="2" fill="#fff"/><g><use xlink:href="#U" transform="matrix(1,0,0,1,1810.8245002034,1049.8888340076508) translate(3.0749999999999957 16.6)"/><use xlink:href="#ab" transform="matrix(1,0,0,1,1810.8245002034,1049.8888340076508) translate(42.025 16.6)"/></g><path d="M1805.82 1092.07h128v34.67h-128z" stroke="#000" stroke-width="2" fill="#fff"/><g><use xlink:href="#U" transform="matrix(1,0,0,1,1810.8245002034,1097.0726066411382) translate(11.024999999999999 16.1)"/><use xlink:href="#ac" transform="matrix(1,0,0,1,1810.8245002034,1097.0726066411382) translate(49.975 16.1)"/></g><path d="M2259.5 446.94h191.8" stroke="#000" stroke-width="2" fill="none"/><path d="M2259.52 447.94h-1.03v-2h1.02z"/><path d="M2466.58 446.94l-14.27 4.64v-9.28z" stroke="#000" stroke-width="2"/><path d="M2259.5 806.94h104.65v-240h87.16" stroke="#000" stroke-width="2" fill="none"/><path d="M2259.52 807.94h-1.03v-2h1.02z"/><path d="M2466.58 566.94l-14.27 4.64v-9.28z" stroke="#000" stroke-width="2"/><path d="M2551.24 952.3h-2v-43.33h2zm0-86.53h-2v-60.83h2z"/><path d="M2551.24 804.97h-2v-1.03h2zM2550.24 967.56l-4.64-14.27h9.27z"/><path d="M2550.24 970.8l-6.02-18.5h12.03zm-3.26-16.5l3.26 10.02 3.26-10.03z"/><g><use xlink:href="#N" transform="matrix(1,0,0,1,2516.311500713726,865.7682364097637) translate(2.9299999999999997 14.4)"/><use xlink:href="#O" transform="matrix(1,0,0,1,2516.311500713726,865.7682364097637) translate(49.93 14.4)"/><use xlink:href="#P" transform="matrix(1,0,0,1,2516.311500713726,865.7682364097637) translate(0.005000000000002558 36)"/></g><path d="M2470.8 971.8h160v120h-160z" stroke="#000" stroke-width="2" fill="#5abaa7"/><g><use xlink:href="#Q" transform="matrix(1,0,0,1,2475.81387747648,976.7966400580401) translate(37.574999999999996 47.8)"/><use xlink:href="#R" transform="matrix(1,0,0,1,2475.81387747648,976.7966400580401) translate(36 69.4)"/></g><path d="M1741 869.7h24.47" stroke="#000" stroke-width="2" fill="none"/><path d="M1741.03 870.7H1740v-2h1.03z"/><path d="M1780.74 869.7l-14.27 4.62v-9.27z" stroke="#000" stroke-width="2"/><path d="M1500 839.7h240v60h-240z" stroke="#000" stroke-opacity="0" stroke-width="2" fill="#fff" fill-opacity="0"/><g><use xlink:href="#S" transform="matrix(1,0,0,1,1505,844.6864291448768) translate(40.5 28.6)"/><use xlink:href="#T" transform="matrix(1,0,0,1,1505,844.6864291448768) translate(157.60000000000002 28.6)"/></g><path d="M220 1180h2480.3v60H220z" stroke="#000" stroke-opacity="0" stroke-width="2" fill="#fff" fill-opacity="0"/><g><use xlink:href="#ad" transform="matrix(1,0,0,1,225,1185) translate(90.20370370370392 30.333333333333336)"/><use xlink:href="#ae" transform="matrix(1,0,0,1,225,1185) translate(143.4629629629632 30.333333333333336)"/><use xlink:href="#af" transform="matrix(1,0,0,1,225,1185) translate(199.68518518518542 30.333333333333336)"/><use xlink:href="#ag" transform="matrix(1,0,0,1,225,1185) translate(264.79629629629653 30.333333333333336)"/><use xlink:href="#ah" transform="matrix(1,0,0,1,225,1185) translate(338.8703703703706 30.333333333333336)"/><use xlink:href="#ai" transform="matrix(1,0,0,1,225,1185) translate(387.68518518518545 30.333333333333336)"/><use xlink:href="#aj" transform="matrix(1,0,0,1,225,1185) translate(486.7962962962966 30.333333333333336)"/><use xlink:href="#ak" transform="matrix(1,0,0,1,225,1185) translate(513.3888888888891 30.333333333333336)"/><use xlink:href="#al" transform="matrix(1,0,0,1,225,1185) translate(565.2407407407411 30.333333333333336)"/><use xlink:href="#am" transform="matrix(1,0,0,1,225,1185) translate(609.6851851851854 30.333333333333336)"/><use xlink:href="#an" transform="matrix(1,0,0,1,225,1185) translate(699.9074074074076 30.333333333333336)"/><use xlink:href="#ao" transform="matrix(1,0,0,1,225,1185) translate(819.6851851851854 30.333333333333336)"/><use xlink:href="#ap" transform="matrix(1,0,0,1,225,1185) translate(920.3518518518521 30.333333333333336)"/><use xlink:href="#aq" transform="matrix(1,0,0,1,225,1185) translate(958.7962962962965 30.333333333333336)"/><use xlink:href="#ar" transform="matrix(1,0,0,1,225,1185) translate(1049.0925925925928 30.333333333333336)"/><use xlink:href="#as" transform="matrix(1,0,0,1,225,1185) translate(1121.6851851851854 30.333333333333336)"/><use xlink:href="#at" transform="matrix(1,0,0,1,225,1185) translate(1219.4629629629633 30.333333333333336)"/><use xlink:href="#au" transform="matrix(1,0,0,1,225,1185) translate(1269.8333333333337 30.333333333333336)"/><use xlink:href="#av" transform="matrix(1,0,0,1,225,1185) translate(1306.8703703703707 30.333333333333336)"/><use xlink:href="#aw" transform="matrix(1,0,0,1,225,1185) translate(1372.0555555555559 30.333333333333336)"/><use xlink:href="#ax" transform="matrix(1,0,0,1,225,1185) translate(1466.6481481481485 30.333333333333336)"/><use xlink:href="#ay" transform="matrix(1,0,0,1,225,1185) translate(1575.9814814814818 30.333333333333336)"/><use xlink:href="#az" transform="matrix(1,0,0,1,225,1185) translate(1643.9074074074076 30.333333333333336)"/><use xlink:href="#al" transform="matrix(1,0,0,1,225,1185) translate(1673.5370370370372 30.333333333333336)"/><use xlink:href="#aA" transform="matrix(1,0,0,1,225,1185) translate(1717.9814814814815 30.333333333333336)"/><use xlink:href="#aB" transform="matrix(1,0,0,1,225,1185) translate(1790.5 30.333333333333336)"/><use xlink:href="#aC" transform="matrix(1,0,0,1,225,1185) translate(1855.537037037037 30.333333333333336)"/><use xlink:href="#aD" transform="matrix(1,0,0,1,225,1185) translate(1931.0185185185185 30.333333333333336)"/><use xlink:href="#al" transform="matrix(1,0,0,1,225,1185) translate(2034.5740740740741 30.333333333333336)"/><use xlink:href="#aE" transform="matrix(1,0,0,1,225,1185) translate(2079.0185185185182 30.333333333333336)"/><use xlink:href="#aF" transform="matrix(1,0,0,1,225,1185) translate(2160.5 30.333333333333336)"/><use xlink:href="#aG" transform="matrix(1,0,0,1,225,1185) translate(2215.1666666666665 30.333333333333336)"/></g><path d="M2470.8 303.6h160v83.34h-160z" stroke="#000" stroke-width="2" fill="#fff"/><g><use xlink:href="#z" transform="matrix(1,0,0,1,2475.81387747648,308.6064990401738) translate(5.021604938271608 12.444444444444446)"/><use xlink:href="#A" transform="matrix(1,0,0,1,2475.81387747648,308.6064990401738) translate(57.69444444444445 12.444444444444446)"/><use xlink:href="#B" transform="matrix(1,0,0,1,2475.81387747648,308.6064990401738) translate(100.04012345679013 12.444444444444446)"/><use xlink:href="#C" transform="matrix(1,0,0,1,2475.81387747648,308.6064990401738) translate(75 31.111111111111118)"/><use xlink:href="#D" transform="matrix(1,0,0,1,2475.81387747648,308.6064990401738) translate(25.373456790123456 49.777777777777786)"/><use xlink:href="#E" transform="matrix(1,0,0,1,2475.81387747648,308.6064990401738) translate(62.49074074074074 49.777777777777786)"/><use xlink:href="#F" transform="matrix(1,0,0,1,2475.81387747648,308.6064990401738) translate(32.76234567901234 68.44444444444446)"/></g><path d="M780 82.88h1720v118H780z" stroke="#000" stroke-opacity="0" stroke-width="2" fill="#fff" fill-opacity="0"/><g><use xlink:href="#aH" transform="matrix(1,0,0,1,785,87.88415763661372) translate(355.16666666666663 38.5)"/><use xlink:href="#aI" transform="matrix(1,0,0,1,785,87.88415763661372) translate(481.7222222222222 38.5)"/><use xlink:href="#aJ" transform="matrix(1,0,0,1,785,87.88415763661372) translate(563.7222222222222 38.5)"/><use xlink:href="#aK" transform="matrix(1,0,0,1,785,87.88415763661372) translate(608.1666666666666 38.5)"/><use xlink:href="#aL" transform="matrix(1,0,0,1,785,87.88415763661372) translate(743.5 38.5)"/><use xlink:href="#aM" transform="matrix(1,0,0,1,785,87.88415763661372) translate(994.9444444444445 38.5)"/><use xlink:href="#aN" transform="matrix(1,0,0,1,785,87.88415763661372) translate(1130.388888888889 38.5)"/><use xlink:href="#aO" transform="matrix(1,0,0,1,785,87.88415763661372) translate(1239.2777777777778 38.5)"/><use xlink:href="#aP" transform="matrix(1,0,0,1,785,87.88415763661372) translate(585.4444444444445 86.5)"/><use xlink:href="#aQ" transform="matrix(1,0,0,1,785,87.88415763661372) translate(716.3333333333334 86.5)"/><use xlink:href="#aR" transform="matrix(1,0,0,1,785,87.88415763661372) translate(767.4444444444445 86.5)"/><use xlink:href="#aS" transform="matrix(1,0,0,1,785,87.88415763661372) translate(854 86.5)"/></g><defs><path d="M205 0l-28-72H64L36 0H1l101-248h38L239 0h-34zm-38-99l-47-123c-12 45-31 82-46 123h93" id="aT"/><path d="M135-143c-3-34-86-38-87 0 15 53 115 12 119 90S17 21 10-45l28-5c4 36 97 45 98 0-10-56-113-15-118-90-4-57 82-63 122-42 12 7 21 19 24 35" id="aU"/><path d="M100-194c63 0 86 42 84 106H49c0 40 14 67 53 68 26 1 43-12 49-29l28 8c-11 28-37 45-77 45C44 4 14-33 15-96c1-61 26-98 85-98zm52 81c6-60-76-77-97-28-3 7-6 17-6 28h103" id="aV"/><path d="M114-163C36-179 61-72 57 0H25l-1-190h30c1 12-1 29 2 39 6-27 23-49 58-41v29" id="aW"/><path d="M59-47c-2 24 18 29 38 22v24C64 9 27 4 27-40v-127H5v-23h24l9-43h21v43h35v23H59v120" id="aX"/><path d="M24-231v-30h32v30H24zM24 0v-190h32V0H24" id="aY"/><path d="M100-194c62-1 85 37 85 99 1 63-27 99-86 99S16-35 15-95c0-66 28-99 85-99zM99-20c44 1 53-31 53-75 0-43-8-75-51-75s-53 32-53 75 10 74 51 75" id="aZ"/><path d="M117-194c89-4 53 116 60 194h-32v-121c0-31-8-49-39-48C34-167 62-67 57 0H25l-1-190h30c1 10-1 24 2 32 11-22 29-35 61-36" id="ba"/><g id="a"><use transform="matrix(0.05,0,0,0.05,0,0)" xlink:href="#aT"/><use transform="matrix(0.05,0,0,0.05,12,0)" xlink:href="#aU"/><use transform="matrix(0.05,0,0,0.05,21,0)" xlink:href="#aU"/><use transform="matrix(0.05,0,0,0.05,30,0)" xlink:href="#aV"/><use transform="matrix(0.05,0,0,0.05,40,0)" xlink:href="#aW"/><use transform="matrix(0.05,0,0,0.05,45.95,0)" xlink:href="#aX"/><use transform="matrix(0.05,0,0,0.05,50.95,0)" xlink:href="#aY"/><use transform="matrix(0.05,0,0,0.05,54.900000000000006,0)" xlink:href="#aZ"/><use transform="matrix(0.05,0,0,0.05,64.9,0)" xlink:href="#ba"/></g><path d="M96-169c-40 0-48 33-48 73s9 75 48 75c24 0 41-14 43-38l32 2c-6 37-31 61-74 61-59 0-76-41-82-99-10-93 101-131 147-64 4 7 5 14 7 22l-32 3c-4-21-16-35-41-35" id="bb"/><path d="M106-169C34-169 62-67 57 0H25v-261h32l-1 103c12-21 28-36 61-36 89 0 53 116 60 194h-32v-121c2-32-8-49-39-48" id="bc"/><g id="b"><use transform="matrix(0.05,0,0,0.05,0,0)" xlink:href="#aT"/><use transform="matrix(0.05,0,0,0.05,12,0)" xlink:href="#ba"/><use transform="matrix(0.05,0,0,0.05,22,0)" xlink:href="#bb"/><use transform="matrix(0.05,0,0,0.05,31,0)" xlink:href="#bc"/><use transform="matrix(0.05,0,0,0.05,41,0)" xlink:href="#aZ"/><use transform="matrix(0.05,0,0,0.05,51,0)" xlink:href="#aW"/></g><path d="M115-194c55 1 70 41 70 98S169 2 115 4C84 4 66-9 55-30l1 105H24l-1-265h31l2 30c10-21 28-34 59-34zm-8 174c40 0 45-34 45-75s-6-73-45-74c-42 0-51 32-51 76 0 43 10 73 51 73" id="bd"/><path d="M101-234c-31-9-42 10-38 44h38v23H63V0H32v-167H5v-23h27c-7-52 17-82 69-68v24" id="be"/><g id="c"><use transform="matrix(0.05,0,0,0.05,0,0)" xlink:href="#bd"/><use transform="matrix(0.05,0,0,0.05,10,0)" xlink:href="#aW"/><use transform="matrix(0.05,0,0,0.05,15.949999999999998,0)" xlink:href="#aZ"/><use transform="matrix(0.05,0,0,0.05,25.950000000000003,0)" xlink:href="#aZ"/><use transform="matrix(0.05,0,0,0.05,35.95,0)" xlink:href="#be"/></g><path d="M197 0v-115H63V0H30v-248h33v105h134v-105h34V0h-34" id="bf"/><path d="M141-36C126-15 110 5 73 4 37 3 15-17 15-53c-1-64 63-63 125-63 3-35-9-54-41-54-24 1-41 7-42 31l-33-3c5-37 33-52 76-52 45 0 72 20 72 64v82c-1 20 7 32 28 27v20c-31 9-61-2-59-35zM48-53c0 20 12 33 32 33 41-3 63-29 60-74-43 2-92-5-92 41" id="bg"/><g id="d"><use transform="matrix(0.05,0,0,0.05,0,0)" xlink:href="#bf"/><use transform="matrix(0.05,0,0,0.05,12.950000000000001,0)" xlink:href="#bg"/><use transform="matrix(0.05,0,0,0.05,22.950000000000003,0)" xlink:href="#aU"/><use transform="matrix(0.05,0,0,0.05,31.950000000000003,0)" xlink:href="#bc"/></g><g id="e"><use transform="matrix(0.05,0,0,0.05,0,0)" xlink:href="#aT"/><use transform="matrix(0.05,0,0,0.05,12,0)" xlink:href="#aU"/><use transform="matrix(0.05,0,0,0.05,21,0)" xlink:href="#aU"/><use transform="matrix(0.05,0,0,0.05,30,0)" xlink:href="#aV"/><use transform="matrix(0.05,0,0,0.05,40,0)" xlink:href="#aW"/><use transform="matrix(0.05,0,0,0.05,45.95,0)" xlink:href="#aX"/><use transform="matrix(0.05,0,0,0.05,50.95,0)" xlink:href="#aY"/><use transform="matrix(0.05,0,0,0.05,54.900000000000006,0)" xlink:href="#aZ"/><use transform="matrix(0.05,0,0,0.05,64.9,0)" xlink:href="#ba"/></g><path d="M85-194c31 0 48 13 60 33l-1-100h32l1 261h-30c-2-10 0-23-3-31C134-8 116 4 85 4 32 4 16-35 15-94c0-66 23-100 70-100zm9 24c-40 0-46 34-46 75 0 40 6 74 45 74 42 0 51-32 51-76 0-42-9-74-50-73" id="bh"/><g id="f"><use transform="matrix(0.05,0,0,0.05,0,0)" xlink:href="#bg"/><use transform="matrix(0.05,0,0,0.05,10,0)" xlink:href="#ba"/><use transform="matrix(0.05,0,0,0.05,20,0)" xlink:href="#bh"/></g><g id="g"><use transform="matrix(0.05,0,0,0.05,0,0)" xlink:href="#aT"/><use transform="matrix(0.05,0,0,0.05,12,0)" xlink:href="#ba"/><use transform="matrix(0.05,0,0,0.05,22,0)" xlink:href="#bb"/><use transform="matrix(0.05,0,0,0.05,31,0)" xlink:href="#bc"/><use transform="matrix(0.05,0,0,0.05,41,0)" xlink:href="#aZ"/><use transform="matrix(0.05,0,0,0.05,51,0)" xlink:href="#aW"/></g><g id="h"><use transform="matrix(0.05,0,0,0.05,0,0)" xlink:href="#aX"/><use transform="matrix(0.05,0,0,0.05,5,0)" xlink:href="#aZ"/></g><path d="M160-131c35 5 61 23 61 61C221 17 115-2 30 0v-248c76 3 177-17 177 60 0 33-19 50-47 57zm-97-11c50-1 110 9 110-42 0-47-63-36-110-37v79zm0 115c55-2 124 14 124-45 0-56-70-42-124-44v89" id="bi"/><g id="i"><use transform="matrix(0.05,0,0,0.05,0,0)" xlink:href="#bi"/><use transform="matrix(0.05,0,0,0.05,12,0)" xlink:href="#aY"/><use transform="matrix(0.05,0,0,0.05,15.949999999999998,0)" xlink:href="#aX"/><use transform="matrix(0.05,0,0,0.05,20.95,0)" xlink:href="#bb"/><use transform="matrix(0.05,0,0,0.05,29.950000000000003,0)" xlink:href="#aZ"/><use transform="matrix(0.05,0,0,0.05,39.95,0)" xlink:href="#aY"/><use transform="matrix(0.05,0,0,0.05,43.900000000000006,0)" xlink:href="#ba"/></g><path d="M30-248c87 1 191-15 191 75 0 78-77 80-158 76V0H30v-248zm33 125c57 0 124 11 124-50 0-59-68-47-124-48v98" id="bj"/><path d="M84 4C-5 8 30-112 23-190h32v120c0 31 7 50 39 49 72-2 45-101 50-169h31l1 190h-30c-1-10 1-25-2-33-11 22-28 36-60 37" id="bk"/><path d="M115-194c53 0 69 39 70 98 0 66-23 100-70 100C84 3 66-7 56-30L54 0H23l1-261h32v101c10-23 28-34 59-34zm-8 174c40 0 45-34 45-75 0-40-5-75-45-74-42 0-51 32-51 76 0 43 10 73 51 73" id="bl"/><path d="M24 0v-261h32V0H24" id="bm"/><g id="j"><use transform="matrix(0.05,0,0,0.05,0,0)" xlink:href="#bj"/><use transform="matrix(0.05,0,0,0.05,12,0)" xlink:href="#bk"/><use transform="matrix(0.05,0,0,0.05,22,0)" xlink:href="#bl"/><use transform="matrix(0.05,0,0,0.05,32,0)" xlink:href="#bm"/><use transform="matrix(0.05,0,0,0.05,35.95,0)" xlink:href="#aY"/><use transform="matrix(0.05,0,0,0.05,39.900000000000006,0)" xlink:href="#bb"/></g><path d="M194 0L95-120 63-95V0H30v-248h33v124l119-124h40L117-140 236 0h-42" id="bn"/><path d="M179-190L93 31C79 59 56 82 12 73V49c39 6 53-20 64-50L1-190h34L92-34l54-156h33" id="bo"/><g id="k"><use transform="matrix(0.05,0,0,0.05,0,0)" xlink:href="#bn"/><use transform="matrix(0.05,0,0,0.05,12,0)" xlink:href="#aV"/><use transform="matrix(0.05,0,0,0.05,22,0)" xlink:href="#bo"/></g><path d="M153-248C145-148 188 4 80 4 36 3 13-21 6-62l32-5c4 25 16 42 43 43 27 0 39-20 39-49v-147H72v-28h81" id="bp"/><path d="M266 0h-40l-56-210L115 0H75L2-248h35L96-30l15-64 43-154h32l59 218 59-218h35" id="bq"/><path d="M185-189c-5-48-123-54-124 2 14 75 158 14 163 119 3 78-121 87-175 55-17-10-28-26-33-46l33-7c5 56 141 63 141-1 0-78-155-14-162-118-5-82 145-84 179-34 5 7 8 16 11 25" id="br"/><g id="l"><use transform="matrix(0.05,0,0,0.05,0,0)" xlink:href="#bp"/><use transform="matrix(0.05,0,0,0.05,9,0)" xlink:href="#bq"/><use transform="matrix(0.05,0,0,0.05,25.950000000000003,0)" xlink:href="#br"/></g><g id="m"><use transform="matrix(0.05,0,0,0.05,0,0)" xlink:href="#bj"/><use transform="matrix(0.05,0,0,0.05,12,0)" xlink:href="#bg"/><use transform="matrix(0.05,0,0,0.05,22,0)" xlink:href="#bo"/><use transform="matrix(0.05,0,0,0.05,31,0)" xlink:href="#bm"/><use transform="matrix(0.05,0,0,0.05,34.95,0)" xlink:href="#aZ"/><use transform="matrix(0.05,0,0,0.05,44.95,0)" xlink:href="#bg"/><use transform="matrix(0.05,0,0,0.05,54.95,0)" xlink:href="#bh"/></g><path d="M212-179c-10-28-35-45-73-45-59 0-87 40-87 99 0 60 29 101 89 101 43 0 62-24 78-52l27 14C228-24 195 4 139 4 59 4 22-46 18-125c-6-104 99-153 187-111 19 9 31 26 39 46" id="bs"/><path d="M210-169c-67 3-38 105-44 169h-31v-121c0-29-5-50-35-48C34-165 62-65 56 0H25l-1-190h30c1 10-1 24 2 32 10-44 99-50 107 0 11-21 27-35 58-36 85-2 47 119 55 194h-31v-121c0-29-5-49-35-48" id="bt"/><g id="n"><use transform="matrix(0.05,0,0,0.05,0,0)" xlink:href="#bs"/><use transform="matrix(0.05,0,0,0.05,12.950000000000001,0)" xlink:href="#aZ"/><use transform="matrix(0.05,0,0,0.05,22.950000000000003,0)" xlink:href="#bt"/><use transform="matrix(0.05,0,0,0.05,37.900000000000006,0)" xlink:href="#bl"/><use transform="matrix(0.05,0,0,0.05,47.900000000000006,0)" xlink:href="#aY"/><use transform="matrix(0.05,0,0,0.05,51.85,0)" xlink:href="#ba"/><use transform="matrix(0.05,0,0,0.05,61.85,0)" xlink:href="#aV"/></g><g id="o"><use transform="matrix(0.05,0,0,0.05,0,0)" xlink:href="#aY"/><use transform="matrix(0.05,0,0,0.05,3.95,0)" xlink:href="#ba"/><use transform="matrix(0.05,0,0,0.05,13.949999999999998,0)" xlink:href="#aX"/><use transform="matrix(0.05,0,0,0.05,18.95,0)" xlink:href="#aZ"/></g><g id="p"><use transform="matrix(0.05,0,0,0.05,0,0)" xlink:href="#bf"/><use transform="matrix(0.05,0,0,0.05,12.950000000000001,0)" xlink:href="#aV"/><use transform="matrix(0.05,0,0,0.05,22.950000000000003,0)" xlink:href="#bg"/><use transform="matrix(0.05,0,0,0.05,32.95,0)" xlink:href="#bh"/><use transform="matrix(0.05,0,0,0.05,42.95,0)" xlink:href="#aV"/><use transform="matrix(0.05,0,0,0.05,52.95,0)" xlink:href="#aW"/></g><g id="q"><use transform="matrix(0.05,0,0,0.05,0,0)" xlink:href="#bp"/><use transform="matrix(0.05,0,0,0.05,9,0)" xlink:href="#br"/><use transform="matrix(0.05,0,0,0.05,21,0)" xlink:href="#bq"/></g><path d="M177-190C167-65 218 103 67 71c-23-6-38-20-44-43l32-5c15 47 100 32 89-28v-30C133-14 115 1 83 1 29 1 15-40 15-95c0-56 16-97 71-98 29-1 48 16 59 35 1-10 0-23 2-32h30zM94-22c36 0 50-32 50-73 0-42-14-75-50-75-39 0-46 34-46 75s6 73 46 73" id="bu"/><g id="r"><use transform="matrix(0.05,0,0,0.05,0,0)" xlink:href="#br"/><use transform="matrix(0.05,0,0,0.05,12,0)" xlink:href="#aY"/><use transform="matrix(0.05,0,0,0.05,15.949999999999998,0)" xlink:href="#bu"/><use transform="matrix(0.05,0,0,0.05,25.950000000000003,0)" xlink:href="#ba"/><use transform="matrix(0.05,0,0,0.05,35.95,0)" xlink:href="#bg"/><use transform="matrix(0.05,0,0,0.05,45.95,0)" xlink:href="#aX"/><use transform="matrix(0.05,0,0,0.05,50.95,0)" xlink:href="#bk"/><use transform="matrix(0.05,0,0,0.05,60.95,0)" xlink:href="#aW"/><use transform="matrix(0.05,0,0,0.05,66.9,0)" xlink:href="#aV"/></g><path fill="#fff" d="M33 0v-248h34V0H33" id="bv"/><path fill="#fff" d="M135-143c-3-34-86-38-87 0 15 53 115 12 119 90S17 21 10-45l28-5c4 36 97 45 98 0-10-56-113-15-118-90-4-57 82-63 122-42 12 7 21 19 24 35" id="bw"/><path fill="#fff" d="M84 4C-5 8 30-112 23-190h32v120c0 31 7 50 39 49 72-2 45-101 50-169h31l1 190h-30c-1-10 1-25-2-33-11 22-28 36-60 37" id="bx"/><path fill="#fff" d="M100-194c63 0 86 42 84 106H49c0 40 14 67 53 68 26 1 43-12 49-29l28 8c-11 28-37 45-77 45C44 4 14-33 15-96c1-61 26-98 85-98zm52 81c6-60-76-77-97-28-3 7-6 17-6 28h103" id="by"/><path fill="#fff" d="M114-163C36-179 61-72 57 0H25l-1-190h30c1 12-1 29 2 39 6-27 23-49 58-41v29" id="bz"/><g id="s"><use transform="matrix(0.05,0,0,0.05,0,0)" xlink:href="#bv"/><use transform="matrix(0.05,0,0,0.05,5,0)" xlink:href="#bw"/><use transform="matrix(0.05,0,0,0.05,14,0)" xlink:href="#bw"/><use transform="matrix(0.05,0,0,0.05,23,0)" xlink:href="#bx"/><use transform="matrix(0.05,0,0,0.05,33,0)" xlink:href="#by"/><use transform="matrix(0.05,0,0,0.05,43,0)" xlink:href="#bz"/></g><path fill="#fff" d="M30-248c87 1 191-15 191 75 0 78-77 80-158 76V0H30v-248zm33 125c57 0 124 11 124-50 0-59-68-47-124-48v98" id="bA"/><path fill="#fff" d="M24-231v-30h32v30H24zM24 0v-190h32V0H24" id="bB"/><path fill="#fff" d="M108 0H70L1-190h34L89-25l56-165h34" id="bC"/><path fill="#fff" d="M141-36C126-15 110 5 73 4 37 3 15-17 15-53c-1-64 63-63 125-63 3-35-9-54-41-54-24 1-41 7-42 31l-33-3c5-37 33-52 76-52 45 0 72 20 72 64v82c-1 20 7 32 28 27v20c-31 9-61-2-59-35zM48-53c0 20 12 33 32 33 41-3 63-29 60-74-43 2-92-5-92 41" id="bD"/><path fill="#fff" d="M59-47c-2 24 18 29 38 22v24C64 9 27 4 27-40v-127H5v-23h24l9-43h21v43h35v23H59v120" id="bE"/><g id="t"><use transform="matrix(0.05,0,0,0.05,0,0)" xlink:href="#bA"/><use transform="matrix(0.05,0,0,0.05,12,0)" xlink:href="#bz"/><use transform="matrix(0.05,0,0,0.05,17.95,0)" xlink:href="#bB"/><use transform="matrix(0.05,0,0,0.05,21.9,0)" xlink:href="#bC"/><use transform="matrix(0.05,0,0,0.05,30.899999999999995,0)" xlink:href="#bD"/><use transform="matrix(0.05,0,0,0.05,40.9,0)" xlink:href="#bE"/><use transform="matrix(0.05,0,0,0.05,45.9,0)" xlink:href="#by"/></g><path fill="#fff" d="M194 0L95-120 63-95V0H30v-248h33v124l119-124h40L117-140 236 0h-42" id="bF"/><path fill="#fff" d="M179-190L93 31C79 59 56 82 12 73V49c39 6 53-20 64-50L1-190h34L92-34l54-156h33" id="bG"/><g id="u"><use transform="matrix(0.05,0,0,0.05,0,0)" xlink:href="#bF"/><use transform="matrix(0.05,0,0,0.05,12,0)" xlink:href="#by"/><use transform="matrix(0.05,0,0,0.05,22,0)" xlink:href="#bG"/></g><g id="v"><use transform="matrix(0.05,0,0,0.05,0,0)" xlink:href="#br"/><use transform="matrix(0.05,0,0,0.05,12,0)" xlink:href="#aY"/><use transform="matrix(0.05,0,0,0.05,15.949999999999998,0)" xlink:href="#bu"/><use transform="matrix(0.05,0,0,0.05,25.950000000000003,0)" xlink:href="#ba"/></g><path d="M118-107v75H92v-75H18v-26h74v-75h26v75h74v26h-74" id="bH"/><g id="w"><use transform="matrix(0.05,0,0,0.05,0,0)" xlink:href="#bc"/><use transform="matrix(0.05,0,0,0.05,10,0)" xlink:href="#aV"/><use transform="matrix(0.05,0,0,0.05,20,0)" xlink:href="#bg"/><use transform="matrix(0.05,0,0,0.05,30,0)" xlink:href="#bh"/><use transform="matrix(0.05,0,0,0.05,40,0)" xlink:href="#aV"/><use transform="matrix(0.05,0,0,0.05,50,0)" xlink:href="#aW"/><use transform="matrix(0.05,0,0,0.05,55.95,0)" xlink:href="#bH"/><use transform="matrix(0.05,0,0,0.05,66.45,0)" xlink:href="#bd"/><use transform="matrix(0.05,0,0,0.05,76.45,0)" xlink:href="#bg"/><use transform="matrix(0.05,0,0,0.05,86.45,0)" xlink:href="#bo"/><use transform="matrix(0.05,0,0,0.05,95.45,0)" xlink:href="#bm"/><use transform="matrix(0.05,0,0,0.05,99.4,0)" xlink:href="#aZ"/><use transform="matrix(0.05,0,0,0.05,109.4,0)" xlink:href="#bg"/><use transform="matrix(0.05,0,0,0.05,119.4,0)" xlink:href="#bh"/></g><path fill="#fff" d="M160-131c35 5 61 23 61 61C221 17 115-2 30 0v-248c76 3 177-17 177 60 0 33-19 50-47 57zm-97-11c50-1 110 9 110-42 0-47-63-36-110-37v79zm0 115c55-2 124 14 124-45 0-56-70-42-124-44v89" id="bI"/><path fill="#fff" d="M205 0l-28-72H64L36 0H1l101-248h38L239 0h-34zm-38-99l-47-123c-12 45-31 82-46 123h93" id="bJ"/><path fill="#fff" d="M30 0v-248h187v28H63v79h144v27H63v87h162V0H30" id="bK"/><path fill="#fff" d="M30-248c118-7 216 8 213 122C240-48 200 0 122 0H30v-248zM63-27c89 8 146-16 146-99s-60-101-146-95v194" id="bL"/><g id="x"><use transform="matrix(0.05,0,0,0.05,0,0)" xlink:href="#bI"/><use transform="matrix(0.05,0,0,0.05,12,0)" xlink:href="#bJ"/><use transform="matrix(0.05,0,0,0.05,24,0)" xlink:href="#bF"/><use transform="matrix(0.05,0,0,0.05,36,0)" xlink:href="#bK"/><use transform="matrix(0.05,0,0,0.05,48,0)" xlink:href="#bL"/></g><path fill="#fff" d="M143 4C61 4 22-44 18-125c-5-107 100-154 193-111 17 8 29 25 37 43l-32 9c-13-25-37-40-76-40-61 0-88 39-88 99 0 61 29 100 91 101 35 0 62-11 79-27v-45h-74v-28h105v86C228-13 192 4 143 4" id="bM"/><g id="y"><use transform="matrix(0.05,0,0,0.05,0,0)" xlink:href="#bI"/><use transform="matrix(0.05,0,0,0.05,12,0)" xlink:href="#bJ"/><use transform="matrix(0.05,0,0,0.05,24,0)" xlink:href="#bL"/><use transform="matrix(0.05,0,0,0.05,36.95,0)" xlink:href="#bM"/><use transform="matrix(0.05,0,0,0.05,50.95,0)" xlink:href="#bK"/></g><g id="z"><use transform="matrix(0.04320987654320988,0,0,0.04320987654320988,0,0)" xlink:href="#br"/><use transform="matrix(0.04320987654320988,0,0,0.04320987654320988,10.370370370370372,0)" xlink:href="#aY"/><use transform="matrix(0.04320987654320988,0,0,0.04320987654320988,13.783950617283953,0)" xlink:href="#bu"/><use transform="matrix(0.04320987654320988,0,0,0.04320987654320988,22.425925925925934,0)" xlink:href="#ba"/><use transform="matrix(0.04320987654320988,0,0,0.04320987654320988,31.067901234567906,0)" xlink:href="#aV"/><use transform="matrix(0.04320987654320988,0,0,0.04320987654320988,39.70987654320988,0)" xlink:href="#bh"/></g><path d="M140-251c81 0 123 46 123 126C263-46 219 4 140 4 59 4 17-45 17-125s42-126 123-126zm0 227c63 0 89-41 89-101s-29-99-89-99c-61 0-89 39-89 99S79-25 140-24" id="bN"/><g id="A"><use transform="matrix(0.04320987654320988,0,0,0.04320987654320988,0,0)" xlink:href="#bN"/><use transform="matrix(0.04320987654320988,0,0,0.04320987654320988,12.098765432098766,0)" xlink:href="#bd"/><use transform="matrix(0.04320987654320988,0,0,0.04320987654320988,20.74074074074074,0)" xlink:href="#aV"/><use transform="matrix(0.04320987654320988,0,0,0.04320987654320988,29.382716049382715,0)" xlink:href="#ba"/></g><g id="B"><use transform="matrix(0.04320987654320988,0,0,0.04320987654320988,0,0)" xlink:href="#bi"/><use transform="matrix(0.04320987654320988,0,0,0.04320987654320988,10.370370370370372,0)" xlink:href="#bg"/><use transform="matrix(0.04320987654320988,0,0,0.04320987654320988,19.01234567901235,0)" xlink:href="#bh"/><use transform="matrix(0.04320987654320988,0,0,0.04320987654320988,27.654320987654323,0)" xlink:href="#bu"/><use transform="matrix(0.04320987654320988,0,0,0.04320987654320988,36.2962962962963,0)" xlink:href="#aV"/></g><g id="D"><use transform="matrix(0.04320987654320988,0,0,0.04320987654320988,0,0)" xlink:href="#bp"/><use transform="matrix(0.04320987654320988,0,0,0.04320987654320988,7.777777777777779,0)" xlink:href="#bq"/><use transform="matrix(0.04320987654320988,0,0,0.04320987654320988,22.425925925925927,0)" xlink:href="#br"/></g><g id="E"><use transform="matrix(0.04320987654320988,0,0,0.04320987654320988,0,0)" xlink:href="#bs"/><use transform="matrix(0.04320987654320988,0,0,0.04320987654320988,11.19135802469136,0)" xlink:href="#aZ"/><use transform="matrix(0.04320987654320988,0,0,0.04320987654320988,19.833333333333336,0)" xlink:href="#bt"/><use transform="matrix(0.04320987654320988,0,0,0.04320987654320988,32.75308641975309,0)" xlink:href="#bd"/><use transform="matrix(0.04320987654320988,0,0,0.04320987654320988,41.39506172839506,0)" xlink:href="#bg"/><use transform="matrix(0.04320987654320988,0,0,0.04320987654320988,50.037037037037045,0)" xlink:href="#bb"/><use transform="matrix(0.04320987654320988,0,0,0.04320987654320988,57.814814814814824,0)" xlink:href="#aX"/></g><g id="F"><use transform="matrix(0.04320987654320988,0,0,0.04320987654320988,0,0)" xlink:href="#br"/><use transform="matrix(0.04320987654320988,0,0,0.04320987654320988,10.370370370370372,0)" xlink:href="#aV"/><use transform="matrix(0.04320987654320988,0,0,0.04320987654320988,19.01234567901235,0)" xlink:href="#aW"/><use transform="matrix(0.04320987654320988,0,0,0.04320987654320988,24.154320987654323,0)" xlink:href="#aY"/><use transform="matrix(0.04320987654320988,0,0,0.04320987654320988,27.567901234567906,0)" xlink:href="#bg"/><use transform="matrix(0.04320987654320988,0,0,0.04320987654320988,36.20987654320988,0)" xlink:href="#bm"/><use transform="matrix(0.04320987654320988,0,0,0.04320987654320988,39.62345679012346,0)" xlink:href="#aY"/><use transform="matrix(0.04320987654320988,0,0,0.04320987654320988,43.037037037037045,0)" xlink:href="#aU"/><use transform="matrix(0.04320987654320988,0,0,0.04320987654320988,50.81481481481482,0)" xlink:href="#bg"/><use transform="matrix(0.04320987654320988,0,0,0.04320987654320988,59.4567901234568,0)" xlink:href="#aX"/><use transform="matrix(0.04320987654320988,0,0,0.04320987654320988,63.777777777777786,0)" xlink:href="#aY"/><use transform="matrix(0.04320987654320988,0,0,0.04320987654320988,67.19135802469137,0)" xlink:href="#aZ"/><use transform="matrix(0.04320987654320988,0,0,0.04320987654320988,75.83333333333334,0)" xlink:href="#ba"/></g><g id="G"><use transform="matrix(0.05,0,0,0.05,0,0)" xlink:href="#bi"/><use transform="matrix(0.05,0,0,0.05,12,0)" xlink:href="#bg"/><use transform="matrix(0.05,0,0,0.05,22,0)" xlink:href="#bh"/><use transform="matrix(0.05,0,0,0.05,32,0)" xlink:href="#bu"/><use transform="matrix(0.05,0,0,0.05,42,0)" xlink:href="#aV"/></g><path d="M33 0v-248h34V0H33" id="bO"/><g id="H"><use transform="matrix(0.05,0,0,0.05,0,0)" xlink:href="#bO"/><use transform="matrix(0.05,0,0,0.05,5,0)" xlink:href="#aU"/><use transform="matrix(0.05,0,0,0.05,14,0)" xlink:href="#aU"/><use transform="matrix(0.05,0,0,0.05,23,0)" xlink:href="#bk"/><use transform="matrix(0.05,0,0,0.05,33,0)" xlink:href="#aV"/><use transform="matrix(0.05,0,0,0.05,43,0)" xlink:href="#aW"/></g><path d="M233-177c-1 41-23 64-60 70L243 0h-38l-65-103H63V0H30v-248c88 3 205-21 203 71zM63-129c60-2 137 13 137-47 0-61-80-42-137-45v92" id="bP"/><g id="I"><use transform="matrix(0.05,0,0,0.05,0,0)" xlink:href="#bP"/><use transform="matrix(0.05,0,0,0.05,12.950000000000001,0)" xlink:href="#aV"/><use transform="matrix(0.05,0,0,0.05,22.950000000000003,0)" xlink:href="#bb"/><use transform="matrix(0.05,0,0,0.05,31.950000000000003,0)" xlink:href="#aY"/><use transform="matrix(0.05,0,0,0.05,35.900000000000006,0)" xlink:href="#bd"/><use transform="matrix(0.05,0,0,0.05,45.900000000000006,0)" xlink:href="#aY"/><use transform="matrix(0.05,0,0,0.05,49.85000000000001,0)" xlink:href="#aV"/><use transform="matrix(0.05,0,0,0.05,59.85,0)" xlink:href="#ba"/><use transform="matrix(0.05,0,0,0.05,69.85000000000001,0)" xlink:href="#aX"/></g><path d="M143 0L79-87 56-68V0H24v-261h32v163l83-92h37l-77 82L181 0h-38" id="bQ"/><g id="J"><use transform="matrix(0.05,0,0,0.05,0,0)" xlink:href="#bt"/><use transform="matrix(0.05,0,0,0.05,14.950000000000001,0)" xlink:href="#aV"/><use transform="matrix(0.05,0,0,0.05,24.950000000000003,0)" xlink:href="#aW"/><use transform="matrix(0.05,0,0,0.05,30.900000000000002,0)" xlink:href="#bQ"/><use transform="matrix(0.05,0,0,0.05,39.900000000000006,0)" xlink:href="#bm"/><use transform="matrix(0.05,0,0,0.05,43.85000000000001,0)" xlink:href="#aV"/><use transform="matrix(0.05,0,0,0.05,53.85,0)" xlink:href="#aW"/><use transform="matrix(0.05,0,0,0.05,59.80000000000001,0)" xlink:href="#aZ"/><use transform="matrix(0.05,0,0,0.05,69.80000000000001,0)" xlink:href="#aZ"/><use transform="matrix(0.05,0,0,0.05,79.80000000000001,0)" xlink:href="#aX"/></g><g id="K"><use transform="matrix(0.05,0,0,0.05,0,0)" xlink:href="#aX"/><use transform="matrix(0.05,0,0,0.05,5,0)" xlink:href="#bg"/><use transform="matrix(0.05,0,0,0.05,15,0)" xlink:href="#aW"/><use transform="matrix(0.05,0,0,0.05,20.95,0)" xlink:href="#bu"/><use transform="matrix(0.05,0,0,0.05,30.950000000000003,0)" xlink:href="#aV"/><use transform="matrix(0.05,0,0,0.05,40.95,0)" xlink:href="#aX"/><use transform="matrix(0.05,0,0,0.05,45.95,0)" xlink:href="#bc"/><use transform="matrix(0.05,0,0,0.05,55.95,0)" xlink:href="#bg"/><use transform="matrix(0.05,0,0,0.05,65.95,0)" xlink:href="#aU"/><use transform="matrix(0.05,0,0,0.05,74.95,0)" xlink:href="#bc"/></g><g id="L"><use transform="matrix(0.05,0,0,0.05,0,0)" xlink:href="#bd"/><use transform="matrix(0.05,0,0,0.05,10,0)" xlink:href="#aW"/><use transform="matrix(0.05,0,0,0.05,15.949999999999998,0)" xlink:href="#aZ"/><use transform="matrix(0.05,0,0,0.05,25.950000000000003,0)" xlink:href="#aZ"/><use transform="matrix(0.05,0,0,0.05,35.95,0)" xlink:href="#be"/></g><g id="M"><use transform="matrix(0.05,0,0,0.05,0,0)" xlink:href="#bg"/><use transform="matrix(0.05,0,0,0.05,10,0)" xlink:href="#ba"/><use transform="matrix(0.05,0,0,0.05,20,0)" xlink:href="#bb"/><use transform="matrix(0.05,0,0,0.05,29,0)" xlink:href="#bc"/><use transform="matrix(0.05,0,0,0.05,39,0)" xlink:href="#aZ"/><use transform="matrix(0.05,0,0,0.05,49,0)" xlink:href="#aW"/><use transform="matrix(0.05,0,0,0.05,54.95,0)" xlink:href="#aU"/></g><g id="N"><use transform="matrix(0.05,0,0,0.05,0,0)" xlink:href="#br"/><use transform="matrix(0.05,0,0,0.05,12,0)" xlink:href="#aV"/><use transform="matrix(0.05,0,0,0.05,22,0)" xlink:href="#ba"/><use transform="matrix(0.05,0,0,0.05,32,0)" xlink:href="#bh"/></g><g id="O"><use transform="matrix(0.05,0,0,0.05,0,0)" xlink:href="#aX"/><use transform="matrix(0.05,0,0,0.05,5,0)" xlink:href="#aZ"/></g><g id="P"><use transform="matrix(0.05,0,0,0.05,0,0)" xlink:href="#aW"/><use transform="matrix(0.05,0,0,0.05,5.95,0)" xlink:href="#aV"/><use transform="matrix(0.05,0,0,0.05,15.949999999999998,0)" xlink:href="#bb"/><use transform="matrix(0.05,0,0,0.05,24.95,0)" xlink:href="#aY"/><use transform="matrix(0.05,0,0,0.05,28.899999999999995,0)" xlink:href="#bd"/><use transform="matrix(0.05,0,0,0.05,38.9,0)" xlink:href="#aY"/><use transform="matrix(0.05,0,0,0.05,42.85,0)" xlink:href="#aV"/><use transform="matrix(0.05,0,0,0.05,52.85,0)" xlink:href="#ba"/><use transform="matrix(0.05,0,0,0.05,62.85,0)" xlink:href="#aX"/></g><g id="Q"><use transform="matrix(0.05,0,0,0.05,0,0)" xlink:href="#bP"/><use transform="matrix(0.05,0,0,0.05,12.950000000000001,0)" xlink:href="#aV"/><use transform="matrix(0.05,0,0,0.05,22.950000000000003,0)" xlink:href="#bb"/><use transform="matrix(0.05,0,0,0.05,31.950000000000003,0)" xlink:href="#aY"/><use transform="matrix(0.05,0,0,0.05,35.900000000000006,0)" xlink:href="#bd"/><use transform="matrix(0.05,0,0,0.05,45.900000000000006,0)" xlink:href="#aY"/><use transform="matrix(0.05,0,0,0.05,49.85000000000001,0)" xlink:href="#aV"/><use transform="matrix(0.05,0,0,0.05,59.85,0)" xlink:href="#ba"/><use transform="matrix(0.05,0,0,0.05,69.85000000000001,0)" xlink:href="#aX"/></g><g id="R"><use transform="matrix(0.05,0,0,0.05,0,0)" xlink:href="#bi"/><use transform="matrix(0.05,0,0,0.05,12,0)" xlink:href="#bg"/><use transform="matrix(0.05,0,0,0.05,22,0)" xlink:href="#bb"/><use transform="matrix(0.05,0,0,0.05,31,0)" xlink:href="#bQ"/><use transform="matrix(0.05,0,0,0.05,40,0)" xlink:href="#bd"/><use transform="matrix(0.05,0,0,0.05,50,0)" xlink:href="#bg"/><use transform="matrix(0.05,0,0,0.05,60,0)" xlink:href="#bb"/><use transform="matrix(0.05,0,0,0.05,69,0)" xlink:href="#bQ"/></g><path d="M127-220V0H93v-220H8v-28h204v28h-85" id="bR"/><g id="S"><use transform="matrix(0.05,0,0,0.05,0,0)" xlink:href="#bR"/><use transform="matrix(0.05,0,0,0.05,10.3,0)" xlink:href="#aY"/><use transform="matrix(0.05,0,0,0.05,14.25,0)" xlink:href="#bt"/><use transform="matrix(0.05,0,0,0.05,29.200000000000003,0)" xlink:href="#aV"/><use transform="matrix(0.05,0,0,0.05,39.2,0)" xlink:href="#aU"/><use transform="matrix(0.05,0,0,0.05,48.2,0)" xlink:href="#aX"/><use transform="matrix(0.05,0,0,0.05,53.2,0)" xlink:href="#bg"/><use transform="matrix(0.05,0,0,0.05,63.2,0)" xlink:href="#bt"/><use transform="matrix(0.05,0,0,0.05,78.15,0)" xlink:href="#bd"/><use transform="matrix(0.05,0,0,0.05,88.15,0)" xlink:href="#aY"/><use transform="matrix(0.05,0,0,0.05,92.10000000000001,0)" xlink:href="#ba"/><use transform="matrix(0.05,0,0,0.05,102.10000000000001,0)" xlink:href="#bu"/></g><path d="M206 0h-36l-40-164L89 0H53L-1-190h32L70-26l43-164h34l41 164 42-164h31" id="bS"/><g id="T"><use transform="matrix(0.05,0,0,0.05,0,0)" xlink:href="#be"/><use transform="matrix(0.05,0,0,0.05,5,0)" xlink:href="#bm"/><use transform="matrix(0.05,0,0,0.05,8.95,0)" xlink:href="#aZ"/><use transform="matrix(0.05,0,0,0.05,18.95,0)" xlink:href="#bS"/></g><g id="U"><use transform="matrix(0.05,0,0,0.05,0,0)" xlink:href="#bR"/><use transform="matrix(0.05,0,0,0.05,10.950000000000001,0)" xlink:href="#br"/><use transform="matrix(0.05,0,0,0.05,22.950000000000003,0)" xlink:href="#aT"/></g><g id="V"><use transform="matrix(0.05,0,0,0.05,0,0)" xlink:href="#bR"/><use transform="matrix(0.05,0,0,0.05,8.950000000000001,0)" xlink:href="#aZ"/><use transform="matrix(0.05,0,0,0.05,18.950000000000003,0)" xlink:href="#bQ"/><use transform="matrix(0.05,0,0,0.05,27.950000000000003,0)" xlink:href="#aV"/><use transform="matrix(0.05,0,0,0.05,37.95,0)" xlink:href="#ba"/></g><g id="W"><use transform="matrix(0.05,0,0,0.05,0,0)" xlink:href="#aU"/><use transform="matrix(0.05,0,0,0.05,9,0)" xlink:href="#aV"/><use transform="matrix(0.05,0,0,0.05,19,0)" xlink:href="#ba"/><use transform="matrix(0.05,0,0,0.05,29,0)" xlink:href="#bh"/></g><g id="X"><use transform="matrix(0.05,0,0,0.05,0,0)" xlink:href="#bR"/><use transform="matrix(0.05,0,0,0.05,10.950000000000001,0)" xlink:href="#br"/><use transform="matrix(0.05,0,0,0.05,22.950000000000003,0)" xlink:href="#aT"/></g><g id="Y"><use transform="matrix(0.05,0,0,0.05,0,0)" xlink:href="#aT"/><use transform="matrix(0.05,0,0,0.05,12,0)" xlink:href="#aU"/><use transform="matrix(0.05,0,0,0.05,21,0)" xlink:href="#aU"/><use transform="matrix(0.05,0,0,0.05,30,0)" xlink:href="#aV"/><use transform="matrix(0.05,0,0,0.05,40,0)" xlink:href="#aW"/><use transform="matrix(0.05,0,0,0.05,45.95,0)" xlink:href="#aX"/><use transform="matrix(0.05,0,0,0.05,50.95,0)" xlink:href="#aY"/><use transform="matrix(0.05,0,0,0.05,54.900000000000006,0)" xlink:href="#aZ"/><use transform="matrix(0.05,0,0,0.05,64.9,0)" xlink:href="#ba"/></g><g id="Z"><use transform="matrix(0.05,0,0,0.05,0,0)" xlink:href="#bc"/><use transform="matrix(0.05,0,0,0.05,10,0)" xlink:href="#bg"/><use transform="matrix(0.05,0,0,0.05,20,0)" xlink:href="#aU"/><use transform="matrix(0.05,0,0,0.05,29,0)" xlink:href="#bc"/></g><g id="aa"><use transform="matrix(0.05,0,0,0.05,0,0)" xlink:href="#aX"/><use transform="matrix(0.05,0,0,0.05,5,0)" xlink:href="#aY"/><use transform="matrix(0.05,0,0,0.05,8.95,0)" xlink:href="#bt"/><use transform="matrix(0.05,0,0,0.05,23.9,0)" xlink:href="#aV"/><use transform="matrix(0.05,0,0,0.05,33.9,0)" xlink:href="#aU"/><use transform="matrix(0.05,0,0,0.05,42.9,0)" xlink:href="#aX"/><use transform="matrix(0.05,0,0,0.05,47.9,0)" xlink:href="#bg"/><use transform="matrix(0.05,0,0,0.05,57.900000000000006,0)" xlink:href="#bt"/><use transform="matrix(0.05,0,0,0.05,72.85,0)" xlink:href="#bd"/></g><g id="ab"><use transform="matrix(0.05,0,0,0.05,0,0)" xlink:href="#aU"/><use transform="matrix(0.05,0,0,0.05,9,0)" xlink:href="#aY"/><use transform="matrix(0.05,0,0,0.05,12.949999999999998,0)" xlink:href="#bu"/><use transform="matrix(0.05,0,0,0.05,22.95,0)" xlink:href="#ba"/><use transform="matrix(0.05,0,0,0.05,32.95,0)" xlink:href="#bg"/><use transform="matrix(0.05,0,0,0.05,42.95,0)" xlink:href="#aX"/><use transform="matrix(0.05,0,0,0.05,47.95,0)" xlink:href="#bk"/><use transform="matrix(0.05,0,0,0.05,57.95,0)" xlink:href="#aW"/><use transform="matrix(0.05,0,0,0.05,63.900000000000006,0)" xlink:href="#aV"/></g><g id="ac"><use transform="matrix(0.05,0,0,0.05,0,0)" xlink:href="#bd"/><use transform="matrix(0.05,0,0,0.05,10,0)" xlink:href="#bk"/><use transform="matrix(0.05,0,0,0.05,20,0)" xlink:href="#bl"/><use transform="matrix(0.05,0,0,0.05,30,0)" xlink:href="#bQ"/><use transform="matrix(0.05,0,0,0.05,39,0)" xlink:href="#aV"/><use transform="matrix(0.05,0,0,0.05,49,0)" xlink:href="#bo"/></g><g id="ad"><use transform="matrix(0.07407407407407408,0,0,0.07407407407407408,0,0)" xlink:href="#bR"/><use transform="matrix(0.07407407407407408,0,0,0.07407407407407408,16.222222222222225,0)" xlink:href="#bc"/><use transform="matrix(0.07407407407407408,0,0,0.07407407407407408,31.03703703703704,0)" xlink:href="#aV"/></g><g id="ae"><use transform="matrix(0.07407407407407408,0,0,0.07407407407407408,0,0)" xlink:href="#ba"/><use transform="matrix(0.07407407407407408,0,0,0.07407407407407408,14.814814814814817,0)" xlink:href="#aY"/><use transform="matrix(0.07407407407407408,0,0,0.07407407407407408,20.666666666666668,0)" xlink:href="#bb"/><use transform="matrix(0.07407407407407408,0,0,0.07407407407407408,34.00000000000001,0)" xlink:href="#aV"/></g><g id="af"><use transform="matrix(0.07407407407407408,0,0,0.07407407407407408,0,0)" xlink:href="#aX"/><use transform="matrix(0.07407407407407408,0,0,0.07407407407407408,7.407407407407408,0)" xlink:href="#bc"/><use transform="matrix(0.07407407407407408,0,0,0.07407407407407408,22.222222222222225,0)" xlink:href="#aY"/><use transform="matrix(0.07407407407407408,0,0,0.07407407407407408,28.074074074074076,0)" xlink:href="#ba"/><use transform="matrix(0.07407407407407408,0,0,0.07407407407407408,42.88888888888889,0)" xlink:href="#bu"/></g><g id="ag"><use transform="matrix(0.07407407407407408,0,0,0.07407407407407408,0,0)" xlink:href="#bg"/><use transform="matrix(0.07407407407407408,0,0,0.07407407407407408,14.814814814814817,0)" xlink:href="#bl"/><use transform="matrix(0.07407407407407408,0,0,0.07407407407407408,29.629629629629633,0)" xlink:href="#aZ"/><use transform="matrix(0.07407407407407408,0,0,0.07407407407407408,44.44444444444445,0)" xlink:href="#bk"/><use transform="matrix(0.07407407407407408,0,0,0.07407407407407408,59.25925925925927,0)" xlink:href="#aX"/></g><g id="ah"><use transform="matrix(0.07407407407407408,0,0,0.07407407407407408,0,0)" xlink:href="#aX"/><use transform="matrix(0.07407407407407408,0,0,0.07407407407407408,7.407407407407408,0)" xlink:href="#bc"/><use transform="matrix(0.07407407407407408,0,0,0.07407407407407408,22.222222222222225,0)" xlink:href="#aY"/><use transform="matrix(0.07407407407407408,0,0,0.07407407407407408,28.074074074074076,0)" xlink:href="#aU"/></g><g id="ai"><use transform="matrix(0.07407407407407408,0,0,0.07407407407407408,0,0)" xlink:href="#aU"/><use transform="matrix(0.07407407407407408,0,0,0.07407407407407408,13.333333333333336,0)" xlink:href="#aZ"/><use transform="matrix(0.07407407407407408,0,0,0.07407407407407408,28.148148148148152,0)" xlink:href="#bm"/><use transform="matrix(0.07407407407407408,0,0,0.07407407407407408,34.00000000000001,0)" xlink:href="#bk"/><use transform="matrix(0.07407407407407408,0,0,0.07407407407407408,48.814814814814824,0)" xlink:href="#aX"/><use transform="matrix(0.07407407407407408,0,0,0.07407407407407408,56.22222222222223,0)" xlink:href="#aY"/><use transform="matrix(0.07407407407407408,0,0,0.07407407407407408,62.07407407407408,0)" xlink:href="#aZ"/><use transform="matrix(0.07407407407407408,0,0,0.07407407407407408,76.8888888888889,0)" xlink:href="#ba"/></g><g id="aj"><use transform="matrix(0.07407407407407408,0,0,0.07407407407407408,0,0)" xlink:href="#aY"/><use transform="matrix(0.07407407407407408,0,0,0.07407407407407408,5.851851851851853,0)" xlink:href="#aU"/></g><g id="ak"><use transform="matrix(0.07407407407407408,0,0,0.07407407407407408,0,0)" xlink:href="#aX"/><use transform="matrix(0.07407407407407408,0,0,0.07407407407407408,7.407407407407408,0)" xlink:href="#bc"/><use transform="matrix(0.07407407407407408,0,0,0.07407407407407408,22.222222222222225,0)" xlink:href="#bg"/><use transform="matrix(0.07407407407407408,0,0,0.07407407407407408,37.03703703703704,0)" xlink:href="#aX"/></g><g id="al"><use transform="matrix(0.07407407407407408,0,0,0.07407407407407408,0,0)" xlink:href="#aX"/><use transform="matrix(0.07407407407407408,0,0,0.07407407407407408,7.407407407407408,0)" xlink:href="#bc"/><use transform="matrix(0.07407407407407408,0,0,0.07407407407407408,22.222222222222225,0)" xlink:href="#aV"/></g><g id="am"><use transform="matrix(0.07407407407407408,0,0,0.07407407407407408,0,0)" xlink:href="#bb"/><use transform="matrix(0.07407407407407408,0,0,0.07407407407407408,13.333333333333336,0)" xlink:href="#bk"/><use transform="matrix(0.07407407407407408,0,0,0.07407407407407408,28.148148148148152,0)" xlink:href="#aW"/><use transform="matrix(0.07407407407407408,0,0,0.07407407407407408,36.96296296296297,0)" xlink:href="#aW"/><use transform="matrix(0.07407407407407408,0,0,0.07407407407407408,45.777777777777786,0)" xlink:href="#aV"/><use transform="matrix(0.07407407407407408,0,0,0.07407407407407408,60.5925925925926,0)" xlink:href="#ba"/><use transform="matrix(0.07407407407407408,0,0,0.07407407407407408,75.40740740740742,0)" xlink:href="#aX"/></g><path d="M108 0H70L1-190h34L89-25l56-165h34" id="bT"/><g id="an"><use transform="matrix(0.07407407407407408,0,0,0.07407407407407408,0,0)" xlink:href="#bT"/><use transform="matrix(0.07407407407407408,0,0,0.07407407407407408,13.333333333333336,0)" xlink:href="#bg"/><use transform="matrix(0.07407407407407408,0,0,0.07407407407407408,28.148148148148152,0)" xlink:href="#bm"/><use transform="matrix(0.07407407407407408,0,0,0.07407407407407408,34.00000000000001,0)" xlink:href="#aY"/><use transform="matrix(0.07407407407407408,0,0,0.07407407407407408,39.85185185185187,0)" xlink:href="#bh"/><use transform="matrix(0.07407407407407408,0,0,0.07407407407407408,54.666666666666686,0)" xlink:href="#bg"/><use transform="matrix(0.07407407407407408,0,0,0.07407407407407408,69.4814814814815,0)" xlink:href="#aX"/><use transform="matrix(0.07407407407407408,0,0,0.07407407407407408,76.8888888888889,0)" xlink:href="#aY"/><use transform="matrix(0.07407407407407408,0,0,0.07407407407407408,82.74074074074075,0)" xlink:href="#aZ"/><use transform="matrix(0.07407407407407408,0,0,0.07407407407407408,97.55555555555557,0)" xlink:href="#ba"/></g><g id="ao"><use transform="matrix(0.07407407407407408,0,0,0.07407407407407408,0,0)" xlink:href="#aU"/><use transform="matrix(0.07407407407407408,0,0,0.07407407407407408,13.333333333333336,0)" xlink:href="#bb"/><use transform="matrix(0.07407407407407408,0,0,0.07407407407407408,26.66666666666667,0)" xlink:href="#bc"/><use transform="matrix(0.07407407407407408,0,0,0.07407407407407408,41.48148148148149,0)" xlink:href="#aV"/><use transform="matrix(0.07407407407407408,0,0,0.07407407407407408,56.296296296296305,0)" xlink:href="#bt"/><use transform="matrix(0.07407407407407408,0,0,0.07407407407407408,78.44444444444446,0)" xlink:href="#bg"/></g><g id="ap"><use transform="matrix(0.07407407407407408,0,0,0.07407407407407408,0,0)" xlink:href="#be"/><use transform="matrix(0.07407407407407408,0,0,0.07407407407407408,7.407407407407408,0)" xlink:href="#aZ"/><use transform="matrix(0.07407407407407408,0,0,0.07407407407407408,22.222222222222225,0)" xlink:href="#aW"/></g><g id="aq"><use transform="matrix(0.07407407407407408,0,0,0.07407407407407408,0,0)" xlink:href="#br"/><use transform="matrix(0.07407407407407408,0,0,0.07407407407407408,17.77777777777778,0)" xlink:href="#aY"/><use transform="matrix(0.07407407407407408,0,0,0.07407407407407408,23.629629629629633,0)" xlink:href="#bu"/><use transform="matrix(0.07407407407407408,0,0,0.07407407407407408,38.44444444444445,0)" xlink:href="#ba"/><use transform="matrix(0.07407407407407408,0,0,0.07407407407407408,53.25925925925927,0)" xlink:href="#aV"/><use transform="matrix(0.07407407407407408,0,0,0.07407407407407408,68.07407407407408,0)" xlink:href="#bh"/></g><g id="ar"><use transform="matrix(0.07407407407407408,0,0,0.07407407407407408,0,0)" xlink:href="#bN"/><use transform="matrix(0.07407407407407408,0,0,0.07407407407407408,20.740740740740744,0)" xlink:href="#bd"/><use transform="matrix(0.07407407407407408,0,0,0.07407407407407408,35.55555555555556,0)" xlink:href="#aV"/><use transform="matrix(0.07407407407407408,0,0,0.07407407407407408,50.370370370370374,0)" xlink:href="#ba"/></g><g id="as"><use transform="matrix(0.07407407407407408,0,0,0.07407407407407408,0,0)" xlink:href="#bi"/><use transform="matrix(0.07407407407407408,0,0,0.07407407407407408,17.77777777777778,0)" xlink:href="#bg"/><use transform="matrix(0.07407407407407408,0,0,0.07407407407407408,32.592592592592595,0)" xlink:href="#bh"/><use transform="matrix(0.07407407407407408,0,0,0.07407407407407408,47.40740740740741,0)" xlink:href="#bu"/><use transform="matrix(0.07407407407407408,0,0,0.07407407407407408,62.22222222222223,0)" xlink:href="#aV"/><use transform="matrix(0.07407407407407408,0,0,0.07407407407407408,77.03703703703702,0)" xlink:href="#aU"/></g><g id="at"><use transform="matrix(0.07407407407407408,0,0,0.07407407407407408,0,0)" xlink:href="#bb"/><use transform="matrix(0.07407407407407408,0,0,0.07407407407407408,13.333333333333336,0)" xlink:href="#bg"/><use transform="matrix(0.07407407407407408,0,0,0.07407407407407408,28.148148148148152,0)" xlink:href="#ba"/></g><g id="au"><use transform="matrix(0.07407407407407408,0,0,0.07407407407407408,0,0)" xlink:href="#bl"/><use transform="matrix(0.07407407407407408,0,0,0.07407407407407408,14.814814814814817,0)" xlink:href="#aV"/></g><g id="av"><use transform="matrix(0.07407407407407408,0,0,0.07407407407407408,0,0)" xlink:href="#bk"/><use transform="matrix(0.07407407407407408,0,0,0.07407407407407408,14.814814814814817,0)" xlink:href="#aU"/><use transform="matrix(0.07407407407407408,0,0,0.07407407407407408,28.148148148148152,0)" xlink:href="#aV"/><use transform="matrix(0.07407407407407408,0,0,0.07407407407407408,42.96296296296297,0)" xlink:href="#bh"/></g><path d="M87 75C49 33 22-17 22-94c0-76 28-126 65-167h31c-38 41-64 92-64 168S80 34 118 75H87" id="bU"/><g id="aw"><use transform="matrix(0.07407407407407408,0,0,0.07407407407407408,0,0)" xlink:href="#bU"/><use transform="matrix(0.07407407407407408,0,0,0.07407407407407408,8.814814814814817,0)" xlink:href="#bg"/><use transform="matrix(0.07407407407407408,0,0,0.07407407407407408,23.629629629629633,0)" xlink:href="#bm"/><use transform="matrix(0.07407407407407408,0,0,0.07407407407407408,29.481481481481488,0)" xlink:href="#bt"/><use transform="matrix(0.07407407407407408,0,0,0.07407407407407408,51.62962962962963,0)" xlink:href="#aZ"/><use transform="matrix(0.07407407407407408,0,0,0.07407407407407408,66.44444444444446,0)" xlink:href="#aU"/><use transform="matrix(0.07407407407407408,0,0,0.07407407407407408,79.7777777777778,0)" xlink:href="#aX"/></g><path d="M33-261c38 41 65 92 65 168S71 34 33 75H2C39 34 66-17 66-93S39-220 2-261h31" id="bV"/><path d="M68-38c1 34 0 65-14 84H32c9-13 17-26 17-46H33v-38h35" id="bW"/><g id="ax"><use transform="matrix(0.07407407407407408,0,0,0.07407407407407408,0,0)" xlink:href="#aV"/><use transform="matrix(0.07407407407407408,0,0,0.07407407407407408,14.814814814814817,0)" xlink:href="#ba"/><use transform="matrix(0.07407407407407408,0,0,0.07407407407407408,29.629629629629633,0)" xlink:href="#aX"/><use transform="matrix(0.07407407407407408,0,0,0.07407407407407408,37.03703703703704,0)" xlink:href="#aY"/><use transform="matrix(0.07407407407407408,0,0,0.07407407407407408,42.88888888888889,0)" xlink:href="#aW"/><use transform="matrix(0.07407407407407408,0,0,0.07407407407407408,51.70370370370371,0)" xlink:href="#aV"/><use transform="matrix(0.07407407407407408,0,0,0.07407407407407408,66.51851851851853,0)" xlink:href="#bm"/><use transform="matrix(0.07407407407407408,0,0,0.07407407407407408,72.37037037037038,0)" xlink:href="#bo"/><use transform="matrix(0.07407407407407408,0,0,0.07407407407407408,85.70370370370374,0)" xlink:href="#bV"/><use transform="matrix(0.07407407407407408,0,0,0.07407407407407408,94.51851851851853,0)" xlink:href="#bW"/></g><g id="ay"><use transform="matrix(0.07407407407407408,0,0,0.07407407407407408,0,0)" xlink:href="#bS"/><use transform="matrix(0.07407407407407408,0,0,0.07407407407407408,19.185185185185187,0)" xlink:href="#bc"/><use transform="matrix(0.07407407407407408,0,0,0.07407407407407408,34,0)" xlink:href="#aY"/><use transform="matrix(0.07407407407407408,0,0,0.07407407407407408,39.851851851851855,0)" xlink:href="#bm"/><use transform="matrix(0.07407407407407408,0,0,0.07407407407407408,45.70370370370371,0)" xlink:href="#aV"/></g><g id="az"><use transform="matrix(0.07407407407407408,0,0,0.07407407407407408,0,0)" xlink:href="#bg"/><use transform="matrix(0.07407407407407408,0,0,0.07407407407407408,14.814814814814817,0)" xlink:href="#aX"/></g><g id="aA"><use transform="matrix(0.07407407407407408,0,0,0.07407407407407408,0,0)" xlink:href="#aU"/><use transform="matrix(0.07407407407407408,0,0,0.07407407407407408,13.333333333333336,0)" xlink:href="#bg"/><use transform="matrix(0.07407407407407408,0,0,0.07407407407407408,28.148148148148152,0)" xlink:href="#bt"/><use transform="matrix(0.07407407407407408,0,0,0.07407407407407408,50.296296296296305,0)" xlink:href="#aV"/></g><g id="aB"><use transform="matrix(0.07407407407407408,0,0,0.07407407407407408,0,0)" xlink:href="#aX"/><use transform="matrix(0.07407407407407408,0,0,0.07407407407407408,7.407407407407408,0)" xlink:href="#aY"/><use transform="matrix(0.07407407407407408,0,0,0.07407407407407408,13.259259259259261,0)" xlink:href="#bt"/><use transform="matrix(0.07407407407407408,0,0,0.07407407407407408,35.40740740740741,0)" xlink:href="#aV"/><use transform="matrix(0.07407407407407408,0,0,0.07407407407407408,50.22222222222223,0)" xlink:href="#bW"/></g><g id="aC"><use transform="matrix(0.07407407407407408,0,0,0.07407407407407408,0,0)" xlink:href="#be"/><use transform="matrix(0.07407407407407408,0,0,0.07407407407407408,7.407407407407408,0)" xlink:href="#bk"/><use transform="matrix(0.07407407407407408,0,0,0.07407407407407408,22.222222222222225,0)" xlink:href="#aX"/><use transform="matrix(0.07407407407407408,0,0,0.07407407407407408,29.629629629629633,0)" xlink:href="#bk"/><use transform="matrix(0.07407407407407408,0,0,0.07407407407407408,44.44444444444445,0)" xlink:href="#aW"/><use transform="matrix(0.07407407407407408,0,0,0.07407407407407408,53.25925925925927,0)" xlink:href="#aV"/></g><g id="aD"><use transform="matrix(0.07407407407407408,0,0,0.07407407407407408,0,0)" xlink:href="#bd"/><use transform="matrix(0.07407407407407408,0,0,0.07407407407407408,14.814814814814817,0)" xlink:href="#aW"/><use transform="matrix(0.07407407407407408,0,0,0.07407407407407408,23.629629629629633,0)" xlink:href="#aZ"/><use transform="matrix(0.07407407407407408,0,0,0.07407407407407408,38.44444444444445,0)" xlink:href="#aZ"/><use transform="matrix(0.07407407407407408,0,0,0.07407407407407408,53.25925925925927,0)" xlink:href="#be"/><use transform="matrix(0.07407407407407408,0,0,0.07407407407407408,60.66666666666667,0)" xlink:href="#aY"/><use transform="matrix(0.07407407407407408,0,0,0.07407407407407408,66.51851851851852,0)" xlink:href="#ba"/><use transform="matrix(0.07407407407407408,0,0,0.07407407407407408,81.33333333333334,0)" xlink:href="#bu"/></g><g id="aE"><use transform="matrix(0.07407407407407408,0,0,0.07407407407407408,0,0)" xlink:href="#bl"/><use transform="matrix(0.07407407407407408,0,0,0.07407407407407408,14.814814814814817,0)" xlink:href="#bg"/><use transform="matrix(0.07407407407407408,0,0,0.07407407407407408,29.629629629629633,0)" xlink:href="#bh"/><use transform="matrix(0.07407407407407408,0,0,0.07407407407407408,44.44444444444445,0)" xlink:href="#bu"/><use transform="matrix(0.07407407407407408,0,0,0.07407407407407408,59.25925925925927,0)" xlink:href="#aV"/></g><g id="aF"><use transform="matrix(0.07407407407407408,0,0,0.07407407407407408,0,0)" xlink:href="#bS"/><use transform="matrix(0.07407407407407408,0,0,0.07407407407407408,19.185185185185187,0)" xlink:href="#aY"/><use transform="matrix(0.07407407407407408,0,0,0.07407407407407408,25.037037037037035,0)" xlink:href="#aX"/><use transform="matrix(0.07407407407407408,0,0,0.07407407407407408,32.44444444444444,0)" xlink:href="#bc"/></g><path d="M33 0v-38h34V0H33" id="bX"/><g id="aG"><use transform="matrix(0.07407407407407408,0,0,0.07407407407407408,0,0)" xlink:href="#aX"/><use transform="matrix(0.07407407407407408,0,0,0.07407407407407408,7.407407407407408,0)" xlink:href="#aY"/><use transform="matrix(0.07407407407407408,0,0,0.07407407407407408,13.259259259259261,0)" xlink:href="#bt"/><use transform="matrix(0.07407407407407408,0,0,0.07407407407407408,35.40740740740741,0)" xlink:href="#aV"/><use transform="matrix(0.07407407407407408,0,0,0.07407407407407408,50.22222222222223,0)" xlink:href="#aU"/><use transform="matrix(0.07407407407407408,0,0,0.07407407407407408,63.555555555555564,0)" xlink:href="#aX"/><use transform="matrix(0.07407407407407408,0,0,0.07407407407407408,70.96296296296298,0)" xlink:href="#bg"/><use transform="matrix(0.07407407407407408,0,0,0.07407407407407408,85.7777777777778,0)" xlink:href="#bt"/><use transform="matrix(0.07407407407407408,0,0,0.07407407407407408,107.92592592592595,0)" xlink:href="#bd"/><use transform="matrix(0.07407407407407408,0,0,0.07407407407407408,122.74074074074076,0)" xlink:href="#aY"/><use transform="matrix(0.07407407407407408,0,0,0.07407407407407408,128.5925925925926,0)" xlink:href="#ba"/><use transform="matrix(0.07407407407407408,0,0,0.07407407407407408,143.40740740740742,0)" xlink:href="#bu"/><use transform="matrix(0.07407407407407408,0,0,0.07407407407407408,158.22222222222226,0)" xlink:href="#bX"/></g><path d="M24-231v-30h32v30H24zM-9 49c24 4 33-6 33-30v-209h32V24c2 40-23 58-65 49V49" id="bY"/><g id="aH"><use transform="matrix(0.1111111111111111,0,0,0.1111111111111111,0,0)" xlink:href="#bN"/><use transform="matrix(0.1111111111111111,0,0,0.1111111111111111,31.11111111111111,0)" xlink:href="#bl"/><use transform="matrix(0.1111111111111111,0,0,0.1111111111111111,53.33333333333333,0)" xlink:href="#bY"/><use transform="matrix(0.1111111111111111,0,0,0.1111111111111111,62.11111111111111,0)" xlink:href="#aV"/><use transform="matrix(0.1111111111111111,0,0,0.1111111111111111,84.33333333333333,0)" xlink:href="#bb"/><use transform="matrix(0.1111111111111111,0,0,0.1111111111111111,104.33333333333333,0)" xlink:href="#aX"/></g><g id="aI"><use transform="matrix(0.1111111111111111,0,0,0.1111111111111111,0,0)" xlink:href="#be"/><use transform="matrix(0.1111111111111111,0,0,0.1111111111111111,11.11111111111111,0)" xlink:href="#bm"/><use transform="matrix(0.1111111111111111,0,0,0.1111111111111111,19.888888888888886,0)" xlink:href="#aZ"/><use transform="matrix(0.1111111111111111,0,0,0.1111111111111111,42.11111111111111,0)" xlink:href="#bS"/></g><g id="aJ"><use transform="matrix(0.1111111111111111,0,0,0.1111111111111111,0,0)" xlink:href="#aZ"/><use transform="matrix(0.1111111111111111,0,0,0.1111111111111111,22.22222222222222,0)" xlink:href="#be"/></g><g id="aK"><use transform="matrix(0.1111111111111111,0,0,0.1111111111111111,0,0)" xlink:href="#aY"/><use transform="matrix(0.1111111111111111,0,0,0.1111111111111111,8.777777777777777,0)" xlink:href="#aU"/><use transform="matrix(0.1111111111111111,0,0,0.1111111111111111,28.777777777777775,0)" xlink:href="#aU"/><use transform="matrix(0.1111111111111111,0,0,0.1111111111111111,48.77777777777778,0)" xlink:href="#bk"/><use transform="matrix(0.1111111111111111,0,0,0.1111111111111111,71,0)" xlink:href="#aY"/><use transform="matrix(0.1111111111111111,0,0,0.1111111111111111,79.77777777777777,0)" xlink:href="#ba"/><use transform="matrix(0.1111111111111111,0,0,0.1111111111111111,102,0)" xlink:href="#bu"/></g><g id="aL"><use transform="matrix(0.1111111111111111,0,0,0.1111111111111111,0,0)" xlink:href="#bR"/><use transform="matrix(0.1111111111111111,0,0,0.1111111111111111,22.88888888888889,0)" xlink:href="#aY"/><use transform="matrix(0.1111111111111111,0,0,0.1111111111111111,31.666666666666664,0)" xlink:href="#bt"/><use transform="matrix(0.1111111111111111,0,0,0.1111111111111111,64.88888888888889,0)" xlink:href="#aV"/><use transform="matrix(0.1111111111111111,0,0,0.1111111111111111,87.11111111111111,0)" xlink:href="#aU"/><use transform="matrix(0.1111111111111111,0,0,0.1111111111111111,107.11111111111111,0)" xlink:href="#aX"/><use transform="matrix(0.1111111111111111,0,0,0.1111111111111111,118.22222222222224,0)" xlink:href="#bg"/><use transform="matrix(0.1111111111111111,0,0,0.1111111111111111,140.44444444444446,0)" xlink:href="#bt"/><use transform="matrix(0.1111111111111111,0,0,0.1111111111111111,173.66666666666669,0)" xlink:href="#bd"/><use transform="matrix(0.1111111111111111,0,0,0.1111111111111111,195.8888888888889,0)" xlink:href="#aV"/><use transform="matrix(0.1111111111111111,0,0,0.1111111111111111,218.11111111111114,0)" xlink:href="#bh"/></g><g id="aM"><use transform="matrix(0.1111111111111111,0,0,0.1111111111111111,0,0)" xlink:href="#br"/><use transform="matrix(0.1111111111111111,0,0,0.1111111111111111,26.666666666666664,0)" xlink:href="#aY"/><use transform="matrix(0.1111111111111111,0,0,0.1111111111111111,35.44444444444444,0)" xlink:href="#bu"/><use transform="matrix(0.1111111111111111,0,0,0.1111111111111111,57.666666666666664,0)" xlink:href="#ba"/><use transform="matrix(0.1111111111111111,0,0,0.1111111111111111,79.88888888888889,0)" xlink:href="#aV"/><use transform="matrix(0.1111111111111111,0,0,0.1111111111111111,102.11111111111111,0)" xlink:href="#bh"/></g><g id="aN"><use transform="matrix(0.1111111111111111,0,0,0.1111111111111111,0,0)" xlink:href="#bN"/><use transform="matrix(0.1111111111111111,0,0,0.1111111111111111,31.11111111111111,0)" xlink:href="#bd"/><use transform="matrix(0.1111111111111111,0,0,0.1111111111111111,53.33333333333333,0)" xlink:href="#aV"/><use transform="matrix(0.1111111111111111,0,0,0.1111111111111111,75.55555555555554,0)" xlink:href="#ba"/></g><g id="aO"><use transform="matrix(0.1111111111111111,0,0,0.1111111111111111,0,0)" xlink:href="#bi"/><use transform="matrix(0.1111111111111111,0,0,0.1111111111111111,26.666666666666664,0)" xlink:href="#bg"/><use transform="matrix(0.1111111111111111,0,0,0.1111111111111111,48.888888888888886,0)" xlink:href="#bh"/><use transform="matrix(0.1111111111111111,0,0,0.1111111111111111,71.11111111111111,0)" xlink:href="#bu"/><use transform="matrix(0.1111111111111111,0,0,0.1111111111111111,93.33333333333334,0)" xlink:href="#aV"/></g><g id="aP"><use transform="matrix(0.1111111111111111,0,0,0.1111111111111111,0,0)" xlink:href="#bi"/><use transform="matrix(0.1111111111111111,0,0,0.1111111111111111,26.666666666666664,0)" xlink:href="#aY"/><use transform="matrix(0.1111111111111111,0,0,0.1111111111111111,35.44444444444444,0)" xlink:href="#aX"/><use transform="matrix(0.1111111111111111,0,0,0.1111111111111111,46.55555555555556,0)" xlink:href="#bb"/><use transform="matrix(0.1111111111111111,0,0,0.1111111111111111,66.55555555555556,0)" xlink:href="#aZ"/><use transform="matrix(0.1111111111111111,0,0,0.1111111111111111,88.77777777777777,0)" xlink:href="#aY"/><use transform="matrix(0.1111111111111111,0,0,0.1111111111111111,97.55555555555554,0)" xlink:href="#ba"/></g><g id="aQ"><use transform="matrix(0.1111111111111111,0,0,0.1111111111111111,0,0)" xlink:href="#bT"/><use transform="matrix(0.1111111111111111,0,0,0.1111111111111111,20,0)" xlink:href="#aU"/></g><g id="aR"><use transform="matrix(0.1111111111111111,0,0,0.1111111111111111,0,0)" xlink:href="#bR"/><use transform="matrix(0.1111111111111111,0,0,0.1111111111111111,24.333333333333332,0)" xlink:href="#br"/><use transform="matrix(0.1111111111111111,0,0,0.1111111111111111,51,0)" xlink:href="#aT"/></g><g id="aS"><use transform="matrix(0.1111111111111111,0,0,0.1111111111111111,0,0)" xlink:href="#aY"/><use transform="matrix(0.1111111111111111,0,0,0.1111111111111111,8.777777777777777,0)" xlink:href="#bt"/><use transform="matrix(0.1111111111111111,0,0,0.1111111111111111,42,0)" xlink:href="#bd"/><use transform="matrix(0.1111111111111111,0,0,0.1111111111111111,64.22222222222223,0)" xlink:href="#bm"/><use transform="matrix(0.1111111111111111,0,0,0.1111111111111111,73,0)" xlink:href="#aV"/><use transform="matrix(0.1111111111111111,0,0,0.1111111111111111,95.22222222222223,0)" xlink:href="#bt"/><use transform="matrix(0.1111111111111111,0,0,0.1111111111111111,128.44444444444446,0)" xlink:href="#aV"/><use transform="matrix(0.1111111111111111,0,0,0.1111111111111111,150.66666666666669,0)" xlink:href="#ba"/><use transform="matrix(0.1111111111111111,0,0,0.1111111111111111,172.8888888888889,0)" xlink:href="#aX"/><use transform="matrix(0.1111111111111111,0,0,0.1111111111111111,184.00000000000003,0)" xlink:href="#bg"/><use transform="matrix(0.1111111111111111,0,0,0.1111111111111111,206.22222222222226,0)" xlink:href="#aX"/><use transform="matrix(0.1111111111111111,0,0,0.1111111111111111,217.33333333333337,0)" xlink:href="#aY"/><use transform="matrix(0.1111111111111111,0,0,0.1111111111111111,226.11111111111114,0)" xlink:href="#aZ"/><use transform="matrix(0.1111111111111111,0,0,0.1111111111111111,248.33333333333337,0)" xlink:href="#ba"/></g></defs></g></svg>